<svg width="47" height="55" viewBox="0 0 47 55" fill="none" xmlns="http://www.w3.org/2000/svg">
<path d="M46.4492 39.9095C45.1989 42.6826 44.5964 43.9209 42.9858 46.3731C40.7395 49.7941 37.5667 54.0567 33.6401 54.093C30.1525 54.1233 29.2564 51.8225 24.5185 51.8497C19.7836 51.8739 18.7966 54.1354 15.306 54.1021C11.3794 54.0658 8.37321 50.2179 6.12382 46.7939C-0.164147 37.2272 -0.8211 25.9954 3.05704 20.0223C5.812 15.7809 10.1624 13.2984 14.2494 13.2984C18.4122 13.2984 21.0309 15.5811 24.4701 15.5811C27.8093 15.5811 29.8437 13.2923 34.6574 13.2923C38.2903 13.2923 42.1472 15.2753 44.8931 18.6963C35.8956 23.628 37.3548 36.4764 46.4492 39.9095ZM31.0063 9.47173C32.7531 7.22538 34.0821 4.05869 33.6008 0.819336C30.7429 1.01612 27.4036 2.83258 25.4509 5.20305C23.6829 7.35253 22.2207 10.5404 22.7868 13.6405C25.9051 13.7344 29.1323 11.8725 31.0063 9.47173Z" fill="black"/>
</svg>
