<svg width="91" height="90" viewBox="0 0 91 90" fill="none" xmlns="http://www.w3.org/2000/svg">
<path fill-rule="evenodd" clip-rule="evenodd" d="M21.3728 42.0727C22.6397 40.2629 25.1338 39.8228 26.9436 41.0896L45.2988 53.9383L63.6541 41.0896C65.4639 39.8228 67.958 40.2629 69.2248 42.0727C70.4917 43.8825 70.0516 46.3766 68.2418 47.6435L47.5927 62.0978C46.2154 63.0619 44.3823 63.0619 43.005 62.0978L22.3559 47.6435C20.5461 46.3766 20.106 43.8825 21.3728 42.0727Z" fill="black"/>
<path fill-rule="evenodd" clip-rule="evenodd" d="M43.1085 9.04645C44.4576 8.23711 46.1426 8.23712 47.4917 9.04649ZM43.1084 9.04652L10.07 28.8696C10.07 28.8696 10.07 28.8696 10.07 28.8696C8.78699 29.6394 8.00195 31.0259 8.00195 32.5222V77.4035C8.00195 79.7561 9.90901 81.6631 12.2616 81.6631H78.3386C80.6913 81.6631 82.5983 79.7561 82.5983 77.4035V32.5222C82.5983 31.0259 81.8132 29.6394 80.5302 28.8696L47.4918 9.04654C47.4918 9.04652 47.4917 9.04651 47.4917 9.04649M38.9927 2.18643C42.8752 -0.142882 47.7251 -0.142887 51.6076 2.1865L51.6077 2.18655L84.6462 22.0097C88.3388 24.2252 90.5983 28.2158 90.5983 32.5222V77.4035C90.5983 84.1744 85.1096 89.6631 78.3386 89.6631H12.2616C5.49081 89.6631 0.00195312 84.1744 0.00195312 77.4035V32.5222C0.00195312 28.2158 2.26141 24.2252 5.95405 22.0096L5.95406 22.0096L38.9925 2.18651L38.9927 2.18643Z" fill="black"/>
</svg>
