<svg width="88" height="88" viewBox="0 0 88 88" fill="none" xmlns="http://www.w3.org/2000/svg">
<path fill-rule="evenodd" clip-rule="evenodd" d="M22.5615 44.0507C22.5615 32.4252 31.9858 23.001 43.6112 23.001C55.2364 23.001 64.6609 32.4252 64.6609 44.0507C64.6609 55.6759 55.2365 65.1004 43.6112 65.1004C31.9858 65.1004 22.5615 55.6759 22.5615 44.0507ZM43.6112 29.001C35.2995 29.001 28.5615 35.7389 28.5615 44.0507C28.5615 52.3622 35.2995 59.1004 43.6112 59.1004C51.9228 59.1004 58.6609 52.3622 58.6609 44.0507C58.6609 35.739 51.9228 29.001 43.6112 29.001Z" fill="black"/>
<path fill-rule="evenodd" clip-rule="evenodd" d="M25.5621 6.43945C14.7583 6.43945 6 15.1977 6 26.0016V62.101C6 72.9047 14.7583 81.6631 25.5621 81.6631H61.6615C72.4653 81.6631 81.2236 72.9047 81.2236 62.101V26.0016C81.2236 15.1977 72.4653 6.43945 61.6615 6.43945H25.5621ZM0 26.0016C0 11.884 11.4446 0.439453 25.5621 0.439453H61.6615C75.779 0.439453 87.2236 11.884 87.2236 26.0016V62.101C87.2236 76.2184 75.779 87.6631 61.6615 87.6631H25.5621C11.4446 87.6631 0 76.2184 0 62.101V26.0016Z" fill="black"/>
<path fill-rule="evenodd" clip-rule="evenodd" d="M70.4843 16.9988C71.7158 18.1072 71.8156 20.0041 70.7071 21.2355L70.6595 21.2885C69.5511 22.5199 67.6542 22.6197 66.4227 21.5113C65.1912 20.4028 65.0915 18.5059 66.1999 17.2745L66.2476 17.2215C67.356 15.9901 69.2529 15.8903 70.4843 16.9988Z" fill="black"/>
</svg>
