<svg width="46" height="55" viewBox="0 0 46 55" fill="none" xmlns="http://www.w3.org/2000/svg">
<path d="M30.1707 5.765L32.4984 1.56564C32.5282 1.51177 32.5472 1.45254 32.5542 1.39134C32.5612 1.33013 32.556 1.26816 32.539 1.20894C32.5221 1.14973 32.4936 1.09444 32.4552 1.04623C32.4169 0.998017 32.3694 0.957831 32.3156 0.927965C32.2068 0.867647 32.0784 0.853021 31.9589 0.887307C31.8393 0.921592 31.7382 1.00198 31.6779 1.11078L29.3244 5.35668C27.3163 4.47637 25.1476 4.02188 22.9551 4.02188C20.7625 4.02188 18.5938 4.47637 16.5857 5.35668L14.2322 1.11078C14.1719 1.00198 14.0708 0.921592 13.9512 0.887307C13.8316 0.853021 13.7033 0.867647 13.5945 0.927965C13.4857 0.988283 13.4053 1.08935 13.371 1.20894C13.3367 1.32853 13.3514 1.45684 13.4117 1.56564L15.7394 5.76502C13.5237 6.85723 11.6515 8.53858 10.3283 10.6246C9.00502 12.7107 8.28186 15.1209 8.23809 17.5909H37.6721C37.6283 15.1209 36.9051 12.7107 35.5819 10.6246C34.2587 8.53856 32.3865 6.85721 30.1707 5.765ZM16.1625 12.2052C15.9194 12.2052 15.6818 12.1331 15.4796 11.9981C15.2775 11.863 15.12 11.6711 15.027 11.4465C14.9339 11.2219 14.9096 10.9748 14.957 10.7364C15.0044 10.498 15.1215 10.279 15.2934 10.1071C15.4653 9.93518 15.6843 9.81812 15.9227 9.7707C16.1611 9.72327 16.4082 9.74761 16.6328 9.84064C16.8574 9.93366 17.0493 10.0912 17.1844 10.2933C17.3194 10.4954 17.3915 10.7331 17.3915 10.9761C17.3912 11.302 17.2616 11.6144 17.0311 11.8448C16.8007 12.0752 16.4883 12.2048 16.1625 12.2052ZM29.7476 12.2052C29.5045 12.2052 29.2669 12.1331 29.0648 11.9981C28.8626 11.863 28.7051 11.6711 28.6121 11.4465C28.5191 11.2219 28.4947 10.9748 28.5421 10.7364C28.5896 10.498 28.7066 10.279 28.8785 10.1071C29.0504 9.93518 29.2694 9.81812 29.5078 9.7707C29.7462 9.72327 29.9933 9.74761 30.2179 9.84064C30.4425 9.93366 30.6345 10.0912 30.7695 10.2933C30.9046 10.4954 30.9766 10.7331 30.9766 10.9761C30.9763 11.302 30.8467 11.6144 30.6163 11.8448C30.3858 12.0752 30.0734 12.2048 29.7476 12.2052ZM8.23787 40.0871C8.23787 41.0307 8.61273 41.9357 9.27999 42.603C9.94724 43.2702 10.8522 43.6451 11.7959 43.6451H14.157V50.9228C14.1558 51.3568 14.2403 51.7868 14.4056 52.1881C14.5708 52.5895 14.8137 52.9542 15.1202 53.2616C15.4267 53.5689 15.7908 53.8127 16.1916 53.9791C16.5925 54.1454 17.0223 54.2311 17.4563 54.2311C17.8903 54.2311 18.3201 54.1454 18.7209 53.9791C19.1218 53.8127 19.4859 53.5689 19.7924 53.2616C20.0989 52.9542 20.3417 52.5895 20.507 52.1881C20.6723 51.7868 20.7568 51.3568 20.7556 50.9228V43.6451H25.1545V50.9228C25.1533 51.3568 25.2378 51.7868 25.403 52.1881C25.5683 52.5895 25.8111 52.9542 26.1176 53.2616C26.4241 53.5689 26.7882 53.8127 27.1891 53.9791C27.59 54.1454 28.0197 54.2311 28.4538 54.2311C28.8878 54.2311 29.3175 54.1454 29.7184 53.9791C30.1193 53.8127 30.4834 53.5689 30.7899 53.2616C31.0964 52.9542 31.3392 52.5895 31.5045 52.1881C31.6698 51.7868 31.7542 51.3568 31.7531 50.9228V43.6451H34.1143C34.5815 43.6451 35.0442 43.553 35.4759 43.3742C35.9075 43.1954 36.2998 42.9334 36.6302 42.603C36.9605 42.2726 37.2226 41.8803 37.4014 41.4487C37.5802 41.017 37.6723 40.5543 37.6723 40.0871V18.7552H8.23787V40.0871ZM3.70945 18.1891C2.83473 18.1901 1.99612 18.538 1.3776 19.1566C0.759076 19.7751 0.411157 20.6137 0.410168 21.4884V35.2353C0.408992 35.6693 0.493462 36.0993 0.65874 36.5006C0.824018 36.9019 1.06686 37.2667 1.37334 37.574C1.67983 37.8813 2.04394 38.1252 2.44481 38.2915C2.84568 38.4579 3.27544 38.5435 3.70947 38.5435C4.14349 38.5435 4.57325 38.4579 4.97412 38.2915C5.375 38.1252 5.73911 37.8813 6.04559 37.574C6.35208 37.2667 6.59491 36.9019 6.76019 36.5006C6.92547 36.0993 7.00994 35.6693 7.00876 35.2353V21.4884C7.00778 20.6137 6.65985 19.7751 6.04133 19.1566C5.4228 18.538 4.58418 18.1901 3.70945 18.1891ZM42.2006 18.1891C41.3259 18.1901 40.4873 18.538 39.8687 19.1566C39.2502 19.7751 38.9023 20.6137 38.9013 21.4884V35.2353C38.9001 35.6693 38.9846 36.0993 39.1499 36.5006C39.3151 36.9019 39.558 37.2667 39.8645 37.574C40.1709 37.8813 40.5351 38.1252 40.9359 38.2915C41.3368 38.4579 41.7666 38.5435 42.2006 38.5435C42.6346 38.5435 43.0644 38.4579 43.4652 38.2915C43.8661 38.1252 44.2302 37.8813 44.5367 37.574C44.8432 37.2667 45.086 36.9019 45.2513 36.5006C45.4166 36.0993 45.5011 35.6693 45.4999 35.2353V21.4884C45.4989 20.6137 45.151 19.7751 44.5325 19.1566C43.9139 18.538 43.0753 18.1901 42.2006 18.1891Z" fill="black"/>
</svg>
