<svg width="80" height="76" viewBox="0 0 80 76" fill="none" xmlns="http://www.w3.org/2000/svg">
<path fill-rule="evenodd" clip-rule="evenodd" d="M56.7321 7.52114C61.286 12.0751 64.1547 18.7596 64.1547 27.3111V29.5461H66.8355C71.7918 29.5461 73.8282 35.9053 69.7962 38.7855L69.7962 38.7855L64.758 42.3841C66.4797 46.2597 70.5997 52.0679 77.6842 54.092C78.6052 54.3552 79.3453 55.0424 79.6758 55.9415C80.0063 56.8406 79.8876 57.8435 79.3562 58.6406C78.5892 59.7913 77.2094 61.3672 75.3865 62.6818C73.9257 63.7353 72.0332 64.7245 69.8306 65.0763L67.1409 69.1109C66.4666 70.1224 65.2485 70.627 64.0564 70.3886L56.6604 68.9094C55.0561 70.0836 52.8561 71.5071 50.4282 72.7395C47.4322 74.2603 43.7209 75.682 40.2142 75.682C36.7074 75.682 32.9962 74.2603 30.0002 72.7395C27.5723 71.5071 25.3723 70.0836 23.768 68.9094L16.372 70.3886C15.1799 70.627 13.9618 70.1224 13.2875 69.1109L10.5978 65.0763C8.39514 64.7245 6.50271 63.7353 5.04193 62.6818C3.21897 61.3672 1.83927 59.7913 1.07221 58.6407C0.54084 57.8436 0.422072 56.8407 0.752576 55.9416C1.08308 55.0424 1.82311 54.3552 2.74421 54.092C9.82859 52.0679 13.9486 46.2597 15.6703 42.3841L10.6321 38.7855L10.632 38.7854C6.59975 35.905 8.63702 29.5461 13.593 29.5461H16.2737V27.3111C16.2737 18.7596 19.1423 12.0751 23.6963 7.52118C28.222 2.99543 34.237 0.752939 40.2142 0.75293C46.1914 0.75292 52.2064 2.99539 56.7321 7.52114ZM27.9389 11.7638C24.6402 15.0626 22.2737 20.1571 22.2737 27.3111V32.5461C22.2737 34.2029 20.9306 35.5461 19.2737 35.5461H16.4197L21.0174 38.83C22.0501 39.5676 22.5069 40.8752 22.1583 42.0954C21.0268 46.0558 16.9949 53.8806 8.91572 58.0659C10.0105 58.7827 11.1638 59.2117 12.2936 59.2117C13.2966 59.2117 14.2333 59.713 14.7897 60.5476L17.1654 64.1111L23.9205 62.7601C24.7895 62.5863 25.691 62.8056 26.383 63.3592C27.6929 64.4072 30.0516 66.0369 32.716 67.3894C35.4496 68.7769 38.1368 69.682 40.2142 69.682C42.2916 69.682 44.9788 68.7769 47.7124 67.3894C50.3769 66.0369 52.7356 64.4072 54.0454 63.3593C54.7374 62.8056 55.6388 62.5863 56.5079 62.7601L63.263 64.1111L65.6387 60.5476C66.1951 59.713 67.1318 59.2117 68.1348 59.2117C69.2645 59.2117 70.4179 58.7827 71.5127 58.0659C63.4335 53.8807 59.4015 46.0558 58.2701 42.0953C57.9215 40.8752 58.3783 39.5676 59.411 38.8301L64.0086 35.5461H61.1547C59.4978 35.5461 58.1547 34.2029 58.1547 32.5461V27.3111C58.1547 20.1571 55.7882 15.0625 52.4894 11.7638C49.1625 8.4368 44.7072 6.75292 40.2142 6.75293C35.7212 6.75294 31.2659 8.43683 27.9389 11.7638Z" fill="black"/>
</svg>
