<svg width="84" height="84" viewBox="0 0 84 84" fill="none" xmlns="http://www.w3.org/2000/svg">
<path d="M61.3007 50.3034C60.251 49.772 55.139 47.2775 54.1835 46.9215C53.2281 46.5812 52.5345 46.4032 51.8382 47.4528C51.1576 48.4763 49.1526 50.819 48.5401 51.5022C47.9276 52.1854 47.3255 52.2377 46.2916 51.7744C45.242 51.2431 41.8889 50.1515 37.9076 46.5812C34.7979 43.8144 32.7274 40.4064 32.1123 39.3567C31.4998 38.3202 32.0442 37.7338 32.5625 37.2156C33.0389 36.7392 33.6122 36.0167 34.1435 35.3885C34.6487 34.7603 34.811 34.3389 35.1801 33.6583C35.5204 32.9228 35.345 32.3495 35.0858 31.8313C34.8267 31.313 32.7405 26.1747 31.8689 24.1278C31.0365 22.0966 30.1648 22.3557 29.5235 22.3557C28.9241 22.3007 28.2278 22.3007 27.5342 22.3007C26.8405 22.3007 25.7071 22.5599 24.7517 23.5545C23.7963 24.6042 21.0976 27.1118 21.0976 32.1846C21.0976 37.2705 24.8329 42.1915 25.3511 42.9271C25.8825 43.6076 32.6986 54.0779 43.1558 58.5775C45.6503 59.6271 47.5873 60.2553 49.1002 60.7736C51.5948 61.5641 53.8721 61.4542 55.6703 61.195C57.6597 60.8678 61.8321 58.6717 62.7063 56.219C63.5937 53.7507 63.5937 51.7064 63.3345 51.2431C63.0754 50.7667 62.3948 50.5075 61.3452 50.0442L61.3007 50.3034ZM42.3365 76.0156H42.2815C36.091 76.0156 29.9711 74.3378 24.6261 71.202L23.3723 70.4533L10.2845 73.8614L13.8025 61.127L12.957 59.8182C9.50706 54.3239 7.66691 47.9842 7.66691 41.4691C7.66691 22.4656 23.2231 6.96445 42.3627 6.96445C51.634 6.96445 60.3322 10.5767 66.8761 17.1206C73.42 23.6095 77.0322 32.3077 77.0322 41.5241C77.006 60.5145 61.463 76.0156 42.3496 76.0156H42.3365ZM71.8521 12.1446C63.8895 4.45421 53.4192 0.106445 42.2815 0.106445C19.3098 0.106445 0.604739 18.7304 0.591652 41.6183C0.591652 48.9265 2.49985 56.0568 6.15396 62.3677L0.238281 83.8683L22.3514 78.1018C28.4451 81.3869 35.3031 83.1459 42.2841 83.159H42.2972C65.282 83.159 83.9871 64.535 84.0002 41.6314C84.0002 30.5487 79.6786 20.1177 71.7997 12.2781L71.8521 12.1446Z" fill="black"/>
</svg>
