<svg width="11" height="17" viewBox="0 0 11 17" fill="none" xmlns="http://www.w3.org/2000/svg">
<mask id="path-1-inside-1_718_4180" fill="white">
<path d="M5.24117 0.354776C5.19216 0.361776 5.03465 0.386279 4.89464 0.40728C3.83406 0.564792 2.62297 1.11783 1.78991 1.82839C1.01635 2.48994 0.466806 3.57502 0.232288 4.90512C0.12728 5.49667 0.12028 6.60975 0.214787 7.2293C0.463306 8.85692 1.08985 10.4215 2.31145 12.4622C2.94849 13.5228 3.81306 14.7794 4.19809 15.1959C4.3906 15.4059 4.86664 15.7629 5.08366 15.8609C5.39868 16.0045 5.95872 16.064 7.0088 16.064C7.95737 16.064 8.39491 16.0325 8.76944 15.924C8.93045 15.8785 8.95495 15.8609 8.94445 15.7944C8.91995 15.6264 8.2829 15.5214 7.22932 15.5109L6.57827 15.5074L6.79529 15.2799C7.42533 14.6219 8.02388 13.7048 8.87794 12.1017C9.78101 10.404 10.3061 9.10544 10.6456 7.70883C11.3001 5.04513 10.9746 3.15499 9.6375 1.82489C8.83594 1.02683 7.81386 0.53679 6.65878 0.40378C6.30175 0.365277 5.37418 0.330275 5.24117 0.354776ZM6.89679 0.841313C7.82086 1.00233 8.66443 1.44336 9.33648 2.11891C10.2395 3.02548 10.6001 4.05106 10.5511 5.58067C10.4951 7.3308 9.84052 9.40646 8.61192 11.7271C7.71586 13.4143 7.20482 14.2123 6.55377 14.9439C6.03923 15.5214 5.82921 15.6089 5.51419 15.3709C5.23417 15.1574 4.53761 14.2893 4.00907 13.4913C2.61247 11.3946 1.40138 8.48589 1.12486 6.56425C1.04435 5.9972 1.07235 5.15364 1.19136 4.6181C1.36987 3.82004 1.6639 3.10948 2.00692 2.64395C2.68247 1.72338 3.94957 1.02333 5.29717 0.827312C5.6507 0.774808 6.56777 0.785309 6.89679 0.841313Z"/>
</mask>
<path d="M5.24117 0.354776C5.19216 0.361776 5.03465 0.386279 4.89464 0.40728C3.83406 0.564792 2.62297 1.11783 1.78991 1.82839C1.01635 2.48994 0.466806 3.57502 0.232288 4.90512C0.12728 5.49667 0.12028 6.60975 0.214787 7.2293C0.463306 8.85692 1.08985 10.4215 2.31145 12.4622C2.94849 13.5228 3.81306 14.7794 4.19809 15.1959C4.3906 15.4059 4.86664 15.7629 5.08366 15.8609C5.39868 16.0045 5.95872 16.064 7.0088 16.064C7.95737 16.064 8.39491 16.0325 8.76944 15.924C8.93045 15.8785 8.95495 15.8609 8.94445 15.7944C8.91995 15.6264 8.2829 15.5214 7.22932 15.5109L6.57827 15.5074L6.79529 15.2799C7.42533 14.6219 8.02388 13.7048 8.87794 12.1017C9.78101 10.404 10.3061 9.10544 10.6456 7.70883C11.3001 5.04513 10.9746 3.15499 9.6375 1.82489C8.83594 1.02683 7.81386 0.53679 6.65878 0.40378C6.30175 0.365277 5.37418 0.330275 5.24117 0.354776ZM6.89679 0.841313C7.82086 1.00233 8.66443 1.44336 9.33648 2.11891C10.2395 3.02548 10.6001 4.05106 10.5511 5.58067C10.4951 7.3308 9.84052 9.40646 8.61192 11.7271C7.71586 13.4143 7.20482 14.2123 6.55377 14.9439C6.03923 15.5214 5.82921 15.6089 5.51419 15.3709C5.23417 15.1574 4.53761 14.2893 4.00907 13.4913C2.61247 11.3946 1.40138 8.48589 1.12486 6.56425C1.04435 5.9972 1.07235 5.15364 1.19136 4.6181C1.36987 3.82004 1.6639 3.10948 2.00692 2.64395C2.68247 1.72338 3.94957 1.02333 5.29717 0.827312C5.6507 0.774808 6.56777 0.785309 6.89679 0.841313Z" fill="#151515"/>
<path d="M5.24117 0.354776L6.32814 6.2555L6.20931 6.27739L6.0897 6.29447L5.24117 0.354776ZM4.89464 0.40728L5.78469 6.3409L5.77606 6.34219L4.89464 0.40728ZM1.78991 1.82839L-2.10974 -2.73152L-2.10377 -2.73662L1.78991 1.82839ZM0.232288 4.90512L6.14115 5.94695L6.13993 5.95381L0.232288 4.90512ZM0.214787 7.2293L-5.71647 8.13493L-5.7166 8.13408L0.214787 7.2293ZM2.31145 12.4622L-2.83202 15.5517L-2.83663 15.544L2.31145 12.4622ZM4.19809 15.1959L8.60407 11.1231L8.61256 11.1323L8.62101 11.1416L4.19809 15.1959ZM5.08366 15.8609L7.55318 10.3927L7.56212 10.3968L7.57104 10.4008L5.08366 15.8609ZM8.76944 15.924L7.09978 10.1609L7.11872 10.1555L7.13769 10.1501L8.76944 15.924ZM8.94445 15.7944L3.01787 16.7302L3.01235 16.6953L3.00725 16.6603L8.94445 15.7944ZM7.22932 15.5109L7.26158 9.51101L7.27535 9.51108L7.28912 9.51122L7.22932 15.5109ZM6.57827 15.5074L6.54601 21.5073L-7.36517 21.4325L2.23662 11.3662L6.57827 15.5074ZM6.79529 15.2799L2.45363 11.1386L2.46144 11.1305L6.79529 15.2799ZM8.87794 12.1017L14.1751 14.9195L14.1733 14.9228L8.87794 12.1017ZM10.6456 7.70883L4.81539 6.29147L4.81714 6.28426L4.81891 6.27705L10.6456 7.70883ZM9.6375 1.82489L5.40601 6.07865L5.40415 6.0768L9.6375 1.82489ZM6.65878 0.40378L7.3021 -5.56163L7.32364 -5.55931L7.34515 -5.55683L6.65878 0.40378ZM6.89679 0.841313L7.90359 -5.07361L7.91516 -5.07164L7.92673 -5.06963L6.89679 0.841313ZM9.33648 2.11891L5.08564 6.35334L5.08283 6.35052L9.33648 2.11891ZM10.5511 5.58067L4.55414 5.38877L4.55415 5.38855L10.5511 5.58067ZM8.61192 11.7271L13.9147 14.5345L13.9109 14.5415L8.61192 11.7271ZM6.55377 14.9439L11.0359 18.9327L11.0337 18.9351L6.55377 14.9439ZM5.51419 15.3709L1.89719 20.1581L1.88664 20.1501L1.87613 20.1421L5.51419 15.3709ZM4.00907 13.4913L9.00266 10.165L9.00708 10.1716L9.01148 10.1783L4.00907 13.4913ZM1.12486 6.56425L-4.81398 7.41883L-4.81557 7.40764L1.12486 6.56425ZM1.19136 4.6181L-4.66577 3.31651L-4.66394 3.30836L1.19136 4.6181ZM2.00692 2.64395L6.84419 6.19373L6.83726 6.20314L2.00692 2.64395ZM5.29717 0.827312L6.17859 6.76222L6.1697 6.76354L6.16081 6.76483L5.29717 0.827312ZM6.0897 6.29447C6.10519 6.29226 6.10889 6.29164 6.08406 6.29539C6.06496 6.29829 6.04036 6.30204 6.00818 6.30696C5.9476 6.31621 5.86442 6.32894 5.78468 6.3409L4.0046 -5.52634C4.06488 -5.53538 4.13046 -5.54541 4.19588 -5.5554C4.22671 -5.56011 4.25943 -5.56511 4.28801 -5.56944C4.31088 -5.5729 4.35264 -5.57921 4.39264 -5.58492L6.0897 6.29447ZM5.77606 6.34219C5.8129 6.33671 5.83615 6.33168 5.8459 6.32942C5.85587 6.32711 5.85664 6.32656 5.84887 6.32895C5.83114 6.33443 5.79657 6.34668 5.75277 6.36672C5.70907 6.38671 5.67412 6.40624 5.65276 6.41956C5.64303 6.42563 5.64024 6.42785 5.64411 6.42504C5.64783 6.42234 5.66144 6.41228 5.68359 6.39339L-2.10377 -2.73662C-0.428805 -4.16526 1.82203 -5.2022 4.01322 -5.52762L5.77606 6.34219ZM5.68955 6.38829C5.9978 6.12468 6.12764 5.89406 6.16195 5.82631C6.19755 5.75598 6.16948 5.78627 6.14115 5.94695L-5.67657 3.8633C-5.27974 1.61264 -4.24224 -0.907801 -2.10974 -2.73152L5.68955 6.38829ZM6.13993 5.95381C6.1531 5.87961 6.15819 5.83524 6.15894 5.82868C6.15998 5.8195 6.15888 5.82756 6.15702 5.85394C6.1531 5.90935 6.14931 5.99541 6.14857 6.09948C6.14783 6.20306 6.15033 6.29447 6.15391 6.35984C6.15473 6.37492 6.15551 6.38674 6.15614 6.39526C6.15677 6.40384 6.15716 6.40786 6.15712 6.40745C6.15709 6.40716 6.15646 6.40048 6.15493 6.38787C6.15344 6.37548 6.15068 6.35402 6.14617 6.32451L-5.7166 8.13408C-5.90373 6.90736 -5.90196 5.13298 -5.67535 3.85643L6.13993 5.95381ZM6.14605 6.32366C6.2373 6.92128 6.47521 7.73615 7.45952 9.38041L-2.83663 15.544C-4.29551 13.1069 -5.31068 10.7926 -5.71647 8.13493L6.14605 6.32366ZM7.45491 9.37272C7.70361 9.78678 8.01029 10.2606 8.28897 10.6648C8.42729 10.8654 8.54208 11.0247 8.62523 11.1352C8.73318 11.2787 8.71559 11.2438 8.60407 11.1231L-0.207891 19.2687C-1.04727 18.3606 -2.18055 16.6362 -2.83201 15.5517L7.45491 9.37272ZM8.62101 11.1416C8.44464 10.9491 8.31373 10.8378 8.29791 10.8242C8.26092 10.7925 8.24082 10.7773 8.23366 10.7719C8.22794 10.7676 8.1982 10.7452 8.1387 10.7068C8.10792 10.6869 8.05098 10.6509 7.97162 10.6054C7.90155 10.5653 7.75509 10.4839 7.55318 10.3927L2.61414 21.3292C1.86492 20.9908 1.24822 20.533 1.02971 20.3689C0.75755 20.1647 0.244582 19.7623 -0.224836 19.2502L8.62101 11.1416ZM7.57104 10.4008C7.19026 10.2274 6.87786 10.143 6.70089 10.1028C6.52244 10.0621 6.41022 10.0505 6.40088 10.0495C6.38767 10.0481 6.4265 10.0525 6.53793 10.0568C6.64695 10.0609 6.7996 10.064 7.0088 10.064V22.064C6.40544 22.064 5.75996 22.0485 5.14029 21.9831C4.5759 21.9235 3.61459 21.785 2.59627 21.3211L7.57104 10.4008ZM7.0088 10.064C7.2165 10.064 7.3662 10.0622 7.47673 10.0593C7.53061 10.058 7.56997 10.0564 7.59757 10.0551C7.61115 10.0545 7.62114 10.0539 7.62791 10.0535C7.63467 10.0531 7.63779 10.0528 7.63765 10.0528C7.6376 10.0528 7.62257 10.054 7.59539 10.0572C7.56786 10.0605 7.52746 10.0658 7.47656 10.0744C7.42519 10.083 7.36579 10.0944 7.29996 10.1093C7.23381 10.1243 7.16675 10.1415 7.09978 10.1609L10.4391 21.687C9.14123 22.063 7.89913 22.064 7.0088 22.064V10.064ZM7.13769 10.1501C7.13221 10.1516 7.09946 10.1609 7.0519 10.1756C7.00642 10.1897 6.91656 10.2181 6.80175 10.2602C6.65689 10.3133 6.03968 10.5374 5.36207 11.0367C4.52041 11.6569 3.60181 12.6908 3.17402 14.1916C2.81632 15.4464 2.97725 16.4729 3.01787 16.7302L14.871 14.8587C14.9169 15.1492 15.0787 16.2028 14.7143 17.4811C14.2799 19.0053 13.347 20.0589 12.4805 20.6974C11.7779 21.2151 11.125 21.4563 10.9306 21.5275C10.6796 21.6195 10.464 21.6801 10.4012 21.6978L7.13769 10.1501ZM3.00725 16.6603C3.27918 18.525 4.3255 19.7019 4.97039 20.2625C5.60514 20.8144 6.20386 21.0914 6.47966 21.2079C7.04108 21.445 7.46528 21.5085 7.49497 21.5134C7.64203 21.5377 7.56968 21.5146 7.16952 21.5106L7.28912 9.51122C7.94253 9.51773 8.7155 9.55241 9.45061 9.67383C9.77431 9.7273 10.4282 9.84917 11.1489 10.1536C11.5043 10.3037 12.1651 10.6166 12.8435 11.2064C13.532 11.8049 14.6036 13.0219 14.8816 14.9286L3.00725 16.6603ZM7.19706 21.5108L6.54601 21.5073L6.61053 9.50751L7.26158 9.51101L7.19706 21.5108ZM2.23662 11.3662L2.45364 11.1386L11.1369 19.4212L10.9199 19.6487L2.23662 11.3662ZM2.46144 11.1305C2.49433 11.0961 2.77836 10.79 3.58255 9.28054L14.1733 14.9228C13.2694 16.6195 12.3563 18.1476 11.1291 19.4293L2.46144 11.1305ZM3.58081 9.28381C4.32687 7.88132 4.6282 7.06146 4.81539 6.29147L16.4758 9.1262C15.9839 11.1494 15.2352 12.9267 14.1751 14.9195L3.58081 9.28381ZM4.81891 6.27705C4.91731 5.87664 4.95507 5.60015 4.96729 5.428C4.97934 5.2582 4.96438 5.22054 4.97479 5.28121C4.98669 5.35058 5.02263 5.49412 5.11323 5.67062C5.20479 5.84901 5.31456 5.98768 5.40601 6.07865L13.869 -2.42887C17.3103 0.994465 17.3813 5.44112 16.4722 9.14061L4.81891 6.27705ZM5.40415 6.0768C5.47644 6.14878 5.57571 6.22221 5.69449 6.27895C5.81268 6.3354 5.91271 6.35752 5.9724 6.36439L7.34515 -5.55683C9.81331 -5.27262 12.0932 -4.19694 13.8708 -2.42703L5.40415 6.0768ZM6.01545 6.36919C6.05236 6.37317 6.06424 6.37376 6.04116 6.37198C6.02226 6.37053 5.99104 6.36835 5.94779 6.36577C5.86024 6.36054 5.75446 6.3555 5.65118 6.35181C5.54262 6.34792 5.47111 6.34674 5.44498 6.34664C5.42857 6.34657 5.46267 6.34706 5.52854 6.34484C5.56122 6.34373 5.63373 6.34092 5.73058 6.33355C5.78038 6.32976 5.8528 6.32355 5.94088 6.31343C6.02325 6.30396 6.15971 6.28652 6.32814 6.2555L4.15419 -5.54594C4.66083 -5.63927 5.09912 -5.6475 5.12271 -5.6483C5.26616 -5.65315 5.39734 -5.65364 5.49217 -5.65327C5.68853 -5.6525 5.89617 -5.64712 6.08075 -5.6405C6.40514 -5.62888 6.90172 -5.60481 7.3021 -5.56163L6.01545 6.36919ZM7.92673 -5.06963C10.0895 -4.69278 12.0548 -3.65606 13.5901 -2.1127L5.08283 6.35052C5.2741 6.54278 5.55223 6.69743 5.86686 6.75225L7.92673 -5.06963ZM13.5873 -2.11552C15.8818 0.187865 16.6388 2.93686 16.548 5.77279L4.55415 5.38855C4.56257 5.12561 4.5224 5.26992 4.63944 5.60336C4.69817 5.77068 4.77926 5.93594 4.8754 6.08464C4.96898 6.22941 5.05096 6.31853 5.08564 6.35334L13.5873 -2.11552ZM16.548 5.77257C16.4519 8.77674 15.376 11.7742 13.9147 14.5345L3.3092 8.91981C4.30508 7.0387 4.53827 5.88486 4.55414 5.38877L16.548 5.77257ZM13.9109 14.5415C12.959 16.3338 12.1781 17.6493 11.0359 18.9327L2.07168 10.955C2.23155 10.7754 2.47271 10.4948 3.31294 8.91274L13.9109 14.5415ZM11.0337 18.9351C10.8907 19.0956 9.8621 20.3449 8.24366 21.0113C7.14191 21.465 5.81213 21.6534 4.41724 21.3388C3.18044 21.0599 2.3198 20.4774 1.89719 20.1581L9.13119 10.5837C8.86609 10.3834 8.14983 9.87923 7.05709 9.6328C5.80626 9.35073 4.62021 9.52582 3.67466 9.91516C2.87775 10.2433 2.38568 10.6677 2.24514 10.792C2.07946 10.9384 2.00599 11.0288 2.07381 10.9526L11.0337 18.9351ZM1.87613 20.1421C1.06366 19.5226 0.390327 18.6739 0.172525 18.4021C-0.210316 17.9243 -0.62418 17.3617 -0.99333 16.8043L9.01148 10.1783C9.08693 10.2922 9.17584 10.4197 9.27123 10.5502C9.36659 10.6806 9.45835 10.8002 9.53713 10.8985C9.57603 10.947 9.60832 10.9861 9.63316 11.0154C9.65878 11.0457 9.67067 11.0587 9.66908 11.057C9.66784 11.0556 9.66048 11.0476 9.64736 11.0339C9.63461 11.0206 9.61203 10.9974 9.5805 10.9666C9.54984 10.9367 9.5017 10.8909 9.43815 10.8345C9.37715 10.7804 9.28003 10.6971 9.15224 10.5997L1.87613 20.1421ZM-0.984509 16.8175C-2.73453 14.1903 -4.37827 10.4467 -4.81397 7.41883L7.06368 5.70966C7.18103 6.52511 7.95947 8.5989 9.00266 10.165L-0.984509 16.8175ZM-4.81557 7.40764C-4.99174 6.16684 -4.94987 4.59501 -4.66576 3.31652L7.04848 5.91968C7.06381 5.85073 7.07233 5.80124 7.07654 5.77478C7.08091 5.7473 7.08262 5.73204 7.08289 5.72965C7.08313 5.72744 7.08104 5.74732 7.07985 5.78251C7.07867 5.81731 7.0792 5.8428 7.07954 5.85112C7.07966 5.85405 7.07943 5.8464 7.07787 5.82827C7.07639 5.8109 7.07288 5.77437 7.06528 5.72085L-4.81557 7.40764ZM-4.66394 3.30836C-4.37256 2.00569 -3.81864 0.435428 -2.82341 -0.915245L6.83726 6.20314C6.93764 6.06692 6.99915 5.96139 7.03114 5.90257C7.06425 5.84166 7.07953 5.80532 7.08252 5.7981C7.08646 5.78856 7.06758 5.83435 7.04666 5.92784L-4.66394 3.30836ZM-2.83034 -0.905827C-1.02441 -3.36676 1.82211 -4.73036 4.43353 -5.11021L6.16081 6.76483C6.20891 6.75783 6.24445 6.74724 6.30052 6.71627C6.33464 6.69743 6.39919 6.65807 6.4857 6.58508C6.57085 6.51324 6.70136 6.38835 6.84418 6.19373L-2.83034 -0.905827ZM4.41575 -5.10759C5.09461 -5.20841 5.81815 -5.20947 6.16458 -5.20609C6.50126 -5.20282 7.22883 -5.18847 7.90359 -5.07361L5.89 6.75624C5.97192 6.77018 6.03637 6.77897 6.07701 6.7841C6.11919 6.78943 6.15091 6.79272 6.16978 6.79454C6.20565 6.79802 6.21993 6.79861 6.20822 6.79792C6.18342 6.79648 6.12544 6.79409 6.04776 6.79334C5.97012 6.79258 5.91152 6.79383 5.88515 6.79486C5.87281 6.79535 5.88535 6.7951 5.91882 6.7925C5.93647 6.79113 5.96605 6.78863 6.00551 6.78443C6.04375 6.78035 6.10317 6.77342 6.17859 6.76222L4.41575 -5.10759Z" fill="black" mask="url(#path-1-inside-1_718_4180)"/>
<mask id="path-3-inside-2_718_4180" fill="white">
<path d="M4.99623 3.08492C4.87022 3.10942 4.6182 3.20743 4.43619 3.29493C3.3511 3.83047 2.87157 5.13257 3.2986 6.36466C3.57512 7.16622 4.24017 7.72977 5.10824 7.90828C6.05331 8.1008 7.02988 7.75777 7.57242 7.04372C7.78594 6.76019 7.98546 6.33316 8.05896 5.99364C8.14997 5.58411 8.11846 4.98906 7.99246 4.64603C7.74744 3.98798 7.34141 3.55045 6.70086 3.25643C6.56085 3.19342 6.33683 3.11642 6.19682 3.08492C5.8888 3.01491 5.31125 3.01491 4.99623 3.08492ZM6.20732 3.77097C6.76736 4.34501 6.95288 4.70904 6.98088 5.26908C7.01238 5.89213 6.83037 6.37166 6.39633 6.8092C6.01481 7.19423 5.53527 7.40424 5.03473 7.40424C4.46069 7.40424 3.80614 6.75669 3.60662 5.99364C3.54012 5.72762 3.53312 5.24808 3.59262 4.98906C3.81664 4.04399 4.6672 3.39644 5.64028 3.42794L5.8783 3.43494L6.20732 3.77097Z"/>
</mask>
<path d="M4.99623 3.08492C4.87022 3.10942 4.6182 3.20743 4.43619 3.29493C3.3511 3.83047 2.87157 5.13257 3.2986 6.36466C3.57512 7.16622 4.24017 7.72977 5.10824 7.90828C6.05331 8.1008 7.02988 7.75777 7.57242 7.04372C7.78594 6.76019 7.98546 6.33316 8.05896 5.99364C8.14997 5.58411 8.11846 4.98906 7.99246 4.64603C7.74744 3.98798 7.34141 3.55045 6.70086 3.25643C6.56085 3.19342 6.33683 3.11642 6.19682 3.08492C5.8888 3.01491 5.31125 3.01491 4.99623 3.08492ZM6.20732 3.77097C6.76736 4.34501 6.95288 4.70904 6.98088 5.26908C7.01238 5.89213 6.83037 6.37166 6.39633 6.8092C6.01481 7.19423 5.53527 7.40424 5.03473 7.40424C4.46069 7.40424 3.80614 6.75669 3.60662 5.99364C3.54012 5.72762 3.53312 5.24808 3.59262 4.98906C3.81664 4.04399 4.6672 3.39644 5.64028 3.42794L5.8783 3.43494L6.20732 3.77097Z" fill="#151515"/>
<path d="M4.99623 3.08492L6.29781 8.94204L6.21985 8.95936L6.14145 8.97461L4.99623 3.08492ZM4.43619 3.29493L1.78071 -2.08544L1.8085 -2.09916L1.83642 -2.11258L4.43619 3.29493ZM3.2986 6.36466L8.96776 4.39979L8.97058 4.40796L3.2986 6.36466ZM5.10824 7.90828L3.91061 13.7876L3.89966 13.7853L5.10824 7.90828ZM7.57242 7.04372L12.3653 10.6532L12.3576 10.6634L12.3498 10.6736L7.57242 7.04372ZM8.05896 5.99364L2.19481 4.72408L2.19828 4.70806L2.20184 4.69205L8.05896 5.99364ZM7.99246 4.64603L13.6153 2.55241L13.6199 2.56476L13.6245 2.57713L7.99246 4.64603ZM6.70086 3.25643L9.16305 -2.2151L9.18349 -2.2059L9.20386 -2.19655L6.70086 3.25643ZM6.19682 3.08492L4.87974 8.93859L4.86709 8.93571L6.19682 3.08492ZM6.20732 3.77097L10.4944 -0.426787L10.502 -0.418975L6.20732 3.77097ZM6.98088 5.26908L0.988533 5.57207L0.988365 5.56871L6.98088 5.26908ZM6.39633 6.8092L2.13437 2.58597L2.13669 2.58363L6.39633 6.8092ZM3.60662 5.99364L-2.19823 7.51142L-2.2064 7.48018L-2.21423 7.44885L3.60662 5.99364ZM3.59262 4.98906L-2.25505 3.64568L-2.2504 3.62541L-2.2456 3.60518L3.59262 4.98906ZM5.64028 3.42794L5.46388 9.42535L5.45501 9.42509L5.44613 9.4248L5.64028 3.42794ZM5.8783 3.43494L6.05469 -2.56246L8.47283 -2.49134L10.1654 -0.762806L5.8783 3.43494ZM6.14145 8.97461C6.30046 8.94369 6.42544 8.91203 6.5027 8.89124C6.58431 8.86928 6.64922 8.84953 6.69337 8.83554C6.77911 8.80838 6.83786 8.78663 6.86513 8.77628C6.91241 8.75835 6.96211 8.73795 7.03595 8.70245L1.83642 -2.11258C2.12134 -2.24956 2.94094 -2.62782 3.85101 -2.80478L6.14145 8.97461ZM7.09166 8.67531C9.04769 7.70991 9.4064 5.6654 8.96775 4.39979L-2.37055 8.32954C-3.66326 4.59974 -2.34549 -0.0489664 1.78071 -2.08544L7.09166 8.67531ZM8.97058 4.40796C8.51052 3.07439 7.38413 2.25075 6.31682 2.03126L3.89966 13.7853C1.09622 13.2088 -1.36028 11.2581 -2.37337 8.32137L8.97058 4.40796ZM6.30586 2.02902C5.20468 1.80471 3.77318 2.1264 2.795 3.41381L12.3498 10.6736C10.2866 13.3891 6.90194 14.3969 3.91061 13.7875L6.30586 2.02902ZM2.77953 3.43426C2.58408 3.69379 2.48084 3.89524 2.42649 4.01225C2.37457 4.12406 2.27379 4.35928 2.19481 4.72408L13.9231 7.26319C13.6566 8.49423 13.0737 9.71259 12.3653 10.6532L2.77953 3.43426ZM2.20184 4.69205C2.10115 5.14514 2.10757 5.45561 2.11471 5.59721C2.1196 5.69423 2.13102 5.81969 2.15796 5.97424C2.18227 6.11367 2.23639 6.37726 2.36044 6.71494L13.6245 2.57713C13.9682 3.51286 14.0695 4.39911 14.0995 4.99258C14.1311 5.61984 14.1078 6.4326 13.9161 7.29522L2.20184 4.69205ZM2.36958 6.73966C2.48026 7.03691 2.70066 7.46954 3.09942 7.89872C3.49798 8.32769 3.91221 8.57829 4.19785 8.70941L9.20386 -2.19655C11.2863 -1.24066 12.8154 0.403969 13.6153 2.55241L2.36958 6.73966ZM4.23867 8.72796C4.32483 8.76673 4.38786 8.79172 4.41976 8.80405C4.45539 8.81782 4.48498 8.82843 4.51057 8.83716C4.53565 8.84572 4.57142 8.85745 4.61917 8.87152C4.66028 8.88363 4.75156 8.90973 4.87975 8.93858L7.51389 -2.76874C8.09948 -2.63699 8.70716 -2.42025 9.16305 -2.2151L4.23867 8.72796ZM4.86709 8.93571C5.14742 8.99942 5.34653 9.01809 5.41262 9.02374C5.49917 9.03114 5.55993 9.03241 5.59915 9.03241C5.63861 9.03241 5.69732 9.03112 5.78006 9.02411C5.84428 9.01867 6.03218 9.00107 6.29781 8.94204L3.69465 -2.77221C4.45226 -2.94057 5.16113 -2.96759 5.59915 -2.96759C6.03058 -2.96759 6.75295 -2.9417 7.52655 -2.76588L4.86709 8.93571ZM10.502 -0.418975C10.9495 0.0396729 11.6094 0.771622 12.1277 1.77802C12.7129 2.91427 12.9256 4.01384 12.9734 4.96946L0.988365 5.56871C0.996319 5.72779 1.02143 5.99178 1.10182 6.31744C1.18502 6.6545 1.30761 6.97758 1.45952 7.27253C1.73808 7.81339 2.02521 8.07631 1.91263 7.96091L10.502 -0.418975ZM12.9732 4.9661C13.0888 7.25174 12.2954 9.38212 10.656 11.0348L2.13669 2.58363C1.86183 2.86071 1.50256 3.32379 1.25364 3.97961C1.00585 4.63247 0.970028 5.20606 0.988534 5.57207L12.9732 4.9661ZM10.6583 11.0324C9.2573 12.4463 7.2823 13.4042 5.03473 13.4042V1.40424C3.78824 1.40424 2.77232 1.94217 2.13437 2.58597L10.6583 11.0324ZM5.03473 13.4042C2.58652 13.4042 0.850005 12.1296 -0.0372322 11.2528C-1.02677 10.2749 -1.81293 8.98504 -2.19823 7.51142L9.41148 4.47585C9.22569 3.76529 8.86657 3.18077 8.39769 2.71742C8.03112 2.35515 6.90891 1.40424 5.03473 1.40424V13.4042ZM-2.21423 7.44885C-2.40296 6.69393 -2.441 5.99938 -2.44703 5.57362C-2.45289 5.15926 -2.43701 4.43772 -2.25505 3.64568L9.4403 6.33245C9.51282 6.01675 9.53456 5.78224 9.54218 5.6845C9.55143 5.56596 9.55275 5.47318 9.55177 5.40383C9.55078 5.33404 9.54685 5.24515 9.53517 5.13394C9.52534 5.04037 9.49947 4.82638 9.42748 4.53842L-2.21423 7.44885ZM-2.2456 3.60518C-1.35952 -0.132986 2.02664 -2.69219 5.83442 -2.56892L5.44613 9.4248C7.30777 9.48507 8.9928 8.22096 9.43085 6.37294L-2.2456 3.60518ZM5.81667 -2.56946L6.05469 -2.56246L5.7019 9.43235L5.46388 9.42535L5.81667 -2.56946ZM10.1654 -0.762806L10.4944 -0.426781L1.92026 7.96872L1.59123 7.63269L10.1654 -0.762806Z" fill="black" mask="url(#path-3-inside-2_718_4180)"/>
</svg>
