<svg width="45" height="43" viewBox="0 0 45 43" fill="none" xmlns="http://www.w3.org/2000/svg">
<g clip-path="url(#clip0_718_7559)">
<path d="M9.09675 19.4448C9.74387 18.8837 10.6225 19.4492 10.3601 20.268C10.3526 20.2904 10.3596 20.3083 10.3797 20.3213L11.1719 20.8303C11.1909 20.8423 11.2162 20.8412 11.2338 20.8267C11.6731 20.4711 12.2228 20.5895 12.4407 21.1014C12.5041 21.2496 12.4872 21.4107 12.4724 21.5718C12.4697 21.5983 12.48 21.6179 12.5028 21.6308L13.4796 22.1762C13.5007 22.1882 13.5222 22.1884 13.5435 22.1768C14.2129 21.8198 14.8168 22.2257 14.822 22.9474C14.822 22.9647 14.8311 22.9805 14.8458 22.9897L16.0389 23.707C16.0588 23.7195 16.0845 23.7176 16.1033 23.7026C16.1982 23.6283 16.2933 23.5415 16.3881 23.4977C16.8194 23.2983 17.2928 23.5786 17.3934 24.0258C17.4256 24.1714 17.4119 24.3079 17.3847 24.4605C17.3799 24.4891 17.39 24.5101 17.4153 24.5243L18.3938 25.0685C18.4165 25.0814 18.4344 25.0764 18.4483 25.0547C21.8264 19.6035 26.0007 14.5755 30.8453 10.3602C30.8518 10.3547 30.8528 10.3447 30.8473 10.3381C30.8471 10.3375 30.8462 10.3371 30.8452 10.336C30.2754 9.87579 30.1741 9.34501 30.5406 8.74387C30.5539 8.72237 30.5498 8.70498 30.5276 8.6919L29.981 8.37734C29.9465 8.35781 29.9047 8.35924 29.872 8.38065C29.1647 8.83683 27.7926 8.59563 28.2147 7.45216C28.2234 7.42934 28.2174 7.41254 28.1963 7.40052L27.5137 7.01057C27.486 6.99511 27.458 6.99426 27.4294 7.00884C26.6804 7.39444 25.1363 7.31004 25.5403 6.01933C25.5478 5.9969 25.5408 5.97905 25.5207 5.966C25.3967 5.88892 24.9949 5.65804 24.8539 5.72473C24.6939 5.80094 24.5153 5.84909 24.3181 5.86919C23.6036 5.94344 23.0188 5.37235 23.3809 4.65423C23.3893 4.63704 23.384 4.61587 23.3675 4.60518L23.0332 4.39518C23.0161 4.38468 22.9985 4.38399 22.9802 4.39393C22.5346 4.64209 21.9914 4.76326 21.488 4.66419C21.4297 4.65285 21.3803 4.66084 21.3396 4.68756C16.0155 8.2092 11.5932 13.2304 8.45198 18.7563C8.41507 18.8213 8.3804 18.889 8.34862 18.9593C8.33951 18.9808 8.34426 18.998 8.36347 19.0106L9.03636 19.4487C9.05558 19.4613 9.08003 19.4598 9.09675 19.4448Z" stroke="#770D38" stroke-width="0.229113"/>
<path d="M6.27208 27.6084C7.11194 27.1512 8.29681 27.6759 7.87206 28.7696C7.8614 28.7972 7.86969 28.8278 7.89216 28.8463L8.61475 29.4306C8.6333 29.4455 8.65894 29.4478 8.67978 29.4371C9.44153 29.035 10.4205 29.2807 10.5118 30.2397C10.5263 30.395 10.501 30.5581 10.4739 30.7197C10.4706 30.7421 10.4792 30.765 10.4974 30.7787L11.0857 31.2296C11.1022 31.2424 11.1198 31.243 11.1375 31.2312C11.4606 31.0204 11.7809 31.0306 12.1056 31.2409C12.5571 31.535 12.7206 31.9734 12.5959 32.5576C12.5912 32.5778 12.5972 32.5946 12.6141 32.6066L13.278 33.1104C13.3015 33.1279 13.3343 33.1265 13.3564 33.1064C13.8245 32.6822 14.2616 32.832 14.7683 33.0443C14.7913 33.0536 14.8057 33.0463 14.8125 33.022C15.5028 30.3989 16.7489 27.8957 18.1487 25.5723C18.166 25.544 18.157 25.5067 18.1282 25.4902C18.1282 25.4902 18.128 25.4895 18.1272 25.4891L17.1467 24.9365C17.1273 24.9253 17.1081 24.9259 17.0895 24.9373C16.4389 25.3471 15.8033 25.0095 15.8563 24.2049C15.8577 24.183 15.849 24.1664 15.8302 24.155L14.6466 23.4417C14.6244 23.4286 14.6031 23.4291 14.5822 23.444C14.1949 23.7208 13.8375 23.7313 13.5104 23.4741C13.2553 23.2736 13.16 22.9632 13.2324 22.6537C13.2394 22.6231 13.2259 22.5914 13.1983 22.5765L12.2417 22.0468C12.2241 22.0372 12.2032 22.0389 12.1884 22.0512C11.5544 22.5639 10.7522 22.1134 10.9304 21.2908C10.9345 21.2708 10.928 21.2548 10.9107 21.2437L10.0835 20.7139C10.0634 20.7009 10.0426 20.7005 10.0221 20.7125C9.40023 21.0753 8.72705 20.656 8.83438 19.9444C8.83765 19.9219 8.83019 19.9049 8.81161 19.892L8.1194 19.4345C8.10658 19.4268 8.09025 19.4299 8.0819 19.4429C8.0819 19.4429 8.08084 19.4439 8.08104 19.4446C6.99459 21.4321 6.13321 23.5119 5.49709 25.6845C5.49157 25.7043 5.49333 25.7252 5.50264 25.7437C5.73544 26.2108 5.79799 26.6977 5.69117 27.2029C5.68776 27.2206 5.69499 27.2391 5.70963 27.2504L6.2043 27.6042C6.22597 27.6202 6.2485 27.6214 6.27208 27.6084Z" stroke="#770D38" stroke-width="0.229113"/>
<path d="M9.79844 19.7499C9.66574 19.6652 9.47693 19.7249 9.37551 19.8836C9.27451 20.0415 9.30005 20.2383 9.43212 20.3233C9.56482 20.408 9.75363 20.3483 9.85505 20.1896C9.95605 20.0317 9.93052 19.8348 9.79844 19.7499Z" stroke="#802C4E" stroke-width="0.229113"/>
<path d="M11.8955 21.1601C11.771 21.0728 11.5797 21.1312 11.4682 21.291C11.3565 21.4503 11.3678 21.6502 11.4921 21.7369C11.6167 21.8242 11.808 21.7658 11.9194 21.606C12.0309 21.4462 12.0198 21.2468 11.8955 21.1601Z" stroke="#802C4E" stroke-width="0.229113"/>
<path d="M23.893 18.3183C29.1668 18.5334 34.5035 19.6481 39.2645 21.9574C39.5017 22.0728 39.6118 22.0948 39.6191 22.3652C39.6954 25.3988 39.7709 28.432 39.8466 31.4658C39.8572 31.8957 39.5934 31.876 39.2905 31.7717C35.3699 30.424 31.3447 29.6474 27.2571 29.0282C25.8384 28.8127 24.4113 28.7308 22.9745 28.7821C22.8807 28.7854 22.7438 28.7796 22.5652 28.764C22.2375 28.7347 22.2642 28.504 22.2626 28.2207C22.2583 27.6267 22.2598 27.2504 22.2658 27.092C22.352 24.7893 22.4092 22.4847 22.4378 20.1773C22.4383 20.1329 22.4259 20.1285 22.399 20.164L21.5659 21.2844C21.5527 21.3017 21.5503 21.3246 21.5592 21.344C21.8026 21.8928 21.6531 22.2848 21.1104 22.5194C21.0927 22.527 21.0846 22.5407 21.0845 22.5601L21.1041 23.7127C21.1046 23.734 21.1136 23.7492 21.1324 23.7585C21.7541 24.0825 21.7542 24.9042 21.1221 25.2217C21.1017 25.2316 21.0889 25.2523 21.089 25.2744L21.0708 26.6931C21.0708 26.7104 21.0833 26.7258 21.1003 26.7294C21.9713 26.9117 21.8958 27.9649 21.093 28.2063C21.0722 28.2128 21.0577 28.2326 21.0578 28.2548L21.076 29.3899C21.0768 29.4166 21.0902 29.4304 21.1167 29.431C27.4978 29.6035 33.9817 30.6642 40.0284 32.7353C40.0455 32.741 40.0646 32.7315 40.0703 32.7145C40.0705 32.713 40.0714 32.7114 40.0716 32.7099C40.1951 32.0998 40.5814 31.5851 41.2809 31.6804C41.3078 31.6843 41.3331 31.6659 41.3369 31.6384C41.3369 31.6364 41.3376 31.6341 41.3376 31.632C41.3417 31.4237 41.3386 31.2233 41.3274 31.0302C41.323 30.9616 41.2975 30.9137 41.2505 30.8877C40.5215 30.4868 40.0585 29.2126 41.2425 29.001C41.2653 28.9966 41.2826 28.9766 41.2821 28.9532L41.2728 28.1573C41.2726 28.1393 41.2631 28.1223 41.2476 28.1126C40.5192 27.6478 39.8102 26.2853 41.1447 25.9652C41.168 25.9599 41.184 25.9383 41.1819 25.914L41.1299 25.3116C41.1279 25.2879 41.1143 25.2666 41.0936 25.2538C40.7931 25.074 40.5925 24.8314 40.4921 24.5246C40.3027 23.9476 40.5954 23.4785 41.2141 23.4165C41.2436 23.4134 41.2669 23.3888 41.2672 23.3589L41.2754 22.9929C41.2757 22.9699 41.2633 22.9482 41.2435 22.9358C40.7739 22.6592 40.4415 22.2645 40.2466 21.7508C40.2378 21.7273 40.2226 21.7099 40.2002 21.6983C35.3949 19.2292 29.7982 17.9905 24.4342 17.6848C24.4017 17.6826 24.3701 17.6967 24.3495 17.7213L23.8797 18.2893C23.8737 18.2967 23.8746 18.3082 23.882 18.3141C23.8849 18.3167 23.8889 18.3182 23.893 18.3183Z" stroke="#302F6E" stroke-width="0.229113"/>
<path d="M22.7591 28.29C24.085 28.2426 25.4003 28.3017 26.7041 28.4669C30.9629 29.0057 35.2442 29.8849 39.3163 31.2608C39.3287 31.2652 39.3432 31.2585 39.3474 31.2454C39.3485 31.2423 39.3492 31.24 39.3488 31.2367L39.1297 22.4803C39.1293 22.4548 39.1171 22.4359 39.0934 22.4246C34.3114 20.0728 28.8134 18.9559 23.509 18.8037C23.4791 18.8034 23.4507 18.8166 23.4324 18.8396L22.9206 19.4916C22.9044 19.5126 22.8966 19.5359 22.8974 19.5626C22.9799 22.4537 22.8116 25.3791 22.7389 28.2701C22.7388 28.2805 22.7472 28.2896 22.7576 28.2898C22.7576 28.2898 22.7583 28.2896 22.7589 28.2894" stroke="#504F7D" stroke-width="0.229113"/>
<path d="M14.314 22.7562C14.2617 22.5907 14.0852 22.499 13.9197 22.5513C13.7542 22.6036 13.6625 22.7801 13.7148 22.9456C13.7671 23.1111 13.9436 23.2028 14.1091 23.1505C14.2746 23.0981 14.3663 22.9217 14.314 22.7562Z" stroke="#802C4E" stroke-width="0.229113"/>
<path d="M16.4955 24.6157C16.6351 24.674 16.81 24.5724 16.8863 24.389C16.9627 24.2057 16.9106 24.0103 16.7712 23.9526C16.6316 23.8943 16.4568 23.9959 16.3804 24.1793C16.3041 24.3626 16.3562 24.558 16.4955 24.6157Z" stroke="#802C4E" stroke-width="0.229113"/>
<path d="M16.6185 29.5645C17.9279 29.4628 19.2396 29.4165 20.5528 29.425C20.5751 29.4256 20.5861 29.4145 20.5854 29.3926L20.5653 28.2449C20.5649 28.2194 20.5531 28.2017 20.5292 28.192C19.7889 27.8867 19.8965 27.1037 20.5482 26.7585C20.5701 26.7467 20.581 26.7287 20.5814 26.7037L20.5971 25.3343C20.5981 25.3001 20.5824 25.2767 20.55 25.264C19.7727 24.9601 19.7989 23.9917 20.5749 23.7069C20.5992 23.6985 20.6116 23.6808 20.611 23.6546L20.5974 22.7161C20.5965 22.6672 20.5828 22.6632 20.5556 22.7044L19.398 24.4514C19.36 24.5084 19.3397 24.5757 19.3393 24.6444C19.3356 25.8854 19.3458 27.131 19.3693 28.3814C19.3737 28.6119 19.2543 28.7313 19.0107 28.7405C18.334 28.7654 17.6615 28.7952 16.9942 28.8283C16.9541 28.8306 16.9187 28.8542 16.9016 28.8901L16.5991 29.5361C16.5945 29.5458 16.5983 29.5578 16.6074 29.5625C16.6108 29.5642 16.6143 29.5645 16.6178 29.5647" stroke="#302F6E" stroke-width="0.229113"/>
<path d="M21.0869 24.3943C21.0346 24.2288 20.8573 24.1367 20.6918 24.189C20.5263 24.2414 20.4342 24.4186 20.4865 24.5841C20.5388 24.7497 20.7161 24.8418 20.8816 24.7895C21.0471 24.7371 21.1392 24.5599 21.0869 24.3943Z" stroke="#504F7D" stroke-width="0.229113"/>
<path d="M17.2168 28.3197L18.8418 28.2546C18.8637 28.2539 18.8813 28.2352 18.8806 28.2133L18.8426 25.4126C18.8427 25.3801 18.8336 25.3774 18.8169 25.4056C18.2442 26.3488 17.7054 27.3117 17.1997 28.294C17.1956 28.3029 17.199 28.3136 17.2073 28.3179C17.2098 28.3192 17.2135 28.3201 17.2162 28.3199" stroke="#504F7D" stroke-width="0.229113"/>
<path d="M21.2281 27.4304C21.2091 27.2806 21.0337 27.179 20.8358 27.2034C20.6379 27.2279 20.4925 27.3701 20.5115 27.5199C20.5304 27.6696 20.7059 27.7713 20.9037 27.7468C21.1016 27.7224 21.247 27.5802 21.2281 27.4304Z" stroke="#504F7D" stroke-width="0.229113"/>
<path d="M9.78301 18.5619C10.5839 18.9712 11.4568 19.4464 12.2641 19.9416C13.9452 20.974 15.6225 22.0118 17.2967 23.0553C17.6019 23.2455 17.9137 23.4238 18.2317 23.5912C18.4665 23.7142 18.6382 23.4689 18.7303 23.2937C19.3369 22.1404 20.0683 21.0093 20.9256 19.8999C23.5916 16.4509 26.4894 13.2732 29.7206 10.4498C29.9128 10.2825 29.9271 10.0627 29.6913 9.93229C28.2274 9.12268 25.5488 7.65033 21.6567 5.51422C21.4609 5.40721 21.3717 5.44715 21.2014 5.56328C16.4116 8.82395 12.5344 13.2063 9.63164 18.0677C9.48608 18.3124 9.53117 18.4331 9.78301 18.5619Z" stroke="#770D38" stroke-width="0.229113"/>
<path d="M18.3117 23.0293C18.9574 21.8332 19.6637 20.7301 20.4862 19.6615C23.0871 16.2828 25.9856 13.0572 29.201 10.2492C29.2085 10.242 29.2091 10.2308 29.2027 10.2238C29.2015 10.2221 29.1998 10.2212 29.198 10.2197L21.5176 5.99631C21.4959 5.98449 21.4746 5.98499 21.4539 5.99845C16.8435 9.03144 12.979 13.4741 10.1415 18.1716C10.1368 18.1786 10.1398 18.1881 10.1468 18.1928C12.9313 19.6565 15.5637 21.4142 18.2322 23.0496C18.2589 23.0661 18.2929 23.0574 18.3095 23.0314C18.3102 23.0312 18.3104 23.0297 18.3108 23.0289" stroke="#802C4E" stroke-width="0.229113"/>
<path d="M16.6711 26.0332C14.3109 24.7185 12.1543 23.4847 9.71638 21.8913C9.29438 21.6162 8.87604 21.3747 8.45005 21.1286C8.25701 21.0172 8.14221 21.0701 8.04022 21.2512C7.38821 22.4078 6.84793 23.5477 6.41898 24.6698C6.32212 24.924 6.24084 25.1837 6.17575 25.4486C6.10669 25.7273 6.18749 25.9413 6.39903 26.1112C8.2573 27.6033 10.2357 29.0505 12.3342 30.4529C12.8449 30.794 13.4296 31.1284 14.0888 31.4551C14.4279 31.6235 14.5361 31.4356 14.6406 31.1422C15.1974 29.5769 15.9482 28.0782 16.7414 26.6216C16.868 26.3891 16.9393 26.1831 16.6711 26.0332Z" stroke="#770D38" stroke-width="0.229113"/>
<path d="M8.35838 21.6811C7.74941 22.7943 7.21138 23.9238 6.78686 25.1103C6.73797 25.2469 6.69134 25.4125 6.64611 25.6089C6.64098 25.6299 6.6455 25.6485 6.65985 25.6655C6.69527 25.7096 6.73537 25.7489 6.77907 25.7842C8.7674 27.3702 10.8242 28.8619 12.9493 30.2586C13.3339 30.5116 13.7334 30.7376 14.1477 30.9355C14.1696 30.9459 14.1856 30.9394 14.1943 30.9166C14.768 29.3611 15.4983 27.8807 16.2936 26.4241C16.3054 26.4024 16.3007 26.3852 16.279 26.3734C14.8417 25.5823 13.4198 24.7656 12.0134 23.9233C10.8 23.1965 9.62218 22.4051 8.41707 21.6653C8.39743 21.6535 8.37208 21.6588 8.35967 21.6786C8.35904 21.6788 8.35881 21.6803 8.35838 21.6811Z" stroke="#802C4E" stroke-width="0.229113"/>
<path d="M41.0428 29.6255C40.8389 30.358 41.7135 30.3349 41.7919 30.8653C41.8451 31.2243 41.922 32.0633 41.5485 32.1779C41.5 32.1932 41.3973 32.1904 41.2419 32.1696C40.2782 32.0443 40.8215 33.5354 40.0402 33.2646C34.6697 31.4012 29.022 30.3822 23.36 30.0163C21.0534 29.8676 18.7514 29.8844 16.4541 30.0671C16.3941 30.0722 16.3517 30.1023 16.327 30.1578C15.9083 31.1085 15.5662 32.0979 15.3005 33.1254C15.2696 33.2445 15.1884 33.327 15.0568 33.3727C15.0373 33.3789 15.0212 33.3937 15.0127 33.413C14.8484 33.791 14.2951 33.3241 14.0382 33.3195C13.7204 33.3127 13.4837 33.8208 13.1454 33.6003C12.8683 33.42 12.5992 33.2282 12.3383 33.0247C11.7815 32.5902 12.5311 31.9483 11.7381 31.5967C11.4082 31.451 11.2776 32.0102 10.8849 31.703C10.6576 31.5249 10.0445 31.138 9.98914 30.8709C9.94724 30.6661 10.0446 30.4353 10.0149 30.2342C9.97942 29.9948 9.86111 29.8439 9.6602 29.7821C9.26754 29.6612 9.03973 29.8121 8.7165 29.9503C8.60133 29.9999 8.40734 29.8964 8.29872 29.8069C7.94506 29.5137 7.69867 29.3167 7.55954 29.216C7.23896 28.9837 7.36939 28.7853 7.4437 28.4773C7.54783 28.0512 7.14879 27.8838 6.80087 27.9329C6.454 27.9809 6.30269 28.2731 5.92774 28.0068C5.76588 27.8911 5.60418 27.7781 5.44308 27.6671C5.03331 27.3847 5.25354 27.1704 5.25271 26.8086C5.25237 26.536 5.17993 26.2411 5.03603 25.9239C4.95651 25.7489 5.03943 25.5317 5.09436 25.3419C5.77055 22.9829 6.78618 20.7166 8.00443 18.5634C11.1594 12.9889 15.6745 7.75767 21.0893 4.27105C21.3843 4.08088 21.6001 4.21827 21.8737 4.21C22.1404 4.20184 22.3935 4.13982 22.6329 4.02331C22.9018 3.89264 23.0504 3.85258 23.2992 3.98922C23.5308 4.11746 23.706 4.23584 23.8243 4.34519C24.0161 4.5227 23.8176 4.85613 23.7568 5.06227C23.7504 5.08367 23.7515 5.10686 23.7601 5.12766C23.9138 5.52627 24.3924 5.37361 24.6697 5.26103C25.0464 5.10804 25.4736 5.37105 25.7863 5.55462C26.2737 5.83944 25.8801 6.13141 25.9702 6.46912C26.0767 6.86742 26.9092 6.72195 27.1441 6.60202C27.5302 6.4045 27.6732 6.5372 28.0566 6.7559C28.3314 6.91341 28.7148 7.03796 28.7259 7.4235C28.7315 7.61418 28.4652 7.93444 28.7987 8.06092C29.0753 8.16523 29.3424 8.13411 29.5999 7.96757C29.8268 7.82038 30.0068 7.85972 30.2536 7.97483C30.6523 8.16099 31.3796 8.52575 31.0123 8.98869C30.9082 9.11921 30.8508 9.20035 30.8403 9.23067C30.6073 9.88859 31.8812 10.1235 31.2686 10.6515C29.0642 12.5494 27.0171 14.6032 25.1266 16.813C25.0492 16.9033 24.8966 17.038 24.8178 17.1744C24.8097 17.188 24.8144 17.2052 24.8281 17.2134C24.8322 17.2155 24.8368 17.2168 24.8412 17.2175C30.1588 17.5559 35.6353 18.8264 40.407 21.2459C40.5489 21.318 40.64 21.4048 40.6997 21.5673C40.8818 22.067 41.1589 22.291 41.6089 22.6042C41.8185 22.7505 41.7654 23.3446 41.7318 23.5712C41.6695 23.9848 41.2348 23.8273 40.9696 24.0288C40.9536 24.0415 40.9429 24.0601 40.9402 24.0804C40.8514 24.728 41.5393 24.7535 41.6258 25.3665C41.7225 26.0469 41.7519 26.3194 41.0048 26.5271C40.9839 26.5331 40.9655 26.5472 40.9547 26.5658C40.7055 26.9907 41.2357 27.5466 41.5711 27.7382C41.8376 27.8914 41.7679 28.6105 41.7671 28.8884C41.7659 29.5063 41.5052 29.3692 41.0813 29.5787C41.0621 29.5882 41.0481 29.6051 41.0428 29.6255ZM9.09648 19.4449C9.7436 18.8838 10.6222 19.4493 10.3598 20.2681C10.3523 20.2905 10.3594 20.3084 10.3794 20.3214L11.1716 20.8304C11.1907 20.8424 11.2159 20.8413 11.2335 20.8268C11.6728 20.4712 12.2225 20.5896 12.4404 21.1015C12.5039 21.2497 12.487 21.4108 12.4721 21.5719C12.4694 21.5984 12.4798 21.618 12.5025 21.6309L13.4794 22.1763C13.5005 22.1883 13.522 22.1885 13.5432 22.1769C14.2126 21.8199 14.8165 22.2258 14.8217 22.9475C14.8217 22.9648 14.8308 22.9806 14.8455 22.9898L16.0387 23.7071C16.0585 23.7196 16.0842 23.7177 16.103 23.7027C16.1979 23.6284 16.293 23.5416 16.3878 23.4978C16.8191 23.2984 17.2926 23.5787 17.3931 24.0259C17.4253 24.1715 17.4117 24.308 17.3845 24.4606C17.3796 24.4892 17.3897 24.5102 17.415 24.5244L18.3935 25.0686C18.4163 25.0815 18.4341 25.0765 18.448 25.0548C21.8261 19.6036 26.0004 14.5756 30.845 10.3603C30.8516 10.3548 30.8525 10.3448 30.847 10.3382C30.8468 10.3376 30.846 10.3372 30.845 10.3361C30.2751 9.8759 30.1738 9.34512 30.5403 8.74397C30.5536 8.72247 30.5495 8.70508 30.5274 8.692L29.9807 8.37745C29.9462 8.35791 29.9044 8.35935 29.8717 8.38076C29.1644 8.83693 27.7923 8.59573 28.2145 7.45227C28.2232 7.42944 28.2172 7.41265 28.1961 7.40063L27.5135 7.01068C27.4857 6.99522 27.4578 6.99436 27.4291 7.00895C26.6802 7.39454 25.1361 7.31015 25.5401 6.01944C25.5475 5.99701 25.5405 5.97916 25.5204 5.96611C25.3964 5.88902 24.9946 5.65814 24.8537 5.72484C24.6936 5.80104 24.515 5.8492 24.3178 5.86929C23.6034 5.94354 23.0186 5.37246 23.3807 4.65434C23.3891 4.63714 23.3838 4.61598 23.3672 4.60528L23.033 4.39528C23.0158 4.38479 22.9983 4.3841 22.9799 4.39404C22.5344 4.6422 21.9912 4.76337 21.4877 4.6643C21.4294 4.65295 21.3801 4.66095 21.3393 4.68766C16.0152 8.2093 11.593 13.2305 8.45171 18.7564C8.41479 18.8214 8.38013 18.8891 8.34834 18.9594C8.33924 18.9809 8.34398 18.9981 8.3632 19.0108L9.03609 19.4488C9.05531 19.4614 9.07975 19.4599 9.09648 19.4449ZM6.27192 27.6086C7.11178 27.1513 8.29665 27.676 7.8719 28.7698C7.86124 28.7974 7.86953 28.828 7.892 28.8465L8.61459 29.4308C8.63314 29.4457 8.65878 29.448 8.67962 29.4372C9.44137 29.0351 10.4204 29.2809 10.5117 30.2399C10.5262 30.3952 10.5009 30.5583 10.4737 30.7198C10.4705 30.7423 10.4791 30.7652 10.4972 30.7789L11.0856 31.2298C11.1021 31.2425 11.1196 31.2432 11.1373 31.2314C11.4604 31.0206 11.7807 31.0308 12.1054 31.241C12.5569 31.5351 12.7205 31.9736 12.5957 32.5578C12.591 32.578 12.597 32.5948 12.6139 32.6067L13.2779 33.1106C13.3014 33.1281 13.3342 33.1267 13.3562 33.1066C13.8244 32.6824 14.2615 32.8322 14.7682 33.0444C14.7912 33.0538 14.8055 33.0465 14.8123 33.0222C15.5027 30.399 16.7487 27.8958 18.1485 25.5725C18.1659 25.5442 18.1568 25.5069 18.1281 25.4903C18.1281 25.4903 18.1279 25.4897 18.1271 25.4893L17.1466 24.9367C17.1271 24.9255 17.1079 24.926 17.0894 24.9374C16.4388 25.3473 15.8031 25.0097 15.8562 24.2051C15.8575 24.1832 15.8488 24.1666 15.83 24.1552L14.6464 23.4418C14.6243 23.4288 14.603 23.4293 14.5821 23.4442C14.1947 23.721 13.8374 23.7315 13.5103 23.4742C13.2552 23.2738 13.1598 22.9634 13.2323 22.6539C13.2392 22.6233 13.2257 22.5916 13.1982 22.5767L12.2416 22.047C12.224 22.0374 12.2031 22.0391 12.1883 22.0514C11.5542 22.564 10.7521 22.1136 10.9302 21.2909C10.9343 21.2709 10.9279 21.255 10.9105 21.2439L10.0833 20.7141C10.0633 20.701 10.0424 20.7007 10.022 20.7127C9.40007 21.0754 8.72689 20.6562 8.83422 19.9446C8.83749 19.9221 8.83003 19.905 8.81144 19.8922L8.11924 19.4347C8.10642 19.427 8.09008 19.4301 8.08174 19.4431C8.08174 19.4431 8.08068 19.4441 8.08088 19.4447C6.99443 21.4323 6.13305 23.5121 5.49693 25.6847C5.49141 25.7045 5.49317 25.7254 5.50248 25.7439C5.73528 26.211 5.79783 26.6979 5.69101 27.2031C5.6876 27.2208 5.69483 27.2393 5.70947 27.2506L6.20414 27.6044C6.22581 27.6204 6.24834 27.6216 6.27192 27.6086ZM9.79815 19.7506C9.66545 19.6659 9.47664 19.7256 9.37521 19.8843C9.27422 20.0422 9.29975 20.2391 9.43182 20.324C9.56452 20.4087 9.75333 20.349 9.85476 20.1903C9.95575 20.0324 9.93022 19.8355 9.79815 19.7506ZM11.8957 21.1609C11.7712 21.0736 11.5799 21.132 11.4684 21.2918C11.3567 21.451 11.368 21.651 11.4924 21.7377C11.6169 21.825 11.8082 21.7666 11.9196 21.6067C12.0311 21.4469 12.02 21.2476 11.8957 21.1609ZM23.8926 18.3183C29.1664 18.5335 34.503 19.6481 39.264 21.9575C39.5012 22.0729 39.6113 22.0948 39.6186 22.3653C39.6949 25.3989 39.7704 28.432 39.8461 31.4658C39.8567 31.8958 39.5929 31.876 39.29 31.7717C35.3694 30.4241 31.3442 29.6474 27.2566 29.0282C25.8379 28.8128 24.4108 28.7309 22.974 28.7822C22.8802 28.7855 22.7434 28.7796 22.5647 28.7641C22.237 28.7348 22.2638 28.5041 22.2621 28.2208C22.2578 27.6268 22.2593 27.2504 22.2653 27.0921C22.3515 24.7894 22.4087 22.4848 22.4374 20.1774C22.4378 20.1329 22.4254 20.1286 22.3985 20.1641L21.5655 21.2844C21.5522 21.3018 21.5498 21.3247 21.5587 21.344C21.8021 21.8929 21.6526 22.2849 21.1099 22.5194C21.0923 22.5271 21.0841 22.5407 21.084 22.5602L21.1036 23.7128C21.1041 23.7341 21.1131 23.7493 21.1319 23.7585C21.7536 24.0826 21.7537 24.9043 21.1217 25.2218C21.1013 25.2317 21.0884 25.2523 21.0885 25.2745L21.0703 26.6931C21.0703 26.7104 21.0828 26.7259 21.0998 26.7295C21.9709 26.9117 21.8954 27.965 21.0925 28.2063C21.0717 28.2129 21.0572 28.2327 21.0573 28.2548L21.0755 29.3899C21.0763 29.4166 21.0897 29.4304 21.1162 29.431C27.4973 29.6035 33.9812 30.6642 40.028 32.7354C40.045 32.7411 40.0641 32.7316 40.0698 32.7145C40.0701 32.7131 40.0709 32.7114 40.0711 32.71C40.1946 32.0998 40.5809 31.5852 41.2804 31.6804C41.3073 31.6844 41.3326 31.666 41.3364 31.6385C41.3365 31.6364 41.3371 31.6341 41.3371 31.632C41.3412 31.4238 41.3381 31.2233 41.3269 31.0303C41.3225 30.9617 41.297 30.9137 41.25 30.8877C40.521 30.4868 40.058 29.2127 41.242 29.0011C41.2649 28.9966 41.2821 28.9766 41.2816 28.9532L41.2723 28.1573C41.2722 28.1394 41.2626 28.1223 41.2471 28.1127C40.5187 27.6479 39.8097 26.2854 41.1443 25.9653C41.1675 25.96 41.1835 25.9383 41.1814 25.9141L41.1294 25.3116C41.1275 25.288 41.1138 25.2667 41.0931 25.2539C40.7926 25.074 40.592 24.8315 40.4916 24.5247C40.3023 23.9477 40.5949 23.4785 41.2136 23.4166C41.2431 23.4135 41.2664 23.3888 41.2667 23.359L41.2749 22.9929C41.2753 22.97 41.2629 22.9483 41.243 22.9359C40.7735 22.6592 40.441 22.2645 40.2461 21.7509C40.2373 21.7274 40.2221 21.71 40.1997 21.6984C35.3944 19.2293 29.7978 17.9906 24.4337 17.6849C24.4012 17.6827 24.3696 17.6968 24.349 17.7213L23.8792 18.2893C23.8733 18.2968 23.8741 18.3082 23.8816 18.3142C23.8844 18.3168 23.8884 18.3183 23.8926 18.3183ZM22.7589 28.2901C24.0849 28.2427 25.4001 28.3018 26.704 28.467C30.9628 29.0058 35.244 29.885 39.3161 31.2609C39.3286 31.2653 39.3431 31.2586 39.3472 31.2455C39.3483 31.2424 39.349 31.2401 39.3486 31.2368L39.1296 22.4804C39.1291 22.4549 39.1169 22.436 39.0933 22.4247C34.3112 20.0729 28.8132 18.956 23.5088 18.8038C23.479 18.8035 23.4506 18.8167 23.4323 18.8397L22.9205 19.4917C22.9043 19.5127 22.8964 19.536 22.8972 19.5627C22.9797 22.4538 22.8114 25.3792 22.7388 28.2702C22.7386 28.2806 22.747 28.2897 22.7575 28.2899C22.7575 28.2899 22.7581 28.2897 22.7587 28.2895L22.7589 28.2901ZM14.3141 22.7563C14.2618 22.5908 14.0854 22.4991 13.9198 22.5514C13.7543 22.6038 13.6626 22.7802 13.7149 22.9457C13.7673 23.1112 13.9437 23.2029 14.1092 23.1506C14.2748 23.0983 14.3664 22.9218 14.3141 22.7563ZM16.4961 24.6155C16.6357 24.6738 16.8105 24.5722 16.8869 24.3888C16.9632 24.2054 16.9111 24.0101 16.7717 23.9524C16.6322 23.894 16.4573 23.9957 16.381 24.179C16.3046 24.3624 16.3567 24.5578 16.4961 24.6155ZM16.6179 29.5647C17.9273 29.463 19.2391 29.4166 20.5522 29.4252C20.5745 29.4257 20.5856 29.4146 20.5849 29.3927L20.5648 28.2451C20.5643 28.2196 20.5525 28.2019 20.5286 28.1921C19.7883 27.8868 19.8959 27.1038 20.5476 26.7587C20.5695 26.7469 20.5805 26.7289 20.5808 26.7039L20.5966 25.3344C20.5975 25.3002 20.5818 25.2768 20.5494 25.2642C19.7722 24.9602 19.7983 23.9918 20.5743 23.7071C20.5987 23.6987 20.611 23.6809 20.6104 23.6548L20.5969 22.7162C20.5959 22.6674 20.5822 22.6634 20.5551 22.7045L19.3974 24.4515C19.3594 24.5085 19.3391 24.5759 19.3387 24.6445C19.335 25.8855 19.3452 27.1311 19.3688 28.3815C19.3731 28.6121 19.2537 28.7315 19.0102 28.7406C18.3334 28.7656 17.6609 28.7954 16.9937 28.8284C16.9535 28.8307 16.9181 28.8544 16.9011 28.8902L16.5985 29.5362C16.594 29.546 16.5978 29.5579 16.6069 29.5626C16.6102 29.5644 16.6137 29.5646 16.6173 29.5649L16.6179 29.5647ZM21.0865 24.3945C21.0342 24.229 20.857 24.1369 20.6914 24.1892C20.5259 24.2415 20.4338 24.4188 20.4861 24.5843C20.5384 24.7499 20.7157 24.842 20.8812 24.7896C21.0467 24.7373 21.1389 24.5601 21.0865 24.3945ZM17.2164 28.3198L18.8413 28.2547C18.8633 28.254 18.8809 28.2353 18.8802 28.2134L18.8422 25.4127C18.8423 25.3802 18.8331 25.3775 18.8164 25.4057C18.2437 26.3489 17.7049 27.3118 17.1993 28.2941C17.1952 28.303 17.1985 28.3137 17.2068 28.318C17.2093 28.3193 17.213 28.3202 17.2158 28.32L17.2164 28.3198ZM21.2279 27.4304C21.209 27.2806 21.0335 27.1789 20.8357 27.2034C20.6378 27.2279 20.4924 27.3701 20.5114 27.5198C20.5303 27.6696 20.7058 27.7713 20.9036 27.7468C21.1015 27.7224 21.2469 27.5802 21.2279 27.4304Z" fill="black"/>
<path d="M10.3601 20.268C10.6225 19.4492 9.74387 18.8837 9.09675 19.4448C9.08003 19.4598 9.05558 19.4613 9.03636 19.4487L8.36347 19.0106C8.34426 18.998 8.33951 18.9808 8.34862 18.9593C8.3804 18.889 8.41507 18.8213 8.45198 18.7563C11.5932 13.2304 16.0155 8.2092 21.3396 4.68756C21.3803 4.66084 21.4297 4.65285 21.488 4.66419C21.9914 4.76326 22.5346 4.64209 22.9802 4.39393C22.9985 4.38399 23.0161 4.38468 23.0332 4.39518L23.3675 4.60518C23.384 4.61587 23.3893 4.63704 23.3809 4.65423C23.0188 5.37235 23.6036 5.94344 24.3181 5.86919C24.5153 5.84909 24.6939 5.80094 24.8539 5.72473C24.9949 5.65804 25.3967 5.88892 25.5207 5.966C25.5408 5.97905 25.5478 5.9969 25.5403 6.01933C25.1363 7.31004 26.6804 7.39444 27.4294 7.00884C27.458 6.99426 27.486 6.99511 27.5137 7.01057L28.1963 7.40052C28.2174 7.41254 28.2234 7.42934 28.2147 7.45216C27.7926 8.59563 29.1647 8.83683 29.872 8.38065C29.9047 8.35924 29.9465 8.3578 29.981 8.37734L30.5276 8.6919C30.5498 8.70498 30.5539 8.72237 30.5406 8.74387C30.1741 9.34501 30.2754 9.87579 30.8452 10.336C30.8518 10.3415 30.8529 10.3516 30.8474 10.3582C30.8468 10.3584 30.8463 10.3592 30.8453 10.3602C26.0007 14.5755 21.8264 19.6035 18.4483 25.0547C18.4344 25.0764 18.4165 25.0814 18.3938 25.0685L17.4153 24.5243C17.39 24.5101 17.3799 24.4891 17.3847 24.4605C17.4119 24.3079 17.4256 24.1714 17.3934 24.0258C17.2928 23.5786 16.8194 23.2983 16.3881 23.4977C16.2933 23.5415 16.1982 23.6283 16.1033 23.7026C16.0845 23.7176 16.0588 23.7195 16.0389 23.707L14.8458 22.9897C14.8311 22.9805 14.822 22.9647 14.822 22.9474C14.8168 22.2257 14.2129 21.8198 13.5435 22.1768C13.5222 22.1884 13.5007 22.1882 13.4796 22.1762L12.5028 21.6308C12.48 21.6179 12.4697 21.5983 12.4724 21.5718C12.4872 21.4107 12.5041 21.2496 12.4407 21.1014C12.2228 20.5895 11.6731 20.4711 11.2338 20.8267C11.2162 20.8412 11.1909 20.8423 11.1719 20.8303L10.3797 20.3213C10.3596 20.3083 10.3526 20.2904 10.3601 20.268ZM9.78333 18.5618C10.5842 18.9711 11.4571 19.4463 12.2644 19.9415C13.9455 20.9739 15.6228 22.0117 17.297 23.0553C17.6022 23.2454 17.914 23.4237 18.2321 23.5911C18.4669 23.7142 18.6385 23.4689 18.7306 23.2937C19.3373 22.1404 20.0686 21.0092 20.926 19.8999C23.5919 16.4508 26.4897 13.2732 29.721 10.4498C29.9131 10.2824 29.9274 10.0626 29.6917 9.93224C28.2277 9.12263 25.5492 7.65028 21.657 5.51417C21.4612 5.40716 21.372 5.4471 21.2018 5.56323C16.412 8.8239 12.5347 13.2062 9.63196 18.0676C9.4864 18.3123 9.53149 18.4331 9.78333 18.5618Z" fill="#ED196F"/>
<path d="M12.2641 19.9416C11.4568 19.4464 10.5839 18.9712 9.78301 18.5619C9.53117 18.4331 9.48608 18.3124 9.63164 18.0677C12.5344 13.2063 16.4116 8.82395 21.2014 5.56328C21.3717 5.44715 21.4609 5.40721 21.6567 5.51422C25.5488 7.65033 28.2274 9.12268 29.6913 9.93229C29.9271 10.0627 29.9128 10.2825 29.7206 10.4498C26.4894 13.2732 23.5916 16.4509 20.9256 19.8999C20.0683 21.0093 19.3369 22.1404 18.7303 23.2937C18.6382 23.4689 18.4665 23.7142 18.2317 23.5912C17.9137 23.4238 17.6019 23.2455 17.2967 23.0553C15.6225 22.0118 13.9452 20.974 12.2641 19.9416ZM18.3117 23.0294C18.9574 21.8333 19.6637 20.7301 20.4862 19.6616C23.0871 16.2829 25.9856 13.0573 29.201 10.2493C29.2085 10.2421 29.2091 10.2308 29.2027 10.2238C29.2015 10.2221 29.1998 10.2213 29.198 10.2198L21.5176 5.99637C21.4959 5.98455 21.4746 5.98505 21.4539 5.99851C16.8435 9.0315 12.979 13.4742 10.1415 18.1717C10.1368 18.1787 10.1398 18.1881 10.1468 18.1928C12.9313 19.6566 15.5637 21.4142 18.2322 23.0497C18.2589 23.0661 18.2929 23.0575 18.3095 23.0314C18.3102 23.0312 18.3104 23.0298 18.3108 23.029L18.3117 23.0294Z" fill="black"/>
<path d="M18.3115 23.0294C18.2964 23.0563 18.2622 23.0665 18.2353 23.0514C18.2351 23.0508 18.2337 23.0506 18.2329 23.0501C15.5643 21.4147 12.9319 19.6571 10.1474 18.1933C10.1397 18.1888 10.1368 18.1794 10.1408 18.1725C12.9784 13.475 16.8428 9.03238 21.4533 5.99938C21.474 5.98593 21.4953 5.98542 21.517 5.99724L29.1973 10.2207C29.2058 10.2256 29.2092 10.2363 29.2044 10.2454C29.2036 10.2471 29.2021 10.2489 29.2004 10.2501C25.985 13.0581 23.0865 16.2838 20.4855 19.6625C19.6631 20.731 18.9568 21.8341 18.311 23.0303L18.3115 23.0294Z" fill="#FF579B"/>
<path d="M7.87205 28.7696C8.29679 27.6758 7.11193 27.1511 6.27207 27.6084C6.24849 27.6214 6.22596 27.6202 6.20429 27.6042L5.70962 27.2504C5.69498 27.2391 5.68775 27.2206 5.69116 27.2029C5.79798 26.6977 5.73542 26.2107 5.50263 25.7437C5.49332 25.7252 5.49156 25.7043 5.49708 25.6845C6.1332 23.5119 6.99458 21.4321 8.08103 19.4445C8.08792 19.4313 8.10448 19.4267 8.11753 19.433C8.11753 19.433 8.11836 19.4334 8.11919 19.4339L8.81139 19.8914C8.82998 19.9042 8.83744 19.9212 8.83417 19.9437C8.72684 20.6554 9.40002 21.0746 10.0219 20.7119C10.0424 20.6999 10.0632 20.7002 10.0833 20.7132L10.9105 21.243C10.9278 21.2541 10.9343 21.2701 10.9302 21.2901C10.752 22.1127 11.5542 22.5632 12.1882 22.0506C12.203 22.0383 12.2239 22.0365 12.2415 22.0462L13.1981 22.5759C13.2257 22.5907 13.2392 22.6224 13.2322 22.653C13.1597 22.9625 13.2551 23.273 13.5102 23.4734C13.8373 23.7307 14.1946 23.7202 14.582 23.4433C14.6029 23.4284 14.6242 23.4279 14.6464 23.441L15.83 24.1544C15.8488 24.1657 15.8575 24.1824 15.8561 24.2043C15.8031 25.0088 16.4387 25.3465 17.0893 24.9366C17.1079 24.9252 17.1271 24.9247 17.1465 24.9358L18.127 25.4884C18.1558 25.505 18.166 25.5419 18.1495 25.5706C18.1495 25.5706 18.1489 25.5708 18.1485 25.5716C16.7487 27.895 15.5026 30.3982 14.8123 33.0213C14.8054 33.0457 14.7911 33.0529 14.7681 33.0436C14.2614 32.8313 13.8243 32.6815 13.3562 33.1057C13.3341 33.1259 13.3013 33.1272 13.2778 33.1097L12.6139 32.6059C12.597 32.5939 12.591 32.5771 12.5956 32.557C12.7204 31.9727 12.5569 31.5343 12.1053 31.2402C11.7807 31.0299 11.4604 31.0197 11.1373 31.2306C11.1196 31.2424 11.102 31.2417 11.0855 31.2289L10.4972 30.778C10.479 30.7644 10.4704 30.7415 10.4737 30.719C10.5008 30.5574 10.5261 30.3944 10.5116 30.239C10.4203 29.28 9.44132 29.0343 8.67957 29.4364C8.65873 29.4471 8.63309 29.4449 8.61454 29.43L7.89195 28.8457C7.86948 28.8272 7.86119 28.7965 7.87185 28.7689L7.87205 28.7696ZM16.671 26.0331C14.3108 24.7184 12.1542 23.4846 9.7163 21.8912C9.2943 21.6161 8.87596 21.3746 8.44996 21.1285C8.25693 21.0171 8.14212 21.07 8.04014 21.2511C7.38813 22.4077 6.84784 23.5476 6.4189 24.6697C6.32204 24.9239 6.24076 25.1836 6.17567 25.4485C6.10661 25.7272 6.18741 25.9412 6.39895 26.1111C8.25722 27.6032 10.2356 29.0504 12.3341 30.4528C12.8448 30.7939 13.4296 31.1283 14.0887 31.455C14.4278 31.6234 14.536 31.4355 14.6405 31.1421C15.1973 29.5768 15.9481 28.0781 16.7414 26.6215C16.8679 26.389 16.9392 26.183 16.671 26.0331Z" fill="#ED196F"/>
<path d="M9.85488 20.1898C9.95591 20.0316 9.93046 19.8348 9.79803 19.7502C9.66561 19.6657 9.47635 19.7254 9.37532 19.8837C9.27429 20.0419 9.29974 20.2387 9.43216 20.3233C9.56459 20.4078 9.75385 20.3481 9.85488 20.1898Z" fill="#FF579B"/>
<path d="M9.71638 21.8913C12.1543 23.4847 14.3109 24.7185 16.6711 26.0332C16.9393 26.1831 16.868 26.3891 16.7414 26.6216C15.9482 28.0782 15.1974 29.5769 14.6406 31.1422C14.5361 31.4356 14.4279 31.6235 14.0888 31.4551C13.4296 31.1284 12.8449 30.794 12.3342 30.4529C10.2357 29.0505 8.2573 27.6033 6.39903 26.1112C6.18749 25.9413 6.10669 25.7273 6.17575 25.4486C6.24084 25.1837 6.32212 24.924 6.41898 24.6698C6.84793 23.5477 7.38821 22.4078 8.04022 21.2512C8.14221 21.0701 8.25701 21.0172 8.45005 21.1286C8.87604 21.3747 9.29438 21.6162 9.71638 21.8913ZM8.35814 21.681C7.74918 22.7942 7.21115 23.9237 6.78663 25.1102C6.73774 25.2468 6.69111 25.4124 6.64588 25.6088C6.64075 25.6298 6.64526 25.6484 6.65961 25.6654C6.69504 25.7095 6.73513 25.7488 6.77884 25.7841C8.76717 27.3701 10.824 28.8618 12.9491 30.2585C13.3336 30.5115 13.7332 30.7375 14.1474 30.9354C14.1694 30.9458 14.1854 30.9393 14.1941 30.9165C14.7678 29.361 15.4981 27.8806 16.2934 26.424C16.3052 26.4023 16.3005 26.3851 16.2787 26.3733C14.8415 25.5822 13.4196 24.7655 12.0132 23.9232C10.7997 23.1964 9.62195 22.405 8.41684 21.6652C8.39719 21.6534 8.37185 21.6586 8.35943 21.6785C8.35881 21.6787 8.35857 21.6802 8.35814 21.681Z" fill="black"/>
<path d="M6.78684 25.1102C7.21136 23.9238 7.74939 22.7942 8.35836 21.681C8.36931 21.6609 8.39449 21.653 8.41437 21.6633C8.4152 21.6637 8.41603 21.6642 8.41685 21.6646C9.62196 22.4044 10.7998 23.1958 12.0132 23.9226C13.4196 24.7649 14.8415 25.5816 16.2788 26.3727C16.3005 26.3845 16.3052 26.4017 16.2934 26.4234C15.4981 27.88 14.7678 29.3604 14.1941 30.9159C14.1854 30.9387 14.1694 30.9452 14.1474 30.9348C13.7332 30.7369 13.3336 30.5109 12.9491 30.2579C10.824 28.8612 8.76718 27.3695 6.77885 25.7835C6.73515 25.7482 6.69505 25.7089 6.65963 25.6648C6.64528 25.6478 6.64077 25.6292 6.64589 25.6082C6.69112 25.4118 6.73775 25.2462 6.78664 25.1096L6.78684 25.1102Z" fill="#FF579B"/>
<path d="M11.9194 21.6064C12.0307 21.4472 12.0199 21.2475 11.8953 21.1604C11.7708 21.0733 11.5795 21.1318 11.4682 21.291C11.3569 21.4503 11.3676 21.65 11.4922 21.7371C11.6168 21.8242 11.808 21.7657 11.9194 21.6064Z" fill="#FF579B"/>
<path d="M23.893 18.3183C23.8832 18.3179 23.8758 18.3099 23.8756 18.3003C23.8756 18.2961 23.8774 18.2928 23.8797 18.2893L24.3495 17.7213C24.3701 17.6967 24.4017 17.6826 24.4342 17.6848C29.7982 17.9905 35.3949 19.2292 40.2002 21.6983C40.2226 21.7099 40.2378 21.7273 40.2466 21.7508C40.4415 22.2645 40.7739 22.6592 41.2435 22.9358C41.2633 22.9482 41.2757 22.9699 41.2754 22.9929L41.2672 23.3589C41.2669 23.3888 41.2436 23.4134 41.2141 23.4165C40.5954 23.4785 40.3027 23.9476 40.4921 24.5246C40.5925 24.8314 40.7931 25.074 41.0936 25.2538C41.1143 25.2666 41.1279 25.2879 41.1299 25.3116L41.1818 25.914C41.184 25.9383 41.168 25.9599 41.1447 25.9652C39.8102 26.2853 40.5192 27.6478 41.2476 28.1126C41.2631 28.1223 41.2726 28.1393 41.2728 28.1573L41.2821 28.9532C41.2826 28.9766 41.2653 28.9966 41.2425 29.001C40.0585 29.2126 40.5215 30.4868 41.2505 30.8877C41.2975 30.9137 41.323 30.9616 41.3274 31.0302C41.3386 31.2233 41.3417 31.4237 41.3376 31.632C41.3372 31.6591 41.3151 31.6813 41.2874 31.6811C41.2853 31.6811 41.2832 31.681 41.2809 31.6804C40.5814 31.5851 40.1951 32.0997 40.0716 32.7099C40.0678 32.7284 40.0507 32.7401 40.0324 32.7368C40.0309 32.7366 40.0295 32.7364 40.0284 32.7353C33.9817 30.6642 27.4978 29.6035 21.1167 29.431C21.0902 29.4304 21.0768 29.4166 21.076 29.3899L21.0578 28.2548C21.0577 28.2326 21.0722 28.2128 21.093 28.2063C21.8958 27.9649 21.9713 26.9117 21.1003 26.7294C21.0833 26.7258 21.0708 26.7104 21.0708 26.693L21.089 25.2744C21.0889 25.2523 21.1017 25.2316 21.1221 25.2217C21.7542 24.9042 21.7541 24.0825 21.1324 23.7585C21.1136 23.7492 21.1046 23.734 21.1041 23.7127L21.0845 22.5601C21.0846 22.5407 21.0927 22.527 21.1104 22.5194C21.6531 22.2848 21.8026 21.8928 21.5592 21.344C21.5503 21.3246 21.5527 21.3017 21.5659 21.2844L22.399 20.164C22.4259 20.1285 22.4383 20.1329 22.4378 20.1773C22.4092 22.4847 22.352 24.7893 22.2658 27.092C22.2598 27.2504 22.2583 27.6267 22.2626 28.2207C22.2642 28.504 22.2375 28.7347 22.5652 28.764C22.7438 28.7796 22.8807 28.7854 22.9745 28.7821C24.4113 28.7308 25.8384 28.8127 27.2571 29.0282C31.3447 29.6474 35.3699 30.424 39.2905 31.7717C39.5934 31.876 39.8572 31.8957 39.8466 31.4658C39.7709 28.432 39.6954 25.3988 39.6191 22.3652C39.6118 22.0948 39.5017 22.0728 39.2645 21.9574C34.5035 19.6481 29.1668 18.5334 23.893 18.3183Z" fill="#605DDB"/>
<path d="M22.7594 28.2899C22.7483 28.29 22.7395 28.2817 22.739 28.2714C22.739 28.2714 22.7388 28.2708 22.7386 28.2702C22.8112 25.3792 22.9795 22.4538 22.897 19.5627C22.8962 19.536 22.9041 19.5127 22.9203 19.4917L23.4321 18.8398C23.4504 18.8167 23.4788 18.8035 23.5086 18.8038C28.8131 18.956 34.311 20.0729 39.0931 22.4247C39.1167 22.436 39.129 22.4549 39.1294 22.4804L39.3485 31.2368C39.3487 31.2506 39.3378 31.2623 39.324 31.2625C39.3213 31.2627 39.3184 31.2622 39.3159 31.2609C35.2439 29.885 30.9626 29.0058 26.7038 28.467C25.4 28.3018 24.0847 28.2427 22.7588 28.2901L22.7594 28.2899Z" fill="#A09EFA"/>
<path d="M14.1091 23.1505C14.2746 23.0982 14.3663 22.9216 14.314 22.7562C14.2617 22.5907 14.0852 22.499 13.9197 22.5513C13.7542 22.6036 13.6625 22.7801 13.7148 22.9456C13.7671 23.111 13.9436 23.2028 14.1091 23.1505Z" fill="#FF579B"/>
<path d="M16.8869 24.3888C16.9629 24.2057 16.9113 24.0102 16.7716 23.9521C16.6319 23.8941 16.457 23.9955 16.3809 24.1786C16.3048 24.3618 16.3564 24.5573 16.4961 24.6153C16.6358 24.6734 16.8108 24.572 16.8869 24.3888Z" fill="#FF579B"/>
<path d="M16.6177 29.5645C16.6068 29.5652 16.5973 29.5571 16.596 29.5464C16.5957 29.5431 16.5966 29.5393 16.5983 29.536L16.9008 28.89C16.9179 28.8542 16.9533 28.8305 16.9934 28.8282C17.6607 28.7952 18.3332 28.7654 19.0099 28.7404C19.2535 28.7313 19.3729 28.6119 19.3685 28.3813C19.345 27.1309 19.3348 25.8853 19.3385 24.6443C19.3389 24.5756 19.3592 24.5083 19.3972 24.4513L20.5548 22.7043C20.582 22.6632 20.5957 22.6672 20.5966 22.716L20.6102 23.6546C20.6108 23.6807 20.5984 23.6985 20.5741 23.7068C19.7981 23.9916 19.7719 24.96 20.5492 25.264C20.5816 25.2766 20.5973 25.3 20.5963 25.3342L20.5806 26.7036C20.5802 26.7287 20.5693 26.7467 20.5474 26.7585C19.8957 27.1036 19.7881 27.8866 20.5284 28.1919C20.5523 28.2017 20.5641 28.2194 20.5645 28.2449L20.5846 29.3925C20.5853 29.4144 20.5743 29.4255 20.552 29.425C19.2388 29.4164 17.9271 29.4628 16.6177 29.5645Z" fill="#605DDB"/>
<path d="M20.8816 24.7895C21.0474 24.737 21.1393 24.5601 21.0869 24.3943C21.0345 24.2285 20.8576 24.1366 20.6918 24.189C20.526 24.2414 20.4341 24.4183 20.4865 24.5841C20.5389 24.7499 20.7158 24.8419 20.8816 24.7895Z" fill="#A09EFA"/>
<path d="M18.8418 28.2546L17.2169 28.3197C17.2073 28.32 17.1988 28.3129 17.1977 28.3029C17.1974 28.2996 17.1978 28.2966 17.1998 28.294C17.7054 27.3117 18.2442 26.3487 18.8169 25.4055C18.8336 25.3774 18.8428 25.3801 18.8427 25.4126L18.8807 28.2133C18.8814 28.2352 18.8638 28.2539 18.8418 28.2546Z" fill="#A09EFA"/>
<path d="M21.2284 27.4297C21.2095 27.2796 21.0339 27.178 20.836 27.2028C20.6382 27.2276 20.493 27.3693 20.5118 27.5195C20.5307 27.6696 20.7063 27.7712 20.9042 27.7464C21.102 27.7216 21.2472 27.5798 21.2284 27.4297Z" fill="#A09EFA"/>
</g>
<defs>
<clipPath id="clip0_718_7559">
<rect width="36.2027" height="33.4779" fill="white" transform="translate(0 10.9119) rotate(-17.5422)"/>
</clipPath>
</defs>
</svg>
