<svg width="1920" height="388" viewBox="0 0 1920 388" fill="none" xmlns="http://www.w3.org/2000/svg">
<path d="M-31.9997 0.50001L-31.9998 376.011C91.2791 386.458 215.015 391.022 336.887 385.271C402.018 382.196 470.279 374.774 529.448 346.19C559.318 331.75 578.501 312.553 602.516 288.521L603.953 287.083C637.512 253.501 681.959 240.746 729.149 235.163C798.044 227.006 862.999 227.675 937.698 230.65C998.543 233.079 1059.37 235.793 1120.18 238.791C1184.5 241.95 1249.21 242.953 1313.43 237.52C1363.13 233.308 1411.04 219.055 1457.14 194.761C1481.98 181.667 1498.75 173.125 1507.45 169.136C1562.15 144.029 1623.07 135.387 1683.33 135.119C1733.29 134.902 1785.84 136.64 1834.07 131.425C1873.92 127.112 1913.23 116.721 1952 100.25L1952 0.5L-31.9997 0.50001Z" fill="#FFBF00"/>
</svg>
