<svg width="1984" height="1568" viewBox="0 0 1984 1568" fill="none" xmlns="http://www.w3.org/2000/svg">
<path d="M4.99976 1550.91C126.61 1561.07 248.563 1565.44 368.651 1559.78C433.685 1556.71 501.073 1549.3 559.271 1521.19C588.276 1507.17 606.911 1488.57 630.979 1464.49L632.416 1463.05C667.151 1428.29 712.945 1415.33 760.561 1409.7C829.856 1401.49 895.128 1402.18 969.897 1405.15C1030.76 1407.58 1091.6 1410.3 1152.42 1413.3C1216.65 1416.45 1281.11 1417.44 1345 1412.04C1394.01 1407.88 1441.27 1393.83 1486.81 1369.84L4.99976 1550.91ZM4.99976 1550.91L4.99977 4.99995L1979 5L1979 1276.43C1941.65 1291.98 1903.83 1301.81 1865.53 1305.95C1828.17 1309.99 1788.25 1309.83 1748.65 1309.66C1737.49 1309.62 1726.35 1309.57 1715.31 1309.62C1654.63 1309.89 1592.93 1318.59 1537.36 1344.09C1528.51 1348.15 1511.63 1356.75 1486.81 1369.84L4.99976 1550.91Z" fill="#FFBF00" stroke="black" stroke-width="10"/>
</svg>
