<svg preserveAspectRatio='none' viewBox="0 0 1920 1409" fill="none" xmlns="http://www.w3.org/2000/svg">
<path d="M1947 -85.526L1946.48 -85.5287C1942.85 -85.5475 1937.47 -85.5751 1930.45 -85.6108C1916.4 -85.6821 1895.8 -85.7855 1869.54 -85.9135C1817.04 -86.1694 1741.96 -86.5238 1651.64 -86.9175C1471.01 -87.705 1229.46 -88.65 985.757 -89.2799C742.054 -89.9099 496.212 -90.2249 307.003 -89.7523C212.397 -89.5161 131.963 -89.083 73.0385 -88.3943C43.5739 -88.05 19.5057 -87.6418 1.74061 -87.1629C-11.7247 -86.8 -21.3674 -86.3993 -26.9999 -85.9782L-26.9999 1392.41C94.61 1402.57 216.564 1406.94 336.651 1401.28C401.685 1398.21 469.074 1390.8 527.271 1362.69C556.276 1348.67 574.911 1330.07 598.979 1305.99L600.416 1304.55C635.151 1269.79 680.945 1256.83 728.561 1251.2C797.857 1242.99 863.128 1243.68 937.897 1246.65C998.758 1249.08 1059.6 1251.8 1120.43 1254.8C1184.65 1257.95 1249.11 1258.94 1313 1253.54C1362.01 1249.38 1409.27 1235.33 1454.81 1211.34L1947 -85.526ZM1947 -85.526L1947 1117.93C1909.65 1133.48 1871.83 1143.31 1833.53 1147.45C1796.17 1151.49 1756.25 1151.33 1716.65 1151.16C1705.49 1151.12 1694.35 1151.07 1683.31 1151.12C1622.63 1151.39 1560.93 1160.09 1505.36 1185.59C1496.51 1189.65 1479.63 1198.25 1454.81 1211.34L1947 -85.526Z" fill="#FFBF00" stroke="black" stroke-width="10"/>
</svg>
