<svg width="424" height="804" viewBox="0 0 424 804" fill="none" xmlns="http://www.w3.org/2000/svg">
<mask id="path-1-inside-1_48_285" fill="white">
<path d="M348.334 156.919C407.85 172.004 414.896 253.456 358.71 278.149C358.533 278.223 358.444 278.432 358.526 278.609C358.545 278.658 358.58 278.697 358.614 278.737C377.913 296.705 369.042 328.789 352.597 344.647C340.012 356.791 323.928 361.786 306.728 363.687C276.834 366.989 248.99 356.899 224.386 340.75C223.954 340.466 223.545 340.502 223.176 340.864C212.162 351.644 203.101 363.598 195.994 376.734C178.71 408.679 166.502 441.282 161.393 475.786C161.341 476.084 161.552 476.37 161.858 476.413C161.866 476.413 161.874 476.413 161.882 476.412C174.256 477.795 170.302 489.296 166.215 496.053C166.116 496.222 166.176 496.449 166.345 496.548C166.454 496.608 166.578 496.611 166.69 496.556C173.667 493.065 181.068 492.151 188.886 493.805C195.293 495.156 202.466 500.924 199.059 508.15C198.939 508.403 198.982 508.622 199.197 508.81C203.312 512.454 205.908 517.007 206.994 522.461C207.101 522.982 207.578 523.338 208.102 523.297C222.165 522.152 231.759 534.158 231.691 547.415C231.693 547.629 231.776 547.83 231.924 547.987C232.917 549.017 233.671 550.198 234.186 551.546C234.317 551.885 234.695 552.056 235.034 551.933C235.155 551.887 235.258 551.808 235.335 551.697C241.986 542.495 249.083 523.714 242.826 512.965C239.233 506.798 233.991 502.78 239.653 495.439C239.816 495.226 239.854 494.994 239.768 494.743C236.174 484.682 248.54 478.374 256.243 484.06C256.472 484.222 256.762 484.258 257.019 484.147C262.323 481.778 266.295 483.079 268.936 488.049C269.054 488.282 269.234 488.446 269.478 488.55C274.999 490.986 277.245 495.071 276.224 500.813C275.254 506.216 272.117 505.205 269.132 508.139C263.681 513.497 261.116 520.125 261.446 528.015C262.097 543.637 258.699 559.466 243.805 567.931C243.453 568.128 243.283 568.53 243.391 568.92C247.521 584.075 241.255 601.986 224.673 606.191C224.543 606.23 224.432 606.309 224.356 606.428L220.993 611.648C220.833 611.902 220.897 612.055 221.196 612.106C242.079 615.694 261.407 625.181 273.734 643.411C280.269 653.087 288.375 636.914 295.316 635.996C305.704 634.629 302.957 645.95 298.986 650.803C295.093 655.555 291.111 660.877 287.025 666.78C276.383 682.161 271.526 666.924 265.534 660.049C249.241 641.348 225.802 628.143 200.763 626.517C199.37 626.426 197.985 626.491 196.606 626.712C196.321 626.758 196.057 626.91 195.887 627.149C191.344 633.286 185.364 637.355 177.948 639.355C177.721 639.415 177.584 639.651 177.643 639.87C177.644 639.887 177.645 639.903 177.662 639.919C185.052 659.054 193.286 678.141 203.015 696.173C211.791 712.449 220.639 725.024 230.309 738.991C240.993 754.438 221.582 770.83 210.183 777.775C192.225 788.708 148.432 806.985 129.693 792.705C127.929 791.366 125.996 789.041 123.885 785.738C106.096 757.921 90.4268 731.689 76.8874 707.058C59.9882 676.323 44.5783 643.358 36.1983 609.438C27.5641 574.478 22.6723 538.545 23.7147 502.473C24.6054 471.396 27.7994 439.496 35.1776 410.086C45 370.956 59.6513 333.522 79.5474 298.587C98.0617 266.074 120.412 234.754 139.936 202.218C140.073 201.99 140.038 201.778 139.841 201.598C128.011 191.16 119.722 172.814 115.408 157.947C105.929 125.286 106.185 89.7856 117.138 57.5869C123.057 40.1521 137.267 16.42 158.64 16.4271C170.702 16.4277 179.641 26.1969 179.633 38.1035C179.633 38.2843 179.771 38.4339 179.952 38.4336C180.042 38.4294 180.131 38.4006 180.202 38.3315C197.021 20.9929 224.228 5.94391 248.674 6.66124C258.251 6.9428 267.394 9.32369 276.109 13.8117C295.038 23.5637 313.558 44.5346 309.822 67.3393C309.777 67.6126 309.877 67.8133 310.137 67.9244C329.643 76.655 343.03 89.1241 351.456 109.493C358.019 125.372 358.561 142.339 348.096 156.24C347.958 156.436 347.995 156.705 348.191 156.852C348.233 156.883 348.284 156.905 348.334 156.919ZM157.235 170.42C170.641 143.57 176.076 110.752 196.429 90.2809C225.532 61.018 268.42 51.8389 307.036 66.6238C307.337 66.7411 307.513 66.6343 307.555 66.3118C308.374 60.1353 307.659 54.1706 305.408 48.4013C305.296 48.1189 305.093 47.997 304.791 48.0358C283.688 50.629 263.342 42.9156 248.468 27.8212C244.818 24.1224 242.789 19.9203 242.363 15.232L243.596 9.98923C243.753 9.31627 243.485 9.02485 242.799 9.11458C182.341 16.8672 144.118 77.2813 144.55 134.245C144.665 149.827 147.032 165.402 151.632 180.954C151.721 181.262 151.845 181.273 151.987 180.987L157.235 170.42ZM244.972 14.4521C244.666 20.8839 250.459 27.0046 254.895 30.65C268.63 41.9442 284.572 47.0543 302.738 45.963C303.746 45.9074 304.035 45.4172 303.614 44.5085C296.701 29.5826 282.027 17.8805 266.862 12.5204C260.606 10.3573 254.208 9.21152 247.677 9.06627C247.39 9.06335 247.148 9.17328 246.961 9.38749C245.784 10.741 245.124 12.4318 244.972 14.4521ZM153.051 19.7216C138.941 23.3751 128.168 36.8226 122.803 49.9586C121.403 53.3932 125.033 56.8711 127.757 58.0003C139.348 59.8554 153.137 44.4833 158.786 36.1736C161.576 32.0739 165.395 23.8091 161.26 19.3772C161.061 19.1647 160.825 19.0443 160.536 19.0086C157.669 18.6748 155.173 18.9071 153.051 19.7216ZM126.888 60.3254C124.318 59.304 122.408 57.6599 121.143 55.3857C121.027 55.1857 120.769 55.1157 120.577 55.2315C120.489 55.2849 120.427 55.3618 120.39 55.4539C108.953 88.5545 107.998 122.108 117.516 156.106C121.88 171.702 129.284 187.115 140.436 199.048C141.033 199.685 141.556 199.628 141.989 198.868L145.039 193.491L149.914 184.963C150.051 184.718 150.08 184.47 150.002 184.203C134.493 133.559 141.381 83.7286 175.76 43.1251C177.022 41.6444 177.277 40.252 177.24 38.4213C177.051 29.6792 173.084 23.5796 165.328 20.1065C165.21 20.0463 165.065 20.1024 165.014 20.2281C164.991 20.2784 164.986 20.3362 164.997 20.3932C168.61 33.3048 152.415 49.0611 143.208 55.7958C138.688 59.1058 132.562 61.801 126.888 60.3254ZM235.388 68.1065C214.241 76.2235 193.628 91.686 183.801 112.525C179.669 121.29 175.538 131.484 171.407 143.091C151.398 199.42 112.498 246.292 82.9602 297.597C63.9294 330.659 49.4806 365.758 39.6221 402.893C30.0586 438.962 26.2904 475.606 26.0756 512.855C25.8838 545.518 30.9179 577.829 38.8163 609.545C41.8126 621.557 45.6105 633.318 50.2176 644.81C69.4092 692.693 96.066 737.341 123.604 780.805C123.799 781.116 123.946 781.093 124.053 780.743C125.591 775.519 128.022 771.304 131.339 768.083C138.8 761.094 146.947 755.937 155.772 752.606C156.369 752.372 156.841 752.276 157.196 752.309C157.897 752.366 158.286 752.767 158.354 753.528C158.391 753.962 158.139 754.36 157.735 754.51C148.221 758.039 139.889 763.278 132.729 770.22C116.019 788.145 136.569 796.35 151.417 795.136C172.483 794.204 195.442 784.432 212.88 772.915C220.013 768.209 227.05 761.979 229.782 753.658C233.863 741.19 223.276 734.638 212.268 736.781C210.851 737.062 209.555 737.27 208.386 737.416C207.765 737.486 207.202 737.044 207.124 736.423C207.058 735.892 207.371 735.393 207.881 735.221C213.436 733.308 218.921 733.412 224.338 735.541C224.472 735.6 224.633 735.527 224.692 735.393C224.729 735.301 224.716 735.194 224.655 735.123C203.426 705.808 188.119 673.799 175.078 640.188C174.967 639.914 174.688 639.754 174.403 639.801C170.593 640.39 167.038 639.76 163.73 637.911C163.485 637.766 163.274 637.817 163.104 638.047L159.05 643.578C158.904 643.782 158.873 644.006 158.958 644.248C164.288 658.534 170.966 672.139 178.984 685.05C184.166 693.393 192.086 703.506 198.221 713.061C202.237 719.323 205.625 726.896 202.472 734.308C199.217 741.971 189.347 747.537 181.749 749.529C169.524 752.724 155.744 749.214 145.124 742.481C121.716 727.64 104.9 699.736 95.879 674.211C89.8156 657.076 84.839 639.462 81.4854 621.592C75.395 589.183 72.3399 554.569 74.9848 521.651C76.4527 503.39 83.8348 465.139 109.768 467.068C129.656 468.55 133.401 483.378 136.466 499.997C136.522 500.315 136.718 500.462 137.037 500.447L139.308 500.34C139.743 500.32 139.833 500.135 139.562 499.786C134.907 493.743 133.068 483.46 142.52 480.543C145.93 479.487 149.08 480.424 151.962 483.353C152.161 483.566 152.332 483.533 152.468 483.272C153.854 480.602 155.851 478.503 158.459 476.992C158.682 476.858 158.836 476.638 158.874 476.381C164.031 440.979 176.3 407.404 193.462 376.006C200.9 362.395 210.178 350.176 221.28 339.343C221.453 339.179 221.445 339.015 221.258 338.867L202.723 323.879C202.176 323.436 202.098 322.635 202.549 322.088C202.665 321.943 202.816 321.829 202.985 321.747C203.572 321.481 204.05 321.516 204.428 321.86C212.191 328.463 217.166 332.568 219.361 334.174C230.065 342.003 241.784 348.511 254.526 353.706C277.077 362.894 300.145 364.349 323.728 358.057C324.012 357.986 324.102 357.81 323.983 357.536L321.412 351.444C320.481 346.484 320.135 343.148 320.375 341.436C323.695 318.158 345.674 303.264 365.576 295.221C365.817 295.12 365.9 294.951 365.831 294.7C362.214 282.241 351.296 274.594 338.954 272.141C322.871 268.944 312.653 273.919 299.723 282.389C290.738 288.267 277.291 286.77 267.883 283.104C255.236 278.176 245.55 267.711 237.658 256.964C227.729 243.428 220.772 225.809 218.171 209.268C215.921 194.944 216.758 181.972 224.936 169.427C238.351 150.448 259.135 146.679 280.005 155.222C302.767 164.539 330.794 179.222 348.019 151.782L350.768 146.805C350.919 146.527 350.839 146.391 350.527 146.397C339.585 146.632 327.04 140.392 318.991 133.646C307.281 123.826 301.342 107.589 300.171 92.6239C299.494 83.9705 301.522 75.5433 309.261 70.8003C309.605 70.5952 309.596 70.4066 309.219 70.2518C285.108 60.0364 260.497 59.3186 235.388 68.1065ZM311.434 120.912C318.704 133.652 336.76 144.406 351.124 143.888C351.682 143.87 352.164 143.477 352.286 142.921C355.734 127.27 352.201 114.158 344.407 100.588C337.579 88.6899 327.899 79.5964 315.369 73.299C313.972 72.6005 312.98 71.7678 311.293 72.5948C294.95 80.6506 305.041 109.708 311.434 120.912ZM254.463 271.877C263.564 280.028 274.137 283.993 286.164 283.774C294.004 283.627 297.439 280.82 303.615 276.915C303.743 276.843 303.777 276.677 303.705 276.557C303.679 276.518 303.653 276.486 303.61 276.463C285.7 266.187 274.613 251.449 270.351 232.249C264.558 206.169 276.466 180.302 297.829 165.593C297.996 165.47 298.043 165.238 297.92 165.071C297.876 165.007 297.816 164.961 297.749 164.931C286.649 160.588 274.18 154.378 262.71 153.339C242.253 151.49 224.389 166.692 220.419 186.451C217.935 198.81 220.657 212.52 224.603 224.964C230.571 243.755 240.525 259.393 254.463 271.877ZM301.361 166.446C259.65 191.585 262.125 253.572 306.277 274.793C306.52 274.913 306.758 274.902 306.998 274.768C322.002 266.191 341.135 266.788 355.532 276.433C355.752 276.578 356.025 276.607 356.267 276.521C374.453 269.743 388.19 252.73 392.963 234.503C401.874 200.461 380.281 166.882 346.177 158.935C345.936 158.872 345.677 158.958 345.513 159.147C334.092 172.107 317.309 172.534 302.098 166.387C301.855 166.291 301.585 166.312 301.361 166.446ZM323.993 351.101C324.61 353.39 325.478 355.255 326.605 356.69C326.789 356.919 327.014 356.991 327.297 356.904C339.208 352.967 349.046 346.03 356.805 336.093C364.021 325.623 368.724 310.998 366.596 298.23C366.549 297.92 366.251 297.712 365.941 297.76C365.9 297.762 365.852 297.78 365.812 297.799C350.308 304.311 331.82 316.026 325.28 332.134C322.68 338.542 322.246 344.865 323.993 351.101ZM77.5536 526.485C85.1802 520.038 95.4307 516.624 105.402 519.344C105.685 519.421 105.895 519.337 106.039 519.075C108.937 513.771 113.568 508.804 119.566 507.232C120.248 507.053 120.905 506.685 121.536 506.121C124.975 503.075 129.018 501.333 133.656 500.885C133.894 500.865 134.064 500.652 134.037 500.423C134.036 500.407 134.036 500.399 134.035 500.382C131.568 487.22 129.139 473.628 114.147 470.223C84.879 463.578 78.032 507.449 77.1919 526.305C77.1748 526.643 77.2927 526.703 77.5536 526.485ZM167.081 488.255C169.016 483.957 166.909 478.814 161.853 478.764C156.271 478.705 152.494 487.502 152.456 491.941C152.43 495.78 153.488 499.937 155.637 504.405C155.738 504.622 155.942 504.768 156.182 504.806C158.374 505.123 159.912 504.278 160.812 502.264C162.909 497.564 164.998 492.897 167.081 488.255ZM145.213 502.881C147.485 505.075 149.414 505.387 152.371 504.492C152.646 504.405 152.737 504.229 152.634 503.962C150.591 498.61 149.455 493.668 150.428 487.953C151.549 481.376 141.566 481.22 138.885 486.597C136.226 491.923 141.597 499.37 145.213 502.881ZM247.336 484.758C243.769 485.805 241.777 488.166 241.357 491.826C241.269 492.586 241.811 493.267 242.571 493.355C242.678 493.366 242.785 493.369 242.891 493.356C243.226 493.316 243.669 493.122 244.22 492.768C248 492.073 251.674 492.27 255.242 493.36C255.492 493.438 255.66 493.348 255.739 493.106C257.563 487.491 253.018 482.412 247.336 484.758ZM258.707 489.475C258.829 491.194 258.586 492.841 257.995 494.422C257.937 494.581 257.978 494.759 258.106 494.868L260.474 496.992C260.68 497.18 260.923 497.275 261.202 497.278C266.689 497.415 269.061 493.154 266.185 488.417C264.424 485.393 261.794 484.695 258.289 486.331C258.023 486.45 257.934 486.651 258.013 486.927L258.707 489.475ZM162.722 505.658C162.888 505.88 163.114 505.968 163.383 505.914C166.25 505.377 169.068 505.541 171.845 506.421C176.941 508.022 195.458 514.581 197.344 505.577C198.444 500.308 191.66 496.707 187.379 496.004C180.034 494.788 164.663 496.249 162.52 504.69C162.43 505.047 162.494 505.365 162.722 505.658ZM261.664 500.281C262.471 503.48 266.354 505.147 269.311 504.597C276.12 503.308 274.893 494.696 270.407 491.711C270.093 491.504 269.932 491.585 269.917 491.956C269.663 496.873 267.048 499.453 262.08 499.711C261.826 499.722 261.631 499.945 261.651 500.191C261.653 500.224 261.654 500.248 261.664 500.281ZM243.642 495.696C237.551 499.326 239.599 504.25 242.979 508.701C252.815 521.641 245.3 543.596 235.822 554.723C235.643 554.929 235.539 555.164 235.503 555.437C235.271 557.156 235.486 558.231 236.155 558.66C238.763 560.468 240.744 562.758 242.099 565.546C242.235 565.819 242.435 565.875 242.699 565.723C253.813 559.17 259.095 546.909 259.098 534.362C259.102 523.942 258.518 515.72 266.327 507.72C266.499 507.539 266.502 507.26 266.322 507.087C266.261 507.024 266.186 506.987 266.102 506.966C264.311 506.615 262.778 505.808 261.494 504.545C261.261 504.318 261.032 504.32 260.814 504.577C257.53 508.149 253.479 509.375 248.669 508.253C248.062 508.109 247.657 507.528 247.735 506.908C247.844 506.09 248.347 505.77 249.252 505.966C254.68 507.125 264.769 502.025 256.176 496.808C252.379 494.513 248.204 494.142 243.643 495.704L243.642 495.696ZM126.25 505.727C118.436 509.397 122.189 519.689 129.986 517.746C130.262 517.675 130.469 517.526 130.605 517.281C133.607 511.914 137.963 508.094 143.682 505.812C144.037 505.673 144.076 505.457 143.809 505.182L141.815 503.147C141.608 502.935 141.356 502.816 141.051 502.805C135.847 502.565 130.913 503.544 126.25 505.727ZM134.025 527.465C137.444 530.099 141.43 524.34 142.745 521.896C145.428 516.922 148.408 512.139 151.684 507.54C151.854 507.294 151.79 507.174 151.494 507.171C145.421 507.136 140.433 509.235 136.524 513.478C133.349 516.922 128.79 523.422 134.025 527.465ZM161.299 532.224C164.856 532.213 167.094 530.342 168.027 526.592C170.091 518.237 167.629 511.812 160.639 507.333C160.377 507.165 160.094 507.096 159.792 507.135L156.434 507.547C156.377 507.55 156.319 507.553 156.261 507.531C155.482 507.214 154.925 507.437 154.591 508.201C154.48 508.453 154.475 508.707 154.569 508.958C155.869 512.668 156.394 516.497 156.144 520.437C155.82 525.44 155.457 532.236 161.299 532.224ZM197.918 619.469C198.642 618.975 199.25 618.79 199.74 618.907C208.963 621.07 217.931 613.287 221.718 605.722C222.289 604.586 223.359 604.1 224.478 603.777C240.564 599.184 245.843 580.366 239.561 565.92C238.446 563.359 236.379 561.509 233.359 560.369C233.117 560.273 232.966 560.034 232.987 559.778C233.864 549.063 223.442 541.311 214.731 549.337C214.503 549.545 214.237 549.648 213.932 549.646C213.234 549.646 212.806 549.28 212.641 548.556C212.578 548.28 212.664 547.996 212.868 547.798C217.608 543.237 222.969 542.426 228.933 545.375C229.06 545.443 229.222 545.395 229.29 545.268C229.312 545.218 229.326 545.16 229.315 545.103C227.727 532.811 219.182 524.609 206.326 525.722C205.688 525.777 205.116 525.335 205.005 524.708C204.271 520.453 201.691 513.105 197.367 510.974C197.124 510.863 196.885 510.857 196.644 510.967C187.921 514.902 178.022 511.094 169.465 508.398C168.556 508.112 167.59 508.026 166.569 508.148C166.209 508.189 166.143 508.357 166.378 508.633C171.822 515.206 172.846 522.487 169.458 530.477C162.42 538.95 152.92 534.376 153.646 523.775C153.928 519.62 153.66 515.492 152.835 511.389C152.791 511.161 152.571 511.015 152.343 511.059C152.237 511.08 152.141 511.142 152.08 511.236C148.45 516.714 145.298 524.644 140.252 528.841C133.871 534.161 128.413 527.294 129.332 520.964C129.369 520.692 129.255 520.549 128.983 520.537C122.532 520.166 119.307 516.76 119.301 510.326C119.305 510.055 119.089 509.843 118.818 509.839C118.736 509.843 118.655 509.864 118.582 509.9C114.291 512.303 110.89 515.635 108.386 519.894C108.211 520.19 108.311 520.563 108.607 520.738C108.632 520.753 108.666 520.768 108.691 520.783C109.972 521.298 113.646 522.72 113.268 524.463C113.133 525.094 112.503 525.502 111.881 525.366C111.715 525.333 111.563 525.258 111.427 525.158C100.547 517.09 86.084 521.261 77.2798 530.278C77.0837 530.476 76.9801 530.719 76.96 530.991C76.9198 531.536 76.7336 532.12 76.7235 532.605C75.7988 570.134 79.8518 607.1 88.8911 643.512C90.41 649.612 98.2577 648.224 102.299 646.621C103.195 646.267 104.201 646.696 104.564 647.599C104.619 647.736 104.659 647.882 104.674 648.021C104.997 650.521 105.921 652.712 107.431 654.597C113.506 662.167 124.306 656.993 129.706 651.768C129.903 651.586 130.13 651.534 130.389 651.621C132.194 652.267 133.922 653.016 135.737 653.169C146.569 654.082 157.037 643.927 161.59 635.201C161.968 634.493 162.842 634.222 163.55 634.591C163.651 634.644 163.753 634.713 163.839 634.791C166.309 636.993 169.38 637.662 172.789 637.469C183.942 636.814 193.126 629.242 197.918 619.469ZM282.072 668.919C285.913 664.441 289.219 659.257 292.717 654.837C295.393 651.449 299.079 647.693 300.117 643.38C300.915 640.088 298.915 637.923 295.655 638.478C291.066 639.269 287.022 645.72 282.648 647.947C276.526 651.077 273.35 646.97 269.708 642.014C259.843 628.624 245.159 620.562 229.265 616.493C225.851 615.347 222.362 614.722 218.783 614.627C218.496 614.624 218.253 614.718 218.049 614.916C213.419 619.374 206.865 622.607 200.369 621.613C200.063 621.57 199.821 621.672 199.644 621.927L198.484 623.658C198.292 623.938 198.373 624.09 198.719 624.099C225.159 624.936 249.72 638.425 267.153 658.132C268.195 659.316 269.469 661.088 270.968 663.442C273.178 666.921 277.053 674.381 282.072 668.919ZM141.105 736.508C156.588 749.158 180.423 753.839 195.984 738.918C206.276 729.051 198.879 717.624 192.449 708.616C186.997 700.992 180.926 692.97 176.362 685.551C168.738 673.148 162.323 660.088 157.103 646.381C157.028 646.179 156.793 646.075 156.591 646.159C156.534 646.178 156.487 646.213 156.44 646.256C152.816 650.099 148.519 652.906 143.548 654.676C143.298 654.77 143.137 655.007 143.141 655.278C143.566 673.073 127.845 694.912 113.358 704.162C113.11 704.322 113.062 704.521 113.214 704.769C120.298 716.523 129.595 727.097 141.105 736.508ZM119.27 660.5C110.687 661.815 104.334 658.465 102.475 649.661C102.431 649.433 102.202 649.28 101.974 649.323C101.949 649.324 101.933 649.333 101.909 649.343C98.3385 650.644 94.7373 650.772 91.1134 649.718C90.8469 649.64 90.7527 649.735 90.8232 650.011C93.9662 661.474 97.7883 672.7 102.29 683.696C102.364 683.873 102.573 683.962 102.743 683.888C102.751 683.888 102.759 683.888 102.775 683.871C111.996 678.844 117.602 671.178 119.607 660.853C119.66 660.58 119.547 660.462 119.27 660.5ZM120.728 666.709C117.772 675.155 112.152 681.639 103.867 686.145C103.619 686.279 103.554 686.48 103.682 686.737L109.742 698.917L111.267 701.639C111.419 701.903 111.619 701.96 111.884 701.824C125.714 694.683 140.622 671.461 140.702 655.837C140.704 655.533 140.55 655.4 140.249 655.455C137.153 656.02 134.15 655.758 131.231 654.679C131.014 654.599 130.809 654.617 130.609 654.733L122.899 659.401C122.7 659.525 122.568 659.696 122.504 659.92L120.728 666.709Z"/>
</mask>
<path d="M348.334 156.919C407.85 172.004 414.896 253.456 358.71 278.149C358.533 278.223 358.444 278.432 358.526 278.609C358.545 278.658 358.58 278.697 358.614 278.737C377.913 296.705 369.042 328.789 352.597 344.647C340.012 356.791 323.928 361.786 306.728 363.687C276.834 366.989 248.99 356.899 224.386 340.75C223.954 340.466 223.545 340.502 223.176 340.864C212.162 351.644 203.101 363.598 195.994 376.734C178.71 408.679 166.502 441.282 161.393 475.786C161.341 476.084 161.552 476.37 161.858 476.413C161.866 476.413 161.874 476.413 161.882 476.412C174.256 477.795 170.302 489.296 166.215 496.053C166.116 496.222 166.176 496.449 166.345 496.548C166.454 496.608 166.578 496.611 166.69 496.556C173.667 493.065 181.068 492.151 188.886 493.805C195.293 495.156 202.466 500.924 199.059 508.15C198.939 508.403 198.982 508.622 199.197 508.81C203.312 512.454 205.908 517.007 206.994 522.461C207.101 522.982 207.578 523.338 208.102 523.297C222.165 522.152 231.759 534.158 231.691 547.415C231.693 547.629 231.776 547.83 231.924 547.987C232.917 549.017 233.671 550.198 234.186 551.546C234.317 551.885 234.695 552.056 235.034 551.933C235.155 551.887 235.258 551.808 235.335 551.697C241.986 542.495 249.083 523.714 242.826 512.965C239.233 506.798 233.991 502.78 239.653 495.439C239.816 495.226 239.854 494.994 239.768 494.743C236.174 484.682 248.54 478.374 256.243 484.06C256.472 484.222 256.762 484.258 257.019 484.147C262.323 481.778 266.295 483.079 268.936 488.049C269.054 488.282 269.234 488.446 269.478 488.55C274.999 490.986 277.245 495.071 276.224 500.813C275.254 506.216 272.117 505.205 269.132 508.139C263.681 513.497 261.116 520.125 261.446 528.015C262.097 543.637 258.699 559.466 243.805 567.931C243.453 568.128 243.283 568.53 243.391 568.92C247.521 584.075 241.255 601.986 224.673 606.191C224.543 606.23 224.432 606.309 224.356 606.428L220.993 611.648C220.833 611.902 220.897 612.055 221.196 612.106C242.079 615.694 261.407 625.181 273.734 643.411C280.269 653.087 288.375 636.914 295.316 635.996C305.704 634.629 302.957 645.95 298.986 650.803C295.093 655.555 291.111 660.877 287.025 666.78C276.383 682.161 271.526 666.924 265.534 660.049C249.241 641.348 225.802 628.143 200.763 626.517C199.37 626.426 197.985 626.491 196.606 626.712C196.321 626.758 196.057 626.91 195.887 627.149C191.344 633.286 185.364 637.355 177.948 639.355C177.721 639.415 177.584 639.651 177.643 639.87C177.644 639.887 177.645 639.903 177.662 639.919C185.052 659.054 193.286 678.141 203.015 696.173C211.791 712.449 220.639 725.024 230.309 738.991C240.993 754.438 221.582 770.83 210.183 777.775C192.225 788.708 148.432 806.985 129.693 792.705C127.929 791.366 125.996 789.041 123.885 785.738C106.096 757.921 90.4268 731.689 76.8874 707.058C59.9882 676.323 44.5783 643.358 36.1983 609.438C27.5641 574.478 22.6723 538.545 23.7147 502.473C24.6054 471.396 27.7994 439.496 35.1776 410.086C45 370.956 59.6513 333.522 79.5474 298.587C98.0617 266.074 120.412 234.754 139.936 202.218C140.073 201.99 140.038 201.778 139.841 201.598C128.011 191.16 119.722 172.814 115.408 157.947C105.929 125.286 106.185 89.7856 117.138 57.5869C123.057 40.1521 137.267 16.42 158.64 16.4271C170.702 16.4277 179.641 26.1969 179.633 38.1035C179.633 38.2843 179.771 38.4339 179.952 38.4336C180.042 38.4294 180.131 38.4006 180.202 38.3315C197.021 20.9929 224.228 5.94391 248.674 6.66124C258.251 6.9428 267.394 9.32369 276.109 13.8117C295.038 23.5637 313.558 44.5346 309.822 67.3393C309.777 67.6126 309.877 67.8133 310.137 67.9244C329.643 76.655 343.03 89.1241 351.456 109.493C358.019 125.372 358.561 142.339 348.096 156.24C347.958 156.436 347.995 156.705 348.191 156.852C348.233 156.883 348.284 156.905 348.334 156.919ZM157.235 170.42C170.641 143.57 176.076 110.752 196.429 90.2809C225.532 61.018 268.42 51.8389 307.036 66.6238C307.337 66.7411 307.513 66.6343 307.555 66.3118C308.374 60.1353 307.659 54.1706 305.408 48.4013C305.296 48.1189 305.093 47.997 304.791 48.0358C283.688 50.629 263.342 42.9156 248.468 27.8212C244.818 24.1224 242.789 19.9203 242.363 15.232L243.596 9.98923C243.753 9.31627 243.485 9.02485 242.799 9.11458C182.341 16.8672 144.118 77.2813 144.55 134.245C144.665 149.827 147.032 165.402 151.632 180.954C151.721 181.262 151.845 181.273 151.987 180.987L157.235 170.42ZM244.972 14.4521C244.666 20.8839 250.459 27.0046 254.895 30.65C268.63 41.9442 284.572 47.0543 302.738 45.963C303.746 45.9074 304.035 45.4172 303.614 44.5085C296.701 29.5826 282.027 17.8805 266.862 12.5204C260.606 10.3573 254.208 9.21152 247.677 9.06627C247.39 9.06335 247.148 9.17328 246.961 9.38749C245.784 10.741 245.124 12.4318 244.972 14.4521ZM153.051 19.7216C138.941 23.3751 128.168 36.8226 122.803 49.9586C121.403 53.3932 125.033 56.8711 127.757 58.0003C139.348 59.8554 153.137 44.4833 158.786 36.1736C161.576 32.0739 165.395 23.8091 161.26 19.3772C161.061 19.1647 160.825 19.0443 160.536 19.0086C157.669 18.6748 155.173 18.9071 153.051 19.7216ZM126.888 60.3254C124.318 59.304 122.408 57.6599 121.143 55.3857C121.027 55.1857 120.769 55.1157 120.577 55.2315C120.489 55.2849 120.427 55.3618 120.39 55.4539C108.953 88.5545 107.998 122.108 117.516 156.106C121.88 171.702 129.284 187.115 140.436 199.048C141.033 199.685 141.556 199.628 141.989 198.868L145.039 193.491L149.914 184.963C150.051 184.718 150.08 184.47 150.002 184.203C134.493 133.559 141.381 83.7286 175.76 43.1251C177.022 41.6444 177.277 40.252 177.24 38.4213C177.051 29.6792 173.084 23.5796 165.328 20.1065C165.21 20.0463 165.065 20.1024 165.014 20.2281C164.991 20.2784 164.986 20.3362 164.997 20.3932C168.61 33.3048 152.415 49.0611 143.208 55.7958C138.688 59.1058 132.562 61.801 126.888 60.3254ZM235.388 68.1065C214.241 76.2235 193.628 91.686 183.801 112.525C179.669 121.29 175.538 131.484 171.407 143.091C151.398 199.42 112.498 246.292 82.9602 297.597C63.9294 330.659 49.4806 365.758 39.6221 402.893C30.0586 438.962 26.2904 475.606 26.0756 512.855C25.8838 545.518 30.9179 577.829 38.8163 609.545C41.8126 621.557 45.6105 633.318 50.2176 644.81C69.4092 692.693 96.066 737.341 123.604 780.805C123.799 781.116 123.946 781.093 124.053 780.743C125.591 775.519 128.022 771.304 131.339 768.083C138.8 761.094 146.947 755.937 155.772 752.606C156.369 752.372 156.841 752.276 157.196 752.309C157.897 752.366 158.286 752.767 158.354 753.528C158.391 753.962 158.139 754.36 157.735 754.51C148.221 758.039 139.889 763.278 132.729 770.22C116.019 788.145 136.569 796.35 151.417 795.136C172.483 794.204 195.442 784.432 212.88 772.915C220.013 768.209 227.05 761.979 229.782 753.658C233.863 741.19 223.276 734.638 212.268 736.781C210.851 737.062 209.555 737.27 208.386 737.416C207.765 737.486 207.202 737.044 207.124 736.423C207.058 735.892 207.371 735.393 207.881 735.221C213.436 733.308 218.921 733.412 224.338 735.541C224.472 735.6 224.633 735.527 224.692 735.393C224.729 735.301 224.716 735.194 224.655 735.123C203.426 705.808 188.119 673.799 175.078 640.188C174.967 639.914 174.688 639.754 174.403 639.801C170.593 640.39 167.038 639.76 163.73 637.911C163.485 637.766 163.274 637.817 163.104 638.047L159.05 643.578C158.904 643.782 158.873 644.006 158.958 644.248C164.288 658.534 170.966 672.139 178.984 685.05C184.166 693.393 192.086 703.506 198.221 713.061C202.237 719.323 205.625 726.896 202.472 734.308C199.217 741.971 189.347 747.537 181.749 749.529C169.524 752.724 155.744 749.214 145.124 742.481C121.716 727.64 104.9 699.736 95.879 674.211C89.8156 657.076 84.839 639.462 81.4854 621.592C75.395 589.183 72.3399 554.569 74.9848 521.651C76.4527 503.39 83.8348 465.139 109.768 467.068C129.656 468.55 133.401 483.378 136.466 499.997C136.522 500.315 136.718 500.462 137.037 500.447L139.308 500.34C139.743 500.32 139.833 500.135 139.562 499.786C134.907 493.743 133.068 483.46 142.52 480.543C145.93 479.487 149.08 480.424 151.962 483.353C152.161 483.566 152.332 483.533 152.468 483.272C153.854 480.602 155.851 478.503 158.459 476.992C158.682 476.858 158.836 476.638 158.874 476.381C164.031 440.979 176.3 407.404 193.462 376.006C200.9 362.395 210.178 350.176 221.28 339.343C221.453 339.179 221.445 339.015 221.258 338.867L202.723 323.879C202.176 323.436 202.098 322.635 202.549 322.088C202.665 321.943 202.816 321.829 202.985 321.747C203.572 321.481 204.05 321.516 204.428 321.86C212.191 328.463 217.166 332.568 219.361 334.174C230.065 342.003 241.784 348.511 254.526 353.706C277.077 362.894 300.145 364.349 323.728 358.057C324.012 357.986 324.102 357.81 323.983 357.536L321.412 351.444C320.481 346.484 320.135 343.148 320.375 341.436C323.695 318.158 345.674 303.264 365.576 295.221C365.817 295.12 365.9 294.951 365.831 294.7C362.214 282.241 351.296 274.594 338.954 272.141C322.871 268.944 312.653 273.919 299.723 282.389C290.738 288.267 277.291 286.77 267.883 283.104C255.236 278.176 245.55 267.711 237.658 256.964C227.729 243.428 220.772 225.809 218.171 209.268C215.921 194.944 216.758 181.972 224.936 169.427C238.351 150.448 259.135 146.679 280.005 155.222C302.767 164.539 330.794 179.222 348.019 151.782L350.768 146.805C350.919 146.527 350.839 146.391 350.527 146.397C339.585 146.632 327.04 140.392 318.991 133.646C307.281 123.826 301.342 107.589 300.171 92.6239C299.494 83.9705 301.522 75.5433 309.261 70.8003C309.605 70.5952 309.596 70.4066 309.219 70.2518C285.108 60.0364 260.497 59.3186 235.388 68.1065ZM311.434 120.912C318.704 133.652 336.76 144.406 351.124 143.888C351.682 143.87 352.164 143.477 352.286 142.921C355.734 127.27 352.201 114.158 344.407 100.588C337.579 88.6899 327.899 79.5964 315.369 73.299C313.972 72.6005 312.98 71.7678 311.293 72.5948C294.95 80.6506 305.041 109.708 311.434 120.912ZM254.463 271.877C263.564 280.028 274.137 283.993 286.164 283.774C294.004 283.627 297.439 280.82 303.615 276.915C303.743 276.843 303.777 276.677 303.705 276.557C303.679 276.518 303.653 276.486 303.61 276.463C285.7 266.187 274.613 251.449 270.351 232.249C264.558 206.169 276.466 180.302 297.829 165.593C297.996 165.47 298.043 165.238 297.92 165.071C297.876 165.007 297.816 164.961 297.749 164.931C286.649 160.588 274.18 154.378 262.71 153.339C242.253 151.49 224.389 166.692 220.419 186.451C217.935 198.81 220.657 212.52 224.603 224.964C230.571 243.755 240.525 259.393 254.463 271.877ZM301.361 166.446C259.65 191.585 262.125 253.572 306.277 274.793C306.52 274.913 306.758 274.902 306.998 274.768C322.002 266.191 341.135 266.788 355.532 276.433C355.752 276.578 356.025 276.607 356.267 276.521C374.453 269.743 388.19 252.73 392.963 234.503C401.874 200.461 380.281 166.882 346.177 158.935C345.936 158.872 345.677 158.958 345.513 159.147C334.092 172.107 317.309 172.534 302.098 166.387C301.855 166.291 301.585 166.312 301.361 166.446ZM323.993 351.101C324.61 353.39 325.478 355.255 326.605 356.69C326.789 356.919 327.014 356.991 327.297 356.904C339.208 352.967 349.046 346.03 356.805 336.093C364.021 325.623 368.724 310.998 366.596 298.23C366.549 297.92 366.251 297.712 365.941 297.76C365.9 297.762 365.852 297.78 365.812 297.799C350.308 304.311 331.82 316.026 325.28 332.134C322.68 338.542 322.246 344.865 323.993 351.101ZM77.5536 526.485C85.1802 520.038 95.4307 516.624 105.402 519.344C105.685 519.421 105.895 519.337 106.039 519.075C108.937 513.771 113.568 508.804 119.566 507.232C120.248 507.053 120.905 506.685 121.536 506.121C124.975 503.075 129.018 501.333 133.656 500.885C133.894 500.865 134.064 500.652 134.037 500.423C134.036 500.407 134.036 500.399 134.035 500.382C131.568 487.22 129.139 473.628 114.147 470.223C84.879 463.578 78.032 507.449 77.1919 526.305C77.1748 526.643 77.2927 526.703 77.5536 526.485ZM167.081 488.255C169.016 483.957 166.909 478.814 161.853 478.764C156.271 478.705 152.494 487.502 152.456 491.941C152.43 495.78 153.488 499.937 155.637 504.405C155.738 504.622 155.942 504.768 156.182 504.806C158.374 505.123 159.912 504.278 160.812 502.264C162.909 497.564 164.998 492.897 167.081 488.255ZM145.213 502.881C147.485 505.075 149.414 505.387 152.371 504.492C152.646 504.405 152.737 504.229 152.634 503.962C150.591 498.61 149.455 493.668 150.428 487.953C151.549 481.376 141.566 481.22 138.885 486.597C136.226 491.923 141.597 499.37 145.213 502.881ZM247.336 484.758C243.769 485.805 241.777 488.166 241.357 491.826C241.269 492.586 241.811 493.267 242.571 493.355C242.678 493.366 242.785 493.369 242.891 493.356C243.226 493.316 243.669 493.122 244.22 492.768C248 492.073 251.674 492.27 255.242 493.36C255.492 493.438 255.66 493.348 255.739 493.106C257.563 487.491 253.018 482.412 247.336 484.758ZM258.707 489.475C258.829 491.194 258.586 492.841 257.995 494.422C257.937 494.581 257.978 494.759 258.106 494.868L260.474 496.992C260.68 497.18 260.923 497.275 261.202 497.278C266.689 497.415 269.061 493.154 266.185 488.417C264.424 485.393 261.794 484.695 258.289 486.331C258.023 486.45 257.934 486.651 258.013 486.927L258.707 489.475ZM162.722 505.658C162.888 505.88 163.114 505.968 163.383 505.914C166.25 505.377 169.068 505.541 171.845 506.421C176.941 508.022 195.458 514.581 197.344 505.577C198.444 500.308 191.66 496.707 187.379 496.004C180.034 494.788 164.663 496.249 162.52 504.69C162.43 505.047 162.494 505.365 162.722 505.658ZM261.664 500.281C262.471 503.48 266.354 505.147 269.311 504.597C276.12 503.308 274.893 494.696 270.407 491.711C270.093 491.504 269.932 491.585 269.917 491.956C269.663 496.873 267.048 499.453 262.08 499.711C261.826 499.722 261.631 499.945 261.651 500.191C261.653 500.224 261.654 500.248 261.664 500.281ZM243.642 495.696C237.551 499.326 239.599 504.25 242.979 508.701C252.815 521.641 245.3 543.596 235.822 554.723C235.643 554.929 235.539 555.164 235.503 555.437C235.271 557.156 235.486 558.231 236.155 558.66C238.763 560.468 240.744 562.758 242.099 565.546C242.235 565.819 242.435 565.875 242.699 565.723C253.813 559.17 259.095 546.909 259.098 534.362C259.102 523.942 258.518 515.72 266.327 507.72C266.499 507.539 266.502 507.26 266.322 507.087C266.261 507.024 266.186 506.987 266.102 506.966C264.311 506.615 262.778 505.808 261.494 504.545C261.261 504.318 261.032 504.32 260.814 504.577C257.53 508.149 253.479 509.375 248.669 508.253C248.062 508.109 247.657 507.528 247.735 506.908C247.844 506.09 248.347 505.77 249.252 505.966C254.68 507.125 264.769 502.025 256.176 496.808C252.379 494.513 248.204 494.142 243.643 495.704L243.642 495.696ZM126.25 505.727C118.436 509.397 122.189 519.689 129.986 517.746C130.262 517.675 130.469 517.526 130.605 517.281C133.607 511.914 137.963 508.094 143.682 505.812C144.037 505.673 144.076 505.457 143.809 505.182L141.815 503.147C141.608 502.935 141.356 502.816 141.051 502.805C135.847 502.565 130.913 503.544 126.25 505.727ZM134.025 527.465C137.444 530.099 141.43 524.34 142.745 521.896C145.428 516.922 148.408 512.139 151.684 507.54C151.854 507.294 151.79 507.174 151.494 507.171C145.421 507.136 140.433 509.235 136.524 513.478C133.349 516.922 128.79 523.422 134.025 527.465ZM161.299 532.224C164.856 532.213 167.094 530.342 168.027 526.592C170.091 518.237 167.629 511.812 160.639 507.333C160.377 507.165 160.094 507.096 159.792 507.135L156.434 507.547C156.377 507.55 156.319 507.553 156.261 507.531C155.482 507.214 154.925 507.437 154.591 508.201C154.48 508.453 154.475 508.707 154.569 508.958C155.869 512.668 156.394 516.497 156.144 520.437C155.82 525.44 155.457 532.236 161.299 532.224ZM197.918 619.469C198.642 618.975 199.25 618.79 199.74 618.907C208.963 621.07 217.931 613.287 221.718 605.722C222.289 604.586 223.359 604.1 224.478 603.777C240.564 599.184 245.843 580.366 239.561 565.92C238.446 563.359 236.379 561.509 233.359 560.369C233.117 560.273 232.966 560.034 232.987 559.778C233.864 549.063 223.442 541.311 214.731 549.337C214.503 549.545 214.237 549.648 213.932 549.646C213.234 549.646 212.806 549.28 212.641 548.556C212.578 548.28 212.664 547.996 212.868 547.798C217.608 543.237 222.969 542.426 228.933 545.375C229.06 545.443 229.222 545.395 229.29 545.268C229.312 545.218 229.326 545.16 229.315 545.103C227.727 532.811 219.182 524.609 206.326 525.722C205.688 525.777 205.116 525.335 205.005 524.708C204.271 520.453 201.691 513.105 197.367 510.974C197.124 510.863 196.885 510.857 196.644 510.967C187.921 514.902 178.022 511.094 169.465 508.398C168.556 508.112 167.59 508.026 166.569 508.148C166.209 508.189 166.143 508.357 166.378 508.633C171.822 515.206 172.846 522.487 169.458 530.477C162.42 538.95 152.92 534.376 153.646 523.775C153.928 519.62 153.66 515.492 152.835 511.389C152.791 511.161 152.571 511.015 152.343 511.059C152.237 511.08 152.141 511.142 152.08 511.236C148.45 516.714 145.298 524.644 140.252 528.841C133.871 534.161 128.413 527.294 129.332 520.964C129.369 520.692 129.255 520.549 128.983 520.537C122.532 520.166 119.307 516.76 119.301 510.326C119.305 510.055 119.089 509.843 118.818 509.839C118.736 509.843 118.655 509.864 118.582 509.9C114.291 512.303 110.89 515.635 108.386 519.894C108.211 520.19 108.311 520.563 108.607 520.738C108.632 520.753 108.666 520.768 108.691 520.783C109.972 521.298 113.646 522.72 113.268 524.463C113.133 525.094 112.503 525.502 111.881 525.366C111.715 525.333 111.563 525.258 111.427 525.158C100.547 517.09 86.084 521.261 77.2798 530.278C77.0837 530.476 76.9801 530.719 76.96 530.991C76.9198 531.536 76.7336 532.12 76.7235 532.605C75.7988 570.134 79.8518 607.1 88.8911 643.512C90.41 649.612 98.2577 648.224 102.299 646.621C103.195 646.267 104.201 646.696 104.564 647.599C104.619 647.736 104.659 647.882 104.674 648.021C104.997 650.521 105.921 652.712 107.431 654.597C113.506 662.167 124.306 656.993 129.706 651.768C129.903 651.586 130.13 651.534 130.389 651.621C132.194 652.267 133.922 653.016 135.737 653.169C146.569 654.082 157.037 643.927 161.59 635.201C161.968 634.493 162.842 634.222 163.55 634.591C163.651 634.644 163.753 634.713 163.839 634.791C166.309 636.993 169.38 637.662 172.789 637.469C183.942 636.814 193.126 629.242 197.918 619.469ZM282.072 668.919C285.913 664.441 289.219 659.257 292.717 654.837C295.393 651.449 299.079 647.693 300.117 643.38C300.915 640.088 298.915 637.923 295.655 638.478C291.066 639.269 287.022 645.72 282.648 647.947C276.526 651.077 273.35 646.97 269.708 642.014C259.843 628.624 245.159 620.562 229.265 616.493C225.851 615.347 222.362 614.722 218.783 614.627C218.496 614.624 218.253 614.718 218.049 614.916C213.419 619.374 206.865 622.607 200.369 621.613C200.063 621.57 199.821 621.672 199.644 621.927L198.484 623.658C198.292 623.938 198.373 624.09 198.719 624.099C225.159 624.936 249.72 638.425 267.153 658.132C268.195 659.316 269.469 661.088 270.968 663.442C273.178 666.921 277.053 674.381 282.072 668.919ZM141.105 736.508C156.588 749.158 180.423 753.839 195.984 738.918C206.276 729.051 198.879 717.624 192.449 708.616C186.997 700.992 180.926 692.97 176.362 685.551C168.738 673.148 162.323 660.088 157.103 646.381C157.028 646.179 156.793 646.075 156.591 646.159C156.534 646.178 156.487 646.213 156.44 646.256C152.816 650.099 148.519 652.906 143.548 654.676C143.298 654.77 143.137 655.007 143.141 655.278C143.566 673.073 127.845 694.912 113.358 704.162C113.11 704.322 113.062 704.521 113.214 704.769C120.298 716.523 129.595 727.097 141.105 736.508ZM119.27 660.5C110.687 661.815 104.334 658.465 102.475 649.661C102.431 649.433 102.202 649.28 101.974 649.323C101.949 649.324 101.933 649.333 101.909 649.343C98.3385 650.644 94.7373 650.772 91.1134 649.718C90.8469 649.64 90.7527 649.735 90.8232 650.011C93.9662 661.474 97.7883 672.7 102.29 683.696C102.364 683.873 102.573 683.962 102.743 683.888C102.751 683.888 102.759 683.888 102.775 683.871C111.996 678.844 117.602 671.178 119.607 660.853C119.66 660.58 119.547 660.462 119.27 660.5ZM120.728 666.709C117.772 675.155 112.152 681.639 103.867 686.145C103.619 686.279 103.554 686.48 103.682 686.737L109.742 698.917L111.267 701.639C111.419 701.903 111.619 701.96 111.884 701.824C125.714 694.683 140.622 671.461 140.702 655.837C140.704 655.533 140.55 655.4 140.249 655.455C137.153 656.02 134.15 655.758 131.231 654.679C131.014 654.599 130.809 654.617 130.609 654.733L122.899 659.401C122.7 659.525 122.568 659.696 122.504 659.92L120.728 666.709Z" fill="black" stroke="black" stroke-width="10" mask="url(#path-1-inside-1_48_285)"/>
<path d="M242.365 15.2319C240.883 15.359 238.882 15.7898 236.354 16.5413C213.143 23.4076 193.477 35.5964 179.084 55.4423C163.048 77.5428 151.77 105.977 151.814 133.69C151.833 145.99 153.64 158.239 157.236 170.42L151.989 180.987C151.846 181.273 151.722 181.262 151.634 180.954C147.033 165.402 144.667 149.827 144.552 134.245C144.12 77.2812 182.343 16.8671 242.8 9.11451C243.486 9.02477 243.755 9.3162 243.597 9.98915L242.365 15.2319Z" fill="#FB7B04"/>
<path d="M266.86 12.5204C265.411 12.8103 263.056 12.888 259.796 12.7617C257.055 12.6521 252.119 13.2208 244.97 14.4521C245.122 12.4319 245.782 10.7411 246.959 9.38751C247.146 9.1733 247.388 9.06337 247.675 9.06629C254.206 9.21154 260.604 10.3573 266.86 12.5204Z" fill="#FB7B04"/>
<path d="M266.863 12.5204C282.028 17.8805 296.702 29.5825 303.615 44.5085C304.036 45.4172 303.747 45.9074 302.739 45.963C284.573 47.0542 268.631 41.9442 254.896 30.65C250.46 27.0046 244.667 20.8839 244.973 14.4521C252.122 13.2208 257.058 12.6521 259.799 12.7617C263.059 12.888 265.414 12.8103 266.863 12.5204ZM267.053 17.0965C266.865 17.4668 266.839 17.7967 266.984 18.0775C267.083 18.27 267.305 18.4404 267.665 18.5796C273.084 20.7656 278.013 23.5497 282.461 26.9316C282.939 27.2954 283.616 27.2061 283.98 26.7289C284.004 26.7031 284.027 26.6691 284.041 26.6356C284.469 25.9335 284.332 25.3072 283.624 24.7489C279.083 21.1412 274.106 18.3758 268.699 16.4604C268.064 16.2355 267.362 16.5068 267.053 17.0965ZM288.021 29.1356L287.025 30.1602C286.814 30.3838 286.814 30.7371 287.038 30.9484L296.174 39.8456C297.328 40.9747 298.556 41.5908 298.901 41.2295L299.403 40.7129C299.755 40.3512 299.107 39.1491 297.954 38.0283L288.81 29.1397C288.594 28.9197 288.241 28.9281 288.021 29.1438L288.021 29.1356Z" fill="#FFBF00"/>
<path d="M127.76 58.0001C132.456 42.8742 140.887 30.1118 153.053 19.7214C155.176 18.9068 157.671 18.6746 160.538 19.0084C160.828 19.0441 161.063 19.1645 161.262 19.377C165.398 23.8089 161.579 32.0736 158.789 36.1734C153.14 44.483 139.35 59.8552 127.76 58.0001Z" fill="#FFBF00"/>
<path d="M242.362 15.2319C242.788 19.9201 244.817 24.1223 248.467 27.8211C263.342 42.9154 283.687 50.6289 304.79 48.0357C305.092 47.9969 305.295 48.1188 305.407 48.4011C307.658 54.1705 308.373 60.1352 307.554 66.3117C307.512 66.6342 307.336 66.741 307.035 66.6237C268.42 51.8388 225.531 61.0179 196.429 90.2808C176.075 110.752 170.64 143.57 157.234 170.42C153.638 158.239 151.83 145.99 151.811 133.69C151.767 105.977 163.045 77.5427 179.082 55.4422C193.475 35.5964 213.141 23.4076 236.351 16.5412C238.88 15.7898 240.881 15.3589 242.362 15.2319Z" fill="#FFBF00"/>
<path d="M153.05 19.7217C140.884 30.1121 132.453 42.8744 127.757 58.0004C125.033 56.8711 121.402 53.3933 122.802 49.9586C128.167 36.8226 138.941 23.3751 153.05 19.7217Z" fill="#FB7B04"/>
<path d="M145.042 193.49C138.477 182.805 133.782 173.469 130.95 165.492C125.637 150.499 123.224 135.345 121.65 119.495C119.641 99.2851 121.385 79.5566 126.891 60.3253C132.565 61.8008 138.691 59.1056 143.211 55.7956C152.418 49.0609 168.613 33.3046 165 20.393C164.969 20.263 165.045 20.128 165.166 20.0894C165.223 20.0785 165.281 20.084 165.331 20.1063C173.087 23.5794 177.054 29.679 177.243 38.4211C177.28 40.2518 177.025 41.6442 175.763 43.125C141.384 83.7284 134.496 133.559 150.005 184.202C150.083 184.47 150.054 184.718 149.917 184.962L145.042 193.49Z" fill="#FFBF00"/>
<path d="M267.05 17.0967C267.359 16.507 268.061 16.2358 268.696 16.4607C274.102 18.3761 279.08 21.1415 283.621 24.7491C284.329 25.3075 284.465 25.9338 284.038 26.6358C283.725 27.1435 283.059 27.3063 282.551 26.9932C282.518 26.9784 282.492 26.9549 282.458 26.9319C278.01 23.55 273.081 20.7658 267.662 18.5799C267.302 18.4407 267.08 18.2703 266.981 18.0778C266.836 17.797 266.862 17.4671 267.05 17.0967Z" fill="white"/>
<path d="M288.019 29.1357C288.239 28.9199 288.592 28.9116 288.808 29.1315L297.952 38.0201C299.106 39.1491 299.762 40.3509 299.409 40.7125L298.907 41.2291C298.563 41.5986 297.343 40.9821 296.189 39.8613C296.189 39.8613 296.181 39.8535 296.172 39.8456L287.036 30.9485C286.813 30.7371 286.812 30.3838 287.024 30.1602L288.019 29.1357Z" fill="white"/>
<path d="M126.89 60.3255C121.384 79.5568 119.64 99.2853 121.649 119.495C123.223 135.345 125.635 150.499 130.949 165.492C133.78 173.469 138.475 182.805 145.041 193.491L141.99 198.868C141.558 199.628 141.034 199.685 140.438 199.048C129.286 187.115 121.882 171.702 117.517 156.106C108 122.108 108.955 88.5545 120.392 55.454C120.464 55.237 120.697 55.1274 120.914 55.1994C121.014 55.2358 121.091 55.2979 121.144 55.3858C122.41 57.66 124.319 59.3041 126.89 60.3255Z" fill="#FB7B04"/>
<path d="M348.019 151.782C342.89 156.115 338.166 158.752 333.863 159.694C320.435 162.642 305.324 158.602 292.349 153.18C275.411 146.103 257.48 137.849 240.198 149.54C232.911 154.467 227.824 161.099 224.937 169.427C216.758 181.972 215.921 194.944 218.172 209.268C220.772 225.809 227.73 243.428 237.659 256.964C245.55 267.71 255.236 278.176 267.883 283.104C277.291 286.77 290.739 288.267 299.723 282.389C312.653 273.919 322.872 268.944 338.954 272.141C351.296 274.594 362.214 282.24 365.831 294.7C365.9 294.951 365.818 295.12 365.576 295.221C345.675 303.263 323.695 318.157 320.376 341.436C320.136 343.148 320.481 346.484 321.413 351.444C308.918 353.781 296.403 353.942 283.875 351.909C265.46 348.92 248.294 342.232 231.583 334.06C223.122 329.922 214.166 321.353 204.428 321.86C204.051 321.516 203.572 321.481 202.985 321.747C202.35 322.048 202.082 322.808 202.383 323.443C202.465 323.612 202.578 323.763 202.724 323.879L221.258 338.867C221.446 339.015 221.453 339.179 221.28 339.343C210.179 350.176 200.9 362.395 193.462 376.006C176.301 407.404 164.032 440.979 158.874 476.381C158.837 476.637 158.683 476.858 158.459 476.992C155.851 478.503 153.855 480.602 152.468 483.272C152.332 483.533 152.161 483.566 151.962 483.353C149.08 480.423 145.93 479.487 142.521 480.542C133.068 483.46 134.907 493.743 139.562 499.786C139.833 500.134 139.743 500.319 139.309 500.34L137.038 500.447C136.718 500.462 136.522 500.315 136.466 499.997C133.402 483.378 129.657 468.55 109.768 467.068C83.8353 465.139 76.4532 503.39 74.9853 521.651C72.3404 554.569 75.3955 589.183 81.4859 621.592C84.8394 639.462 89.816 657.076 95.8794 674.211C104.901 699.736 121.716 727.64 145.124 742.481C155.745 749.214 169.525 752.724 181.749 749.529C189.347 747.537 199.217 741.971 202.473 734.308C205.625 726.896 202.237 719.323 198.221 713.061C192.086 703.506 184.167 693.393 178.985 685.049C170.967 672.139 164.288 658.533 158.959 644.248C158.873 644.006 158.904 643.782 159.051 643.578L163.105 638.047C163.275 637.817 163.486 637.766 163.731 637.911C167.039 639.76 170.593 640.39 174.403 639.801C174.688 639.754 174.967 639.914 175.079 640.188C188.119 673.799 203.427 705.808 224.655 735.123C224.751 735.242 224.726 735.407 224.608 735.503C224.528 735.565 224.422 735.578 224.338 735.541C218.922 733.412 213.436 733.308 207.881 735.221C207.291 735.429 206.976 736.068 207.184 736.658C207.356 737.16 207.864 737.473 208.387 737.415C209.555 737.27 210.852 737.061 212.268 736.781C223.277 734.637 233.864 741.19 229.782 753.658C227.05 761.979 220.014 768.209 212.88 772.915C195.443 784.432 172.483 794.204 151.418 795.135C143.616 786.644 139.881 781.125 132.729 770.22C139.889 763.278 148.221 758.038 157.735 754.51C158.139 754.36 158.392 753.962 158.355 753.528C158.286 752.767 157.898 752.366 157.196 752.309C156.842 752.276 156.37 752.372 155.772 752.606C146.948 755.937 138.8 761.094 131.339 768.083C117.426 747.036 104.216 725.577 91.7267 703.715C75.3879 675.115 59.8467 642.854 51.7473 611.057C31.8078 532.725 32.2902 450.78 62.714 375.112C83.7345 322.827 112.153 274.804 139.362 225.688C144.899 215.691 150.275 204.526 155.878 194.009C165.589 175.78 174.189 156.83 182.069 137.742C193.467 110.124 207.766 83.3887 235.276 68.8677C235.485 68.7593 235.559 68.5914 235.507 68.3638C235.487 68.2744 235.45 68.1857 235.389 68.1065C260.498 59.3186 285.108 60.0364 309.22 70.2517C309.597 70.4066 309.605 70.5951 309.262 70.8003C301.522 75.5433 299.494 83.9704 300.171 92.6239C301.343 107.589 307.282 123.826 318.992 133.646C327.041 140.392 339.585 146.632 350.527 146.397C350.839 146.391 350.919 146.527 350.768 146.805L348.019 151.782Z" fill="#FFBF00"/>
<path d="M235.389 68.1066C235.451 68.1859 235.488 68.2745 235.508 68.364C235.56 68.5916 235.486 68.7594 235.277 68.8678C207.767 83.3888 193.468 110.124 182.069 137.742C174.19 156.83 165.589 175.78 155.878 194.009C150.275 204.527 144.9 215.691 139.363 225.688C112.154 274.804 83.7353 322.827 62.7147 375.112C32.291 450.781 31.8085 532.726 51.748 611.058C59.8475 642.855 75.3886 675.116 91.7274 703.716C104.217 725.578 117.426 747.036 131.34 768.084C128.024 771.304 125.592 775.519 124.054 780.743C123.947 781.093 123.801 781.116 123.605 780.805C96.0672 737.341 69.4104 692.693 50.2187 644.81C45.6117 633.318 41.8138 621.557 38.8175 609.545C30.9191 577.829 25.885 545.518 26.0768 512.855C26.2916 475.606 30.0598 438.963 39.6232 402.893C49.4818 365.758 63.9305 330.659 82.9614 297.597C112.5 246.292 151.4 199.42 171.409 143.091C175.539 131.484 179.67 121.29 183.802 112.525C193.629 91.6862 214.242 76.2236 235.389 68.1066Z" fill="#FB7B04"/>
<path d="M351.124 143.888C336.761 144.406 318.704 133.652 311.434 120.912C305.041 109.708 294.95 80.6507 311.293 72.5949C312.98 71.768 313.972 72.6006 315.369 73.2992C327.9 79.5965 337.579 88.69 344.407 100.588C352.201 114.158 355.734 127.27 352.287 142.921C352.165 143.477 351.682 143.87 351.124 143.888ZM312.786 75.6965C312.198 75.946 311.926 76.6161 312.175 77.2042C312.268 77.43 312.433 77.6194 312.644 77.741C323.225 83.982 331.853 92.221 338.538 102.466C338.928 103.064 339.576 103.567 340.247 103.503C340.844 103.442 341.279 102.912 341.21 102.316C341.194 102.152 341.137 101.999 341.057 101.855C334.77 91.6978 326.468 83.4024 316.166 76.9676C315.311 76.4407 313.98 75.205 312.786 75.6965ZM341.097 106.742C341.016 107.994 341.537 108.767 342.064 109.835C345.482 116.823 347.635 124.183 348.524 131.915C348.569 132.356 348.7 132.687 348.899 132.908C349.272 133.326 349.711 133.387 350.198 133.101C350.646 132.842 350.903 132.353 350.862 131.838C350.072 122.885 347.483 114.47 343.087 106.599C342.8 106.078 342.395 105.859 341.864 105.925C341.448 105.986 341.127 106.321 341.097 106.742Z" fill="#FFBF00"/>
<path d="M312.785 75.6969C313.978 75.2053 315.309 76.4411 316.164 76.9679C326.466 83.4028 334.768 91.6982 341.055 101.855C341.366 102.366 341.217 103.03 340.706 103.35C340.57 103.439 340.408 103.488 340.245 103.503C339.574 103.568 338.926 103.064 338.536 102.466C331.851 92.2214 323.223 83.9824 312.642 77.7413C312.101 77.4134 311.92 76.7071 312.248 76.1658C312.369 75.9546 312.559 75.7896 312.785 75.6969Z" fill="white"/>
<path d="M341.095 106.742C341.125 106.321 341.446 105.986 341.862 105.925C342.393 105.859 342.798 106.078 343.085 106.599C347.481 114.47 350.07 122.886 350.86 131.838C350.901 132.353 350.645 132.842 350.197 133.101C349.709 133.387 349.27 133.326 348.898 132.908C348.698 132.687 348.568 132.356 348.522 131.915C347.633 124.183 345.48 116.823 342.062 109.835C341.536 108.767 341.014 107.994 341.095 106.742Z" fill="white"/>
<path d="M348.023 151.782C330.798 179.222 302.771 164.54 280.009 155.222C259.139 146.679 238.355 150.449 224.94 169.427C227.828 161.099 232.915 154.467 240.202 149.54C257.484 137.85 275.414 146.104 292.353 153.18C305.327 158.602 320.439 162.642 333.867 159.694C338.169 158.753 342.893 156.115 348.023 151.782Z" fill="#FB7B04"/>
<path d="M306.274 274.793C262.122 253.572 259.647 191.585 301.359 166.446C301.583 166.313 301.853 166.292 302.095 166.387C317.306 172.534 334.09 172.107 345.51 159.147C345.674 158.959 345.933 158.873 346.174 158.935C380.278 166.882 401.871 200.461 392.96 234.503C388.187 252.73 374.451 269.743 356.264 276.522C356.022 276.607 355.749 276.579 355.529 276.433C341.132 266.789 322 266.191 306.996 274.768C306.756 274.902 306.518 274.913 306.274 274.793ZM378.929 213.921C378.07 195.638 362.559 181.518 344.276 182.377C325.993 183.235 311.873 198.746 312.731 217.03C313.59 235.313 329.101 249.432 347.384 248.574C365.668 247.715 379.787 232.204 378.929 213.921Z" fill="white"/>
<path d="M378.935 213.921C379.794 232.204 365.674 247.715 347.391 248.574C329.107 249.432 313.596 235.313 312.738 217.029C311.879 198.746 325.999 183.235 344.282 182.376C362.566 181.518 378.077 195.638 378.935 213.921ZM376.451 214.038C375.657 197.123 361.304 184.059 344.39 184.853C327.476 185.647 314.411 199.999 315.206 216.913C316 233.828 330.352 246.892 347.266 246.098C364.18 245.304 377.245 230.952 376.451 214.038Z" fill="black"/>
<path d="M376.449 214.038C377.243 230.952 364.179 245.304 347.265 246.098C330.35 246.892 315.998 233.828 315.204 216.914C314.41 199.999 327.475 185.647 344.389 184.853C361.303 184.059 375.655 197.124 376.449 214.038ZM358.5 225.332C370.482 226.249 371.389 208.474 359.268 208.279C357.066 204.603 354.063 202.246 350.26 201.217C337.516 197.731 326.319 210.738 331.848 222.434C337.067 233.488 350.877 234.655 358.5 225.332Z" fill="#605DDA"/>
<path d="M359.267 208.279C348.817 209.181 348.174 223.311 358.499 225.332C350.875 234.655 337.066 233.487 331.846 222.434C326.318 210.738 337.515 197.731 350.258 201.216C354.062 202.246 357.065 204.603 359.267 208.279Z" fill="black"/>
<path d="M359.266 208.279C371.387 208.474 370.479 226.249 358.497 225.332C348.172 223.311 348.815 209.181 359.266 208.279Z" fill="white"/>
<path d="M356.804 336.093C356.051 336.334 354.765 337.126 352.938 338.461C344.778 344.407 335.132 348.615 323.992 351.102C322.244 344.865 322.679 338.542 325.279 332.134C331.819 316.026 350.307 304.312 365.811 297.799C366.101 297.678 366.436 297.811 366.556 298.101C366.575 298.141 366.585 298.182 366.595 298.23C368.723 310.998 364.02 325.623 356.804 336.093ZM363.554 302.243C363.031 301.947 362.366 302.135 362.07 302.658C361.987 302.802 361.945 302.968 361.936 303.133C361.473 311.988 358.882 320.154 354.146 327.623C353.985 327.869 354.034 328.204 354.249 328.407L354.833 328.939C355.236 329.298 355.859 329.269 356.218 328.874C356.249 328.839 356.28 328.797 356.311 328.754C361.074 321.341 363.806 313.193 364.497 304.303C364.575 303.338 364.256 302.654 363.555 302.252L363.554 302.243Z" fill="#FFBF00"/>
<path d="M363.556 302.243C364.257 302.646 364.577 303.329 364.499 304.294C363.807 313.184 361.076 321.332 356.313 328.746C356.022 329.195 355.412 329.33 354.954 329.031C354.912 329 354.869 328.97 354.835 328.938L354.251 328.407C354.036 328.203 353.987 327.869 354.148 327.623C358.884 320.153 361.475 311.987 361.938 303.132C361.968 302.531 362.48 302.072 363.082 302.109C363.247 302.118 363.413 302.168 363.556 302.243Z" fill="white"/>
<path d="M321.41 351.445L323.981 357.536C324.1 357.81 324.01 357.987 323.726 358.057C300.143 364.35 277.075 362.894 254.524 353.706C241.782 348.512 230.063 342.004 219.359 334.174C217.164 332.568 212.189 328.463 204.426 321.86C214.164 321.354 223.12 329.922 231.58 334.061C248.291 342.232 265.458 348.92 283.873 351.909C296.4 353.942 308.915 353.782 321.41 351.445Z" fill="#FB7B04"/>
<path d="M356.805 336.094C349.046 346.031 339.208 352.968 327.297 356.904C327.014 356.991 326.789 356.928 326.605 356.69C325.478 355.256 324.61 353.39 323.993 351.102C335.133 348.615 344.779 344.407 352.939 338.461C354.766 337.126 356.052 336.334 356.805 336.094Z" fill="#FB7B04"/>
<path d="M105.405 519.343C95.4335 516.623 85.183 520.038 77.5564 526.485C77.2955 526.703 77.1776 526.642 77.1946 526.305C78.0347 507.449 84.8818 463.578 114.15 470.223C129.142 473.627 131.571 487.219 134.038 500.382C134.082 500.61 133.928 500.839 133.7 500.882C133.684 500.883 133.675 500.884 133.659 500.884C129.021 501.332 124.978 503.075 121.538 506.121C120.908 506.684 120.251 507.052 119.569 507.232C113.571 508.804 108.94 513.771 106.042 519.075C105.898 519.337 105.688 519.42 105.405 519.343Z" fill="#FB7B04"/>
<path d="M161.854 478.764C166.91 478.814 169.016 483.958 167.082 488.256C164.999 492.897 162.909 497.564 160.813 502.264C159.913 504.278 158.375 505.123 156.183 504.807C155.943 504.769 155.739 504.622 155.638 504.405C153.489 499.937 152.431 495.78 152.456 491.942C152.494 487.503 156.272 478.706 161.854 478.764ZM161.54 481.351C161.19 481.597 161.106 482.086 161.353 482.436C161.405 482.507 161.457 482.562 161.525 482.617C163.908 484.354 162.532 487.089 161.465 489.029C161.178 489.576 161.391 490.257 161.947 490.543C162.393 490.776 162.931 490.685 163.276 490.324C165.253 488.152 165.771 485.704 164.821 482.98C164.337 481.597 163.019 480.303 161.54 481.351ZM161.723 493.832C161.942 493.23 161.63 492.554 161.02 492.336L160.928 492.3C160.326 492.081 159.651 492.393 159.433 493.003L158.044 496.848C157.826 497.449 158.137 498.125 158.747 498.343L158.839 498.38C159.441 498.598 160.117 498.287 160.334 497.677L161.723 493.832Z" fill="#605DDA"/>
<path d="M161.537 481.351C163.016 480.304 164.334 481.598 164.818 482.98C165.768 485.704 165.25 488.153 163.273 490.324C162.842 490.772 162.136 490.789 161.681 490.358C161.319 490.014 161.228 489.467 161.462 489.029C162.529 487.089 163.905 484.354 161.522 482.617C161.174 482.362 161.101 481.873 161.356 481.524C161.402 481.456 161.465 481.395 161.537 481.351Z" fill="white"/>
<path d="M145.21 502.882C141.594 499.37 136.224 491.923 138.883 486.597C141.564 481.221 151.547 481.376 150.426 487.953C149.453 493.668 150.589 498.611 152.632 503.963C152.735 504.229 152.653 504.406 152.369 504.493C149.412 505.388 147.483 505.076 145.21 502.882Z" fill="#605DDA"/>
<path d="M244.22 492.768C244.058 489.842 245.091 487.172 247.336 484.758C253.019 482.412 257.563 487.491 255.74 493.106C255.661 493.348 255.492 493.438 255.242 493.36C251.674 492.27 248 492.073 244.22 492.768Z" fill="#FFBF00"/>
<path d="M247.333 484.758C245.088 487.173 244.055 489.842 244.217 492.768C243.667 493.123 243.224 493.316 242.889 493.356C242.129 493.441 241.438 492.899 241.353 492.138C241.348 492.032 241.343 491.925 241.354 491.826C241.774 488.166 243.767 485.805 247.333 484.758Z" fill="#FB7B04"/>
<path d="M266.185 488.417C262.956 487.04 260.459 487.396 258.708 489.475L258.013 486.927C257.934 486.652 258.023 486.45 258.289 486.331C261.795 484.695 264.424 485.394 266.185 488.417Z" fill="#FB7B04"/>
<path d="M159.441 493.002L158.049 496.846C157.83 497.451 158.142 498.119 158.748 498.338L158.84 498.372C159.446 498.591 160.114 498.278 160.333 497.673L161.725 493.83C161.944 493.225 161.631 492.556 161.026 492.337L160.934 492.304C160.328 492.084 159.66 492.397 159.441 493.002Z" fill="white"/>
<path d="M266.185 488.417C269.061 493.154 266.69 497.415 261.203 497.279C260.923 497.275 260.68 497.18 260.474 496.992L258.107 494.868C257.978 494.759 257.937 494.581 257.995 494.422C258.587 492.841 258.83 491.194 258.708 489.475C260.459 487.396 262.957 487.04 266.185 488.417Z" fill="#FFBF00"/>
<path d="M162.718 505.658C162.491 505.365 162.427 505.048 162.517 504.69C164.659 496.249 180.03 494.788 187.376 496.004C191.657 496.707 198.441 500.308 197.34 505.577C195.454 514.581 176.938 508.023 171.842 506.422C169.064 505.541 166.246 505.378 163.379 505.915C163.111 505.969 162.885 505.881 162.718 505.658ZM173.598 501.466C179.161 499.554 185.907 499.031 191.15 502.179C191.488 502.385 191.788 502.469 192.05 502.449C192.467 502.413 192.754 502.227 192.911 501.899C193.136 501.428 193.027 500.866 192.649 500.506C188.013 496.106 178.011 497.274 172.641 499.293C172.335 499.414 172.186 499.75 172.299 500.057C172.299 500.057 172.299 500.065 172.3 500.073L172.734 501.088C172.9 501.483 173.185 501.609 173.589 501.467L173.598 501.466Z" fill="#605DDA"/>
<path d="M269.313 504.597C266.356 505.147 262.473 503.481 261.666 500.281C261.597 500.038 261.741 499.793 261.993 499.723C262.026 499.722 262.058 499.712 262.083 499.711C267.05 499.453 269.665 496.873 269.919 491.956C269.934 491.585 270.095 491.504 270.409 491.711C274.896 494.697 276.122 503.308 269.313 504.597Z" fill="#FFBF00"/>
<path d="M191.154 502.179C185.912 499.031 179.165 499.553 173.602 501.466C173.198 501.608 172.912 501.482 172.746 501.087L172.312 500.072C172.183 499.774 172.331 499.422 172.629 499.302C172.629 499.302 172.638 499.301 172.646 499.301C178.015 497.282 188.018 496.114 192.653 500.514C193.032 500.874 193.14 501.436 192.916 501.907C192.759 502.235 192.472 502.421 192.054 502.457C191.792 502.477 191.493 502.393 191.154 502.187L191.154 502.179Z" fill="white"/>
<path d="M236.155 558.66C247.578 546.793 251.972 532.741 249.335 516.489C248.677 512.444 247.093 509.33 244.796 506.094C242.218 502.451 242.099 499.745 243.643 495.696C248.204 494.134 252.379 494.505 256.176 496.8C264.769 502.017 254.68 507.117 249.252 505.958C248.347 505.763 247.844 506.082 247.735 506.901C247.657 507.521 248.062 508.101 248.669 508.245C253.479 509.367 257.53 508.142 260.813 504.569C261.032 504.321 261.262 504.318 261.494 504.537C262.778 505.8 264.311 506.607 266.102 506.958C266.343 507.005 266.494 507.244 266.447 507.484C266.427 507.568 266.39 507.652 266.327 507.712C258.518 515.712 259.102 523.935 259.098 534.354C259.095 546.901 253.812 559.162 242.699 565.715C242.435 565.867 242.235 565.811 242.099 565.538C240.744 562.75 238.763 560.461 236.155 558.652L236.155 558.66Z" fill="#FFBF00"/>
<path d="M243.642 495.696C242.098 499.745 242.217 502.451 244.795 506.094C247.092 509.33 248.676 512.444 249.334 516.488C251.971 532.741 247.577 546.793 236.154 558.66C235.485 558.231 235.27 557.157 235.502 555.437C235.538 555.164 235.642 554.929 235.822 554.723C245.299 543.596 252.814 521.641 242.979 508.701C239.598 504.25 237.551 499.326 243.642 495.696Z" fill="#FB7B04"/>
<path d="M129.986 517.745C122.189 519.689 118.436 509.397 126.25 505.727C130.914 503.544 135.847 502.565 141.051 502.805C141.356 502.816 141.608 502.935 141.815 503.147L143.809 505.182C144.076 505.457 144.037 505.672 143.682 505.812C137.964 508.094 133.607 511.914 130.605 517.281C130.469 517.526 130.262 517.675 129.986 517.745Z" fill="#605DDA"/>
<path d="M134.024 527.466C128.789 523.423 133.348 516.923 136.522 513.478C140.431 509.236 145.419 507.136 151.493 507.172C151.789 507.174 151.852 507.294 151.683 507.541C148.407 512.14 145.427 516.922 142.743 521.896C141.428 524.341 137.442 530.099 134.024 527.466Z" fill="#605DDA"/>
<path d="M161.3 532.224C155.458 532.236 155.821 525.44 156.145 520.437C156.395 516.497 155.871 512.668 154.571 508.958C154.477 508.708 154.481 508.453 154.593 508.201C154.926 507.437 155.483 507.214 156.262 507.531C156.321 507.553 156.378 507.558 156.435 507.547L159.793 507.135C160.095 507.096 160.378 507.165 160.641 507.334C167.63 511.812 170.093 518.237 168.028 526.592C167.095 530.342 164.857 532.213 161.3 532.224ZM164.457 528.231C165.274 528.324 165.795 527.864 166.004 527.057C167.326 521.974 166.467 516.978 163.426 512.051C163.106 511.54 162.444 511.259 161.934 511.431C161.594 511.545 161.395 511.842 161.428 512.194C161.436 512.366 161.383 512.475 161.246 512.523C161.117 512.57 161.041 512.713 161.097 512.85C161.098 512.875 161.115 512.89 161.124 512.915C164.063 517.222 164.883 521.916 163.593 526.981C163.454 527.522 163.784 528.073 164.324 528.204C164.366 528.218 164.407 528.225 164.457 528.231Z" fill="#605DDA"/>
<path d="M169.458 530.477C166.03 542.01 154.446 537.846 151.612 529.121C151.535 528.87 151.368 528.64 151.155 528.477C147.625 525.743 144.377 530.94 142.203 532.587C135.45 537.695 127.655 533.393 126.392 525.564C126.347 525.304 126.193 525.163 125.936 525.134C123.484 524.879 121.352 523.928 119.525 522.28C119.31 522.084 119.105 522.094 118.91 522.317C116.946 524.578 115.026 529.533 111.402 528.651C106.539 527.458 101.994 527.976 97.7847 530.195C93.3664 532.522 87.234 537.715 86.9094 542.702C85.3857 566.249 89.0168 594.756 93.9435 619.356C95.7988 628.595 100.877 634.724 109.194 637.727C109.487 637.837 109.669 638.042 109.741 638.343C110.624 642.286 109.792 646.269 113.617 648.793C118.543 652.038 122.754 651.602 126.258 647.485C126.687 646.988 127.35 646.751 127.996 646.861C141.451 649.22 152.237 641.466 160.185 631.372C161.139 630.161 162.405 629.477 163.823 630.092C177.715 636.153 188.803 629.93 197.917 619.469C193.126 629.242 183.941 636.814 172.789 637.469C169.38 637.662 166.308 636.993 163.838 634.792C163.238 634.261 162.32 634.312 161.79 634.913C161.711 634.998 161.642 635.092 161.59 635.201C157.036 643.928 146.568 654.082 135.737 653.169C133.922 653.016 132.194 652.268 130.389 651.621C130.13 651.535 129.902 651.586 129.705 651.768C124.306 656.993 113.505 662.167 107.431 654.597C105.921 652.713 104.996 650.521 104.673 648.022C104.546 647.066 103.676 646.384 102.721 646.511C102.573 646.526 102.436 646.566 102.299 646.621C98.2571 648.224 90.4094 649.612 88.8905 643.512C79.8512 607.1 75.7982 570.134 76.7229 532.605C76.733 532.12 76.9192 531.536 76.9594 530.992C76.9795 530.72 77.0831 530.476 77.2792 530.278C86.0834 521.262 100.546 517.09 111.427 525.158C111.938 525.545 112.672 525.436 113.059 524.917C113.159 524.781 113.226 524.63 113.267 524.463C113.646 522.72 109.972 521.299 108.69 520.784C108.372 520.651 108.215 520.296 108.34 519.978C108.355 519.953 108.362 519.92 108.386 519.894C110.889 515.635 114.29 512.304 118.582 509.9C118.814 509.774 119.114 509.859 119.24 510.091C119.276 510.163 119.305 510.244 119.3 510.327C119.307 516.76 122.531 520.167 128.983 520.537C129.254 520.549 129.368 520.692 129.331 520.965C128.413 527.294 133.871 534.162 140.252 528.841C145.297 524.644 148.45 516.714 152.079 511.236C152.21 511.049 152.47 510.996 152.657 511.127C152.751 511.188 152.813 511.284 152.834 511.389C153.659 515.492 153.927 519.621 153.646 523.775C152.919 534.376 162.419 538.951 169.458 530.477Z" fill="#EC196F"/>
<path d="M197.918 619.469C188.804 629.93 177.715 636.153 163.824 630.092C162.406 629.477 161.14 630.161 160.186 631.372C152.238 641.466 141.452 649.22 127.997 646.861C127.35 646.751 126.688 646.988 126.259 647.485C122.755 651.601 118.544 652.038 113.617 648.793C109.793 646.269 110.625 642.286 109.741 638.342C109.67 638.042 109.487 637.837 109.195 637.727C100.878 634.724 95.7995 628.595 93.9442 619.356C89.0175 594.755 85.3864 566.249 86.9101 542.702C87.2347 537.715 93.3672 532.522 97.7854 530.194C101.995 527.975 106.539 527.458 111.402 528.651C115.026 529.533 116.946 524.578 118.911 522.317C119.106 522.094 119.311 522.084 119.525 522.28C121.353 523.928 123.485 524.879 125.937 525.134C126.193 525.163 126.348 525.304 126.393 525.564C127.656 533.393 135.451 537.694 142.203 532.587C144.377 530.94 147.625 525.742 151.156 528.477C151.369 528.64 151.536 528.87 151.613 529.121C154.447 537.846 166.031 542.01 169.458 530.477C172.846 522.487 171.822 515.206 166.378 508.633C166.143 508.357 166.21 508.189 166.569 508.148C167.591 508.026 168.556 508.112 169.465 508.398C178.022 511.094 187.922 514.902 196.644 510.967C196.885 510.857 197.124 510.863 197.367 510.975C201.691 513.105 204.271 520.453 205.005 524.708C205.116 525.335 205.688 525.777 206.326 525.722C219.183 524.609 227.727 532.811 229.315 545.103C229.338 545.25 229.237 545.378 229.099 545.401C229.041 545.403 228.984 545.406 228.933 545.375C222.969 542.426 217.609 543.237 212.868 547.798C212.664 547.996 212.578 548.28 212.641 548.556C212.806 549.28 213.234 549.646 213.933 549.646C214.237 549.648 214.503 549.545 214.732 549.337C223.443 541.311 233.864 549.063 232.987 559.778C232.966 560.034 233.117 560.273 233.36 560.369C236.379 561.509 238.447 563.359 239.561 565.92C245.843 580.366 240.564 599.184 224.478 603.777C223.359 604.1 222.289 604.586 221.718 605.722C217.932 613.287 208.963 621.07 199.74 618.907C199.25 618.79 198.642 618.975 197.918 619.469ZM173.757 528.755C174.094 529.101 174.653 529.108 175.006 528.762C175.022 528.745 175.038 528.736 175.045 528.719C178.495 524.835 182.806 522.669 187.969 522.221C188.559 522.169 189.003 521.655 188.95 521.057C188.916 520.681 188.687 520.347 188.35 520.182C184.221 518.174 175.816 524.139 173.122 527.125C172.856 527.417 172.869 527.86 173.144 528.135L173.757 528.755ZM210.503 530.333C216.168 530.404 218.274 533.082 221.63 537.189C222.013 537.648 222.69 537.706 223.148 537.323C223.52 537.01 223.635 536.479 223.425 536.037C221.208 531.523 215.964 527.283 210.523 528.122C210.262 528.167 210.058 528.374 210.029 528.638L209.904 529.654C209.862 529.985 210.106 530.286 210.437 530.328C210.462 530.327 210.478 530.326 210.503 530.325L210.503 530.333ZM177.855 556.714C184.546 560.96 190.765 553.224 196.971 551.346C200.244 550.354 204.535 549.709 207.012 548.032C210.859 545.435 211.538 540.654 209.088 536.768C205.954 531.804 197.963 530.133 192.795 531.378C184.776 533.299 175.266 540.771 174.64 550.012C174.443 552.996 175.51 555.23 177.855 556.714ZM121.045 549.924C121.544 550.048 122.077 549.851 122.378 549.434C125.669 544.801 130.209 542.435 135.998 542.352C136.252 542.34 136.427 542.225 136.531 541.99L136.798 541.378C137.028 540.85 136.794 540.228 136.257 539.99C136.114 539.931 135.957 539.897 135.809 539.904C129.283 540.046 124.189 542.685 120.52 547.829C119.98 548.577 120.015 549.676 121.045 549.924ZM122.869 570.734C122.778 577.188 128.086 580.686 133.828 577.327C139.083 574.27 142.516 572.49 144.127 571.979C148.338 570.664 155.689 571.83 159.78 569.526C163.695 567.321 164.393 562.432 161.718 558.836C157.141 552.699 147.921 551.283 140.929 553.23C133.629 555.257 122.996 562.059 122.869 570.734ZM218.385 552.428C222.06 551.581 225.167 551.427 227.268 555.059C227.581 555.603 228.272 555.793 228.817 555.488C229.193 555.273 229.42 554.86 229.383 554.418C229.346 553.819 229.004 553.17 228.371 552.477C225.425 549.238 221.867 548.526 217.696 550.34C217.132 550.58 216.883 551.225 217.123 551.789C217.335 552.28 217.865 552.543 218.385 552.428ZM228.102 557.239L228.319 562.208C228.33 562.454 228.536 562.641 228.782 562.63L229.126 562.614C230.028 562.571 230.729 561.741 230.691 560.749C230.691 560.749 230.691 560.749 230.69 560.741L230.584 558.478C230.537 557.486 229.77 556.725 228.868 556.759L228.524 556.775C228.278 556.787 228.09 556.993 228.102 557.239ZM185.608 574.468C184.063 579.89 180.804 578.038 176.79 578.991C175.01 579.411 174.526 580.297 175.32 581.631L175.422 582.415C175.46 582.701 175.617 582.899 175.885 583.002C180.177 584.624 183.673 584.017 186.374 581.17C191.362 575.923 186.454 567.477 179.607 569.351C178.723 569.598 178.459 570.104 178.808 570.884C179.019 571.351 179.517 571.623 180.023 571.559C182.613 571.24 184.475 572.212 185.608 574.468ZM213.663 570.686C217.871 569.658 222.244 570.373 222.458 575.646C222.474 575.991 222.656 576.179 222.994 576.205L224.083 576.301C224.421 576.327 224.603 576.178 224.645 575.848C225.435 569.048 218.707 566.628 213.187 568.424C212.839 568.539 212.694 568.775 212.761 569.142L212.96 570.234C213.016 570.543 213.321 570.751 213.631 570.695C213.639 570.695 213.656 570.694 213.664 570.694L213.663 570.686ZM236.61 569.394C238.633 579.571 236.386 588.254 228.784 595.399C228.281 595.874 228.261 596.672 228.744 597.175C229.021 597.466 229.422 597.604 229.814 597.552C230.238 597.491 230.629 597.243 230.986 596.799C237.889 588.225 241.407 581.963 239.284 570.345C239.074 569.197 238.5 568.18 237.2 568.479C236.785 568.573 236.525 568.979 236.61 569.394ZM178.812 576.044L182.951 574.765C183.243 574.678 183.409 574.366 183.321 574.066L183.292 573.977C182.973 572.965 181.798 572.428 180.656 572.778L179.587 573.107C178.444 573.457 177.774 574.573 178.084 575.586L178.113 575.666C178.2 575.958 178.512 576.124 178.812 576.036L178.812 576.044ZM207.862 572.264C207.705 572.066 207.555 572.024 207.413 572.138C196.355 580.767 185.506 588.581 172.404 592.853C167.88 594.331 163.356 595.644 158.833 596.785C158.281 596.926 157.954 597.484 158.095 598.028C158.095 598.028 158.095 598.044 158.096 598.052C158.331 598.855 158.797 599.162 159.494 598.965C159.746 598.895 159.9 598.855 159.949 598.845C179.091 595.111 193.544 586.166 208.593 574.35C209.092 573.949 209.288 573.225 209.01 572.72C208.848 572.424 208.552 572.257 208.217 572.289L207.938 572.302C207.938 572.302 207.88 572.288 207.854 572.265L207.862 572.264ZM165.405 610.914C185.434 610.31 204.626 600.814 216.06 584.106C217.075 582.621 217.83 581.016 218.332 579.283C219.837 574.077 213.667 573.208 211.047 576.043C197.731 590.472 180.861 598.158 162.065 602.78C159.928 603.299 156.753 604.451 157.041 606.919C157.413 610.106 162.746 610.997 165.405 610.914ZM111.303 590.578C106.784 598.646 107.932 608.395 117.247 612.518C118.329 613.001 119.023 612.73 119.313 611.722C119.467 611.164 119.177 610.578 118.641 610.357C110.398 607.013 109.54 598.714 113.493 591.724C116.315 586.736 121.032 584.115 127.635 583.862C128.168 583.837 128.559 583.778 128.817 583.667C129.357 583.436 129.62 583.087 129.598 582.62C129.564 581.907 128.955 581.36 128.241 581.377C120.249 581.613 114.6 584.68 111.303 590.578ZM127.749 588.22C128.856 588.168 129.95 588.552 131.065 588.664C131.684 588.717 132.23 588.273 132.291 587.654C132.335 587.183 132.084 586.743 131.664 586.541C125.736 583.68 119.403 587.733 116.823 593.524C116.689 593.826 116.743 594.086 116.983 594.313L117.344 594.641C117.799 595.064 118.512 595.022 118.935 594.567C119.021 594.472 119.089 594.362 119.141 594.245C120.763 590.463 123.635 588.454 127.749 588.22ZM163.441 618.089C172.601 620.321 181.611 619.38 190.481 615.258C201.78 610.019 217.098 599.209 221.714 587.103L222.794 584.899C223.056 584.345 222.819 583.674 222.264 583.412C221.777 583.18 221.184 583.332 220.876 583.773C209.677 599.878 191.528 612.694 171.707 615.285C168.685 615.682 165.606 615.382 162.404 615.262C162.108 615.251 161.809 615.355 161.597 615.563C160.604 616.48 161.219 617.322 163.441 618.089ZM135.796 589.141C135.426 588.616 134.704 588.477 134.171 588.847L134.036 588.944C133.511 589.314 133.373 590.035 133.743 590.568L136.466 594.491C136.836 595.016 137.557 595.155 138.09 594.785L138.225 594.688C138.75 594.318 138.889 593.597 138.519 593.064L135.796 589.141ZM150.319 608.122C150.562 606.138 151.356 604.482 152.698 603.154C152.981 602.869 153.152 602.492 153.166 602.096C153.199 601.208 152.874 600.763 152.192 600.762C151.855 600.769 151.525 600.916 151.202 601.203C148.048 604.038 146.453 608.919 149.992 612.196C150.456 612.626 151.186 612.6 151.617 612.136C151.82 611.913 151.929 611.62 151.923 611.317C151.903 610.718 151.608 610.214 151.038 609.797C150.511 609.411 150.234 608.775 150.319 608.122Z" fill="#FE82B4"/>
<path d="M164.457 528.231C163.903 528.166 163.502 527.667 163.566 527.114C163.564 527.073 163.578 527.023 163.593 526.981C164.883 521.916 164.063 517.222 161.125 512.915C161.045 512.795 161.07 512.63 161.19 512.55C161.206 512.541 161.23 512.523 161.246 512.523C161.383 512.475 161.444 512.366 161.428 512.194C161.378 511.662 161.83 511.304 162.425 511.391C162.831 511.454 163.213 511.707 163.426 512.051C166.468 516.978 167.327 521.974 166.004 527.057C165.795 527.864 165.275 528.324 164.457 528.231Z" fill="white"/>
<path d="M173.755 528.755L173.143 528.135C172.867 527.86 172.854 527.417 173.12 527.125C175.815 524.139 184.22 518.174 188.349 520.182C188.887 520.444 189.106 521.083 188.844 521.621C188.679 521.966 188.345 522.195 187.968 522.221C182.804 522.669 178.493 524.835 175.044 528.72C174.716 529.088 174.159 529.123 173.798 528.795C173.781 528.779 173.773 528.771 173.755 528.755Z" fill="black"/>
<path d="M210.503 530.333C210.166 530.333 209.899 530.058 209.899 529.721C209.898 529.696 209.898 529.68 209.896 529.655L210.021 528.639C210.05 528.374 210.254 528.167 210.515 528.122C215.956 527.283 221.2 531.524 223.417 536.037C223.672 536.576 223.439 537.211 222.909 537.466C222.467 537.676 221.936 537.561 221.622 537.19C218.266 533.083 216.16 530.405 210.495 530.334L210.503 530.333Z" fill="white"/>
<path d="M177.855 556.714C175.51 555.23 174.443 552.996 174.64 550.012C175.266 540.772 184.776 533.3 192.795 531.378C197.963 530.133 205.954 531.804 209.088 536.768C211.538 540.654 210.859 545.436 207.012 548.032C204.535 549.709 200.244 550.355 196.971 551.347C190.765 553.224 184.546 560.96 177.855 556.714ZM189.826 548.288C192.253 548.355 193.664 547.245 194.041 544.952C194.099 544.62 194.028 544.32 193.842 544.041C192.588 542.177 190.955 541.884 188.936 543.154C188.784 543.251 188.593 543.211 188.496 543.059C188.443 542.98 188.43 542.873 188.458 542.782C191.429 533.258 205.768 534.319 207.209 543.824C207.266 544.158 207.365 544.17 207.507 543.867C211.045 536.635 199.755 532.596 194.694 533.656C187.15 535.226 177.325 541.735 177.165 550.066C177.132 551.801 177.607 553.184 178.6 554.206C182.002 557.711 186.919 553.922 190.69 551.288C190.905 551.138 190.937 550.948 190.787 550.733L189.494 548.912C189.186 548.483 189.299 548.272 189.826 548.288Z" fill="black"/>
<path d="M189.492 548.912L190.785 550.733C190.935 550.948 190.903 551.138 190.688 551.288C186.917 553.922 182 557.711 178.598 554.206C177.605 553.184 177.13 551.802 177.163 550.066C177.323 541.735 187.148 535.226 194.692 533.656C199.753 532.596 211.044 536.635 207.505 543.868C207.363 544.17 207.264 544.158 207.207 543.824C205.766 534.319 191.427 533.258 188.456 542.782C188.398 542.949 188.489 543.133 188.656 543.191C188.748 543.22 188.854 543.207 188.934 543.154C190.953 541.884 192.586 542.177 193.84 544.041C194.026 544.32 194.097 544.62 194.039 544.952C193.662 547.246 192.251 548.355 189.824 548.289C189.298 548.272 189.184 548.483 189.492 548.912Z" fill="white"/>
<path d="M121.045 549.924C120.014 549.677 119.979 548.577 120.519 547.829C124.189 542.685 129.282 540.047 135.808 539.905C136.391 539.885 136.873 540.348 136.884 540.931C136.891 541.086 136.857 541.244 136.798 541.378L136.531 541.991C136.427 542.226 136.252 542.349 135.997 542.353C130.208 542.435 125.668 544.801 122.377 549.434C122.076 549.851 121.543 550.048 121.045 549.924Z" fill="black"/>
<path d="M133.827 577.327C128.085 580.686 122.777 577.189 122.868 570.734C122.995 562.059 133.629 555.258 140.929 553.23C147.92 551.283 157.14 552.699 161.718 558.836C164.393 562.432 163.694 567.321 159.779 569.527C155.689 571.83 148.337 570.664 144.126 571.979C142.515 572.49 139.082 574.27 133.827 577.327ZM139.737 568.792C145.442 569.378 145.113 561.842 140.158 563.061C139.825 563.151 139.729 563.032 139.87 562.713C143.857 553.997 159.241 557.021 157.387 567.404C157.322 567.76 157.458 567.869 157.797 567.73C161.204 566.263 161.661 562.881 159.518 560.122C156.117 555.746 149.253 554.286 143.979 555.026C138.175 555.841 133.054 558.76 128.614 563.784C126.078 566.656 124.017 570.877 126.419 574.437C129.457 578.929 136.843 572.798 139.755 570.935C140.002 570.776 140.058 570.56 139.938 570.286L139.436 569.208C139.298 568.894 139.398 568.758 139.737 568.792Z" fill="black"/>
<path d="M227.267 555.059C225.166 551.427 222.059 551.582 218.385 552.428C217.791 552.563 217.198 552.188 217.055 551.595C216.932 551.075 217.204 550.552 217.695 550.34C221.866 548.526 225.425 549.238 228.37 552.477C229.003 553.17 229.346 553.819 229.382 554.418C229.428 555.04 228.96 555.588 228.338 555.625C227.903 555.654 227.49 555.435 227.267 555.059Z" fill="white"/>
<path d="M139.436 569.208L139.939 570.286C140.058 570.559 140.003 570.776 139.755 570.935C136.844 572.798 129.457 578.929 126.42 574.437C124.017 570.877 126.079 566.656 128.614 563.784C133.054 558.76 138.176 555.841 143.98 555.026C149.253 554.286 156.117 555.746 159.519 560.122C161.661 562.881 161.204 566.263 157.797 567.73C157.459 567.869 157.322 567.76 157.387 567.404C159.242 557.021 143.857 553.997 139.871 562.713C139.729 563.032 139.825 563.151 140.158 563.061C145.113 561.842 145.442 569.378 139.737 568.791C139.398 568.758 139.298 568.894 139.436 569.208Z" fill="white"/>
<path d="M228.1 557.239C228.088 556.993 228.276 556.787 228.522 556.775L228.866 556.759C229.768 556.717 230.535 557.486 230.582 558.478L230.688 560.741C230.735 561.733 230.035 562.571 229.133 562.613L228.78 562.63C228.534 562.642 228.328 562.454 228.317 562.208L228.1 557.239Z" fill="white"/>
<path d="M175.32 581.632C175.809 580.853 176.365 580.613 177.284 580.932C181.385 582.349 187.762 579.733 185.608 574.468C184.475 572.213 182.614 571.24 180.024 571.559C179.517 571.624 179.02 571.351 178.809 570.885C178.46 570.104 178.724 569.599 179.608 569.352C186.455 567.477 191.363 575.924 186.375 581.17C183.674 584.017 180.177 584.625 175.886 583.002C175.618 582.9 175.461 582.702 175.423 582.416L175.32 581.632Z" fill="black"/>
<path d="M222.459 575.646C222.244 570.373 217.872 569.658 213.664 570.686C213.355 570.766 213.042 570.575 212.97 570.266C212.97 570.258 212.969 570.242 212.969 570.233L212.77 569.142C212.703 568.775 212.848 568.538 213.196 568.423C218.716 566.628 225.444 569.048 224.654 575.847C224.612 576.178 224.43 576.326 224.092 576.301L223.003 576.204C222.665 576.179 222.483 575.99 222.467 575.646L222.459 575.646Z" fill="black"/>
<path d="M228.782 595.399C236.384 588.255 238.631 579.571 236.608 569.394C236.523 568.979 236.783 568.573 237.198 568.479C238.499 568.18 239.072 569.197 239.282 570.345C241.405 581.963 237.887 588.225 230.985 596.799C230.627 597.243 230.236 597.491 229.812 597.552C229.126 597.642 228.495 597.154 228.405 596.468C228.354 596.068 228.491 595.675 228.782 595.399Z" fill="white"/>
<path d="M178.814 576.044C178.523 576.132 178.211 575.974 178.115 575.674L178.087 575.594C177.768 574.573 178.439 573.465 179.58 573.108L180.65 572.778C181.792 572.429 182.967 572.965 183.286 573.977L183.315 574.066C183.402 574.358 183.244 574.669 182.945 574.766L178.806 576.045L178.814 576.044Z" fill="white"/>
<path d="M207.948 572.302L208.227 572.289C208.792 572.246 209.2 572.728 209.14 573.363C209.1 573.743 208.904 574.114 208.603 574.35C193.554 586.166 179.101 595.111 159.959 598.844C159.91 598.855 159.756 598.895 159.504 598.964C158.807 599.161 158.34 598.855 158.105 598.052C157.949 597.509 158.267 596.944 158.811 596.795C158.811 596.795 158.827 596.794 158.835 596.794C163.358 595.653 167.882 594.339 172.406 592.861C185.508 588.59 196.357 580.775 207.415 572.146C207.557 572.033 207.707 572.075 207.864 572.273C207.89 572.296 207.916 572.312 207.948 572.31L207.948 572.302Z" fill="black"/>
<path d="M185.608 574.468C187.762 579.733 181.385 582.349 177.284 580.931C176.365 580.613 175.809 580.853 175.32 581.632C174.526 580.297 175.01 579.411 176.79 578.991C180.804 578.038 184.063 579.89 185.608 574.468Z" fill="#EC196F"/>
<path d="M165.404 610.914C162.746 610.998 157.412 610.106 157.041 606.919C156.752 604.451 159.927 603.299 162.064 602.78C180.861 598.158 197.731 590.472 211.047 576.043C213.666 573.208 219.837 574.077 218.331 579.283C217.829 581.016 217.075 582.621 216.06 584.106C204.626 600.814 185.433 610.31 165.404 610.914ZM160.313 607.48C163.131 608.712 167.201 608.759 170.222 608.354C187.755 606.035 204.18 597.269 214.154 582.38C215.084 580.997 215.721 579.529 216.052 577.993C216.159 577.479 215.831 576.968 215.316 576.853C215.142 576.82 214.97 576.828 214.8 576.877C211.081 578.177 206.352 584.217 203.253 586.639C190.327 596.761 176.617 601.39 160.932 605.61C160.761 605.659 160.6 605.733 160.466 605.846C160.253 606.028 160.118 606.141 160.071 606.185C159.53 606.728 159.607 607.16 160.312 607.472L160.313 607.48Z" fill="black"/>
<path d="M170.219 608.354C167.198 608.759 163.129 608.712 160.31 607.48C159.605 607.168 159.527 606.736 160.069 606.193C160.116 606.15 160.25 606.037 160.464 605.854C160.598 605.741 160.759 605.668 160.929 605.619C176.614 601.398 190.325 596.769 203.251 586.647C206.35 584.226 211.079 578.186 214.798 576.886C215.299 576.714 215.845 576.976 216.017 577.478C216.074 577.639 216.082 577.819 216.041 577.994C215.71 579.53 215.073 580.998 214.143 582.381C204.169 597.27 187.744 606.036 170.211 608.355L170.219 608.354Z" fill="#EC196F"/>
<path d="M117.25 612.518C107.936 608.395 106.788 598.646 111.306 590.578C114.603 584.68 120.252 581.613 128.245 581.377C128.959 581.36 129.559 581.907 129.601 582.62C129.623 583.087 129.36 583.436 128.82 583.667C128.563 583.778 128.171 583.846 127.638 583.862C121.035 584.115 116.319 586.736 113.496 591.724C109.543 598.714 110.402 607.013 118.644 610.357C119.18 610.578 119.471 611.164 119.316 611.722C119.027 612.73 118.333 613.001 117.25 612.518Z" fill="black"/>
<path d="M127.75 588.22C123.636 588.455 120.764 590.463 119.142 594.245C118.898 594.823 118.228 595.085 117.658 594.849C117.541 594.797 117.439 594.728 117.345 594.642L116.984 594.313C116.743 594.086 116.69 593.826 116.824 593.524C119.403 587.733 125.737 583.681 131.664 586.541C132.219 586.803 132.456 587.474 132.186 588.029C131.984 588.449 131.536 588.708 131.065 588.665C129.951 588.553 128.856 588.16 127.75 588.22Z" fill="white"/>
<path d="M221.713 587.103C213.189 598.226 202.894 606.656 190.838 612.39C182.6 616.318 173.462 618.218 163.44 618.089C161.218 617.322 160.603 616.48 161.595 615.563C161.808 615.356 162.107 615.251 162.403 615.262C165.605 615.383 168.684 615.682 171.706 615.285C191.526 612.695 209.676 599.879 220.875 583.774C221.229 583.272 221.93 583.149 222.432 583.511C222.874 583.828 223.025 584.412 222.793 584.9L221.713 587.103Z" fill="black"/>
<path d="M134.177 588.849L134.043 588.943C133.514 589.31 133.383 590.036 133.75 590.565L136.476 594.488C136.843 595.017 137.569 595.148 138.098 594.78L138.233 594.687C138.762 594.32 138.892 593.593 138.525 593.065L135.8 589.141C135.432 588.613 134.706 588.482 134.177 588.849Z" fill="white"/>
<path d="M221.712 587.103C217.096 599.209 201.777 610.019 190.479 615.258C181.609 619.38 172.598 620.321 163.438 618.089C173.461 618.218 182.599 616.318 190.837 612.39C202.893 606.655 213.187 598.226 221.712 587.103Z" fill="#EC196F"/>
<path d="M150.319 608.121C150.235 608.775 150.511 609.411 151.039 609.797C151.609 610.214 151.904 610.718 151.924 611.316C151.945 611.948 151.444 612.481 150.813 612.503C150.509 612.517 150.216 612.399 149.993 612.196C146.454 608.919 148.049 604.037 151.202 601.202C151.526 600.916 151.856 600.769 152.192 600.762C152.874 600.762 153.199 601.207 153.167 602.096C153.153 602.491 152.982 602.869 152.699 603.154C151.356 604.482 150.563 606.138 150.319 608.121Z" fill="black"/>
<path d="M229.266 616.493C227.738 617.724 226.118 617.175 224.734 618.325C217.103 624.665 233.853 629.647 237.219 631.173C252.91 638.284 266.16 651.137 275.499 665.415C276.872 667.52 279.063 668.691 282.073 668.919C277.054 674.381 273.179 666.921 270.969 663.442C269.47 661.088 268.195 659.316 267.154 658.132C249.721 638.425 225.16 624.936 198.72 624.099C198.374 624.09 198.293 623.938 198.485 623.658L199.645 621.927C199.822 621.672 200.063 621.57 200.369 621.614C206.866 622.607 213.42 619.374 218.05 614.917C218.254 614.718 218.496 614.624 218.784 614.627C222.363 614.722 225.852 615.347 229.266 616.493Z" fill="#FB7B04"/>
<path d="M229.262 616.493C245.156 620.562 259.84 628.624 269.704 642.014C273.347 646.97 276.523 651.078 282.645 647.947C287.019 645.72 291.063 639.269 295.652 638.479C298.912 637.923 300.912 640.088 300.113 643.38C299.075 647.693 295.39 651.449 292.714 654.837C289.216 659.257 285.909 664.441 282.069 668.919C279.059 668.691 276.867 667.52 275.495 665.415C266.156 651.137 252.906 638.284 237.215 631.173C233.848 629.647 217.099 624.665 224.73 618.325C226.114 617.175 227.734 617.724 229.262 616.493Z" fill="#FFBF00"/>
<path d="M195.984 738.919C180.423 753.84 156.588 749.158 141.105 736.508C129.595 727.098 120.298 716.524 113.214 704.769C113.062 704.522 113.11 704.322 113.358 704.163C127.845 694.912 143.566 673.073 143.141 655.279C143.128 655.008 143.298 654.77 143.548 654.676C148.519 652.906 152.816 650.1 156.44 646.257C156.596 646.093 156.843 646.09 157.005 646.23C157.048 646.269 157.084 646.325 157.102 646.373C162.323 660.08 168.737 673.14 176.362 685.543C180.925 692.962 186.996 700.984 192.449 708.608C198.878 717.616 206.276 729.043 195.983 738.91L195.984 738.919Z" fill="#FB7B04"/>
<path d="M102.474 649.661C104.334 658.465 110.686 661.815 119.269 660.5C119.546 660.462 119.659 660.58 119.606 660.854C117.601 671.178 111.995 678.844 102.774 683.871C102.606 683.961 102.397 683.888 102.307 683.728C102.307 683.72 102.298 683.712 102.289 683.696C97.7875 672.7 93.9654 661.474 90.8224 650.011C90.7523 649.743 90.8461 649.64 91.1127 649.718C94.7365 650.772 98.3377 650.644 101.908 649.343C102.126 649.259 102.379 649.378 102.455 649.597C102.456 649.621 102.465 649.637 102.474 649.661Z" fill="#FB7B04"/>
<path d="M109.743 698.918C118.615 691.878 125.384 685.718 130.986 675.693C132.517 672.959 136.323 666.519 132.654 664.325C128.757 661.994 124.784 662.788 120.728 666.709L122.505 659.921C122.568 659.696 122.7 659.525 122.899 659.401L130.61 654.733C130.809 654.617 131.014 654.599 131.231 654.68C134.15 655.759 137.153 656.02 140.249 655.456C140.55 655.401 140.705 655.533 140.702 655.837C140.623 671.461 125.715 694.684 111.884 701.824C111.619 701.96 111.419 701.904 111.267 701.64L109.743 698.918Z" fill="#FB7B04"/>
<path d="M109.741 698.917L103.68 686.737C103.553 686.48 103.618 686.28 103.866 686.145C112.151 681.639 117.771 675.155 120.727 666.709C124.783 662.788 128.755 661.993 132.653 664.325C136.322 666.519 132.516 672.959 130.984 675.693C125.383 685.718 118.614 691.878 109.741 698.917Z" fill="#FFBF00"/>
<path d="M132.729 770.221C139.88 781.126 143.615 786.644 151.418 795.136C136.569 796.351 116.02 788.146 132.729 770.221Z" fill="#FB7B04"/>
</svg>
