<svg width="1920" height="3778" viewBox="0 0 1920 3778" fill="none" xmlns="http://www.w3.org/2000/svg">
<g opacity="0.06" clip-path="url(#clip0_48_3)">
<path d="M-452 0H-212.687C-187.664 19.7025 -146.643 48.2067 -118.957 49.1095C-105.238 49.5609 -92.9858 45.2051 -91.3612 30.4677C-90.2555 20.4247 -96.7314 9.70454 -102.846 1.69265C-103.162 1.28642 -103.132 0.910271 -102.756 0.564217L-102.124 0H56.9514C81.4106 57.3245 48.7155 120.607 -3.36194 148.096C-74.7767 185.786 -149.373 136.789 -222.818 138.91C-278.438 140.535 -323.589 185.063 -338.729 235.82C-352.832 283.124 -338.12 323.974 -316.594 365.681C-291.864 413.594 -266.254 460.605 -246.443 511.542C-238.726 531.335 -231.912 559.185 -238.816 579.022C-250.414 612.402 -290.172 615.9 -317.632 603.058C-367.634 579.632 -414.228 542.032 -452 502.018V391.431L-451.143 391.138C-450.556 390.958 -450.06 391.1 -449.653 391.567C-438.958 403.754 -426.172 412.819 -411.295 418.762C-379.683 431.378 -403.014 374.843 -406.443 366.786C-419.079 337.146 -434.265 308.875 -452 281.973V0Z" fill="white"/>
<path d="M118.438 0H364.384C380.676 18.7772 385.03 48.9064 365.919 66.7131C348.86 82.5789 325.845 75.7631 302.356 70.2338C297.347 69.0602 269.142 63.418 275.077 76.2145C277.965 82.4585 282.771 89.1313 289.495 96.2329C329.456 138.459 370.07 177.616 399.201 228.666C415.131 256.629 428.759 307.047 393.153 325.26C376.23 333.926 357.209 330.338 337.466 327.427C325.386 325.636 317.218 325.17 312.961 326.027C286.607 331.286 294.03 368.299 300.371 385.428C322.709 445.777 367.814 500.213 414.679 544.244C430.7 559.297 458.295 580.76 480.972 578.368C496.925 576.675 494.172 553.949 491.555 543.703C481.04 502.176 464.546 447.921 494.172 408.967C522.738 371.368 584.292 391.567 619.672 410.886C652.646 428.88 684.107 452.329 714.057 481.232C754.83 520.57 792.376 562.863 826.064 608.43C852.374 644.02 880.285 685.073 907.024 714.751C922.209 731.587 1013.23 817.325 1033.92 770.744C1048.34 738.245 1058.61 710.982 1096.61 701.864C1125.28 695.003 1158.48 705.994 1182.39 684.802C1196.16 672.637 1188.69 652.8 1182.05 638.83C1136.81 543.477 1073.03 458.573 1041.35 353.719C1028.67 311.719 1027.31 252.07 1072.08 227.741C1136.45 192.759 1223.03 255.952 1270.3 295.537C1310.49 329.187 1351.69 369.359 1395.04 406.056C1408.15 417.16 1449.75 450.246 1457.9 422.983C1466.47 394.298 1441.31 355.344 1423.89 330.225C1408.36 307.852 1392.69 285.577 1376.89 263.399C1363.74 244.916 1348.1 208.738 1375.68 193.639C1391.15 185.176 1411.19 189.171 1427.17 196.167C1442.13 202.735 1468.41 212.507 1474.87 198.243C1488.07 169.062 1396.39 91.155 1376.65 71.2719C1357.62 52.1563 1344.97 22.6138 1367.91 0H1613.86C1624.33 12.473 1628.65 26.8868 1626.83 43.2416C1624.06 68.0446 1600.59 80.6831 1578.34 75.9888C1561.33 72.3778 1543.73 66.8033 1526.15 68.6088C1525.58 68.6661 1525.03 68.8592 1524.54 69.1721C1524.05 69.4851 1523.65 69.909 1523.36 70.4091C1523.07 70.9092 1522.9 71.4712 1522.87 72.0488C1522.83 72.6265 1522.94 73.2033 1523.18 73.7319C1526.92 82.1425 1532.25 89.9438 1539.17 97.1357C1582.95 142.634 1629.02 186.079 1655.63 244.69C1670.83 278.137 1671.31 324.854 1624.08 330.315C1608.31 332.144 1589.54 327.788 1573.65 325.892C1551.65 323.251 1543.48 335.619 1543.69 354.915C1543.76 361.836 1544.07 366.388 1544.61 368.569C1559.93 429.911 1608.04 489.312 1653.12 534.404C1664.31 545.598 1676.48 555.604 1689.61 564.421C1713.19 580.241 1753.06 592.541 1740.33 543.183C1729.55 501.341 1711.31 435.44 1750.76 401.429C1793.78 364.326 1875.96 410.953 1913.78 439.525C1964.21 477.644 2006.88 523.481 2046.5 572.455C2075.59 608.43 2101.17 647.045 2129.54 683.561C2140.32 697.448 2147.72 706.611 2151.74 711.049C2167.51 728.405 2257.04 815.994 2280.92 772.233C2286.96 761.197 2292.2 745.512 2298.58 735.378C2314.97 709.394 2339.77 697.523 2373 699.765L2372.91 1054.79C2360.45 1047.41 2348.22 1039.63 2336.22 1031.48C2331.87 1028.52 2309.82 1013.79 2307.54 1024.6C2306.37 1030.06 2307.66 1036.78 2311.42 1044.75C2318.85 1060.55 2331.84 1086.32 2330.65 1101.94C2328.84 1125.5 2313.03 1138.46 2290.44 1140.53C2271.17 1142.29 2250.79 1133.47 2233.87 1123.7C2200.43 1104.36 2173.35 1078.83 2152.62 1047.1C2129.11 1011.08 2122.83 969.303 2166.11 944.049C2174.17 939.339 2188.39 931.786 2208.76 921.39C2216.22 917.598 2220.55 911.881 2221.75 904.237C2229.52 855.015 2090.14 780.651 2048.24 740.592C2028.74 721.95 2010.15 691.798 1996.03 674.398C1974.86 648.286 1908.97 586.335 1871.09 592.09C1836.18 597.393 1856.04 653.522 1864.34 671.915C1871.05 686.796 1878.72 701.157 1887.33 714.999C1923.56 773.196 1965.38 827.045 2012.81 876.546C2024.37 888.597 2039.62 898.415 2048.85 907.036C2061.99 919.328 2072.36 933.629 2079.94 949.939C2093.68 979.482 2087.16 1017.08 2055.3 1030.24C2009.16 1049.31 1942.35 983.521 1915.95 952.264C1872.8 901.191 1834.33 836.306 1803.98 785.82C1791.21 764.575 1776.27 745.858 1759.15 729.669C1740.85 712.381 1709.17 696.605 1699.99 734.589C1697.16 746.234 1694.1 760.896 1690.83 778.575C1671.6 882.188 1572.37 750.184 1552.1 724.591C1505.33 665.506 1459.28 605.112 1409.07 548.938C1390.1 527.709 1369.05 508.887 1345.91 492.472C1325.36 477.892 1271.9 457.874 1263.04 496.714C1258.03 518.621 1259.04 540.234 1266.08 561.554C1285.53 620.549 1323.01 677.648 1361.39 726.012C1399.73 774.309 1436.01 820.462 1466.86 853.841C1502.96 892.908 1539.63 933.238 1569.91 977.044C1586.26 1000.72 1605.6 1047.32 1568.87 1064.66C1548.58 1074.22 1501.36 1067.86 1499.24 1099.68C1496.8 1136.15 1542.83 1171.36 1568.33 1190.68C1584.47 1202.93 1598.57 1217.26 1610.63 1233.67C1624.56 1252.65 1635.63 1287.97 1621.08 1309.26C1603.95 1334.28 1575.86 1325.59 1551.06 1319.93C1544.79 1318.49 1518.39 1313.79 1524.01 1325.89C1527.74 1333.95 1534.93 1343.33 1545.58 1354.01C1583.71 1392.24 1691.62 1497.3 1659.33 1558.37C1641.61 1591.91 1599.06 1577.1 1570.4 1575.41C1530.69 1573.04 1544.54 1624.34 1553.19 1644.33C1565.82 1673.52 1581.09 1699.6 1598.99 1722.58C1624.1 1754.81 1660.75 1798.95 1702.51 1821.5C1716.57 1829.08 1743.58 1835.83 1742.5 1809.2C1741.59 1787.15 1732.79 1764.38 1728.53 1741.36C1721.35 1702.47 1730.56 1646.45 1777.99 1638.28C1822.91 1630.54 1881.65 1664.67 1916.96 1691.82C1970.69 1733.14 2009.97 1778.57 2056.95 1833.64C2087.34 1869.25 2115.37 1907.12 2144 1944.16C2154.04 1957.11 2165.91 1971.62 2175.16 1981.37C2191.38 1998.5 2263.84 2063.09 2282.41 2019.47C2288.52 2005.07 2295.11 1988.08 2304.45 1976.79C2321.33 1956.39 2344.18 1947.29 2373 1949.51V2269.98L2372.21 2270.5C2371.85 2270.73 2371.5 2270.71 2371.17 2270.46C2350.26 2253.82 2311.02 2226.58 2283.94 2225.73C2270.97 2225.32 2264.45 2235.18 2265.1 2247.46C2265.87 2261.7 2272.07 2268.52 2282.5 2279.84C2302.92 2302.05 2332.86 2325.3 2362.21 2333.99C2365.87 2335.07 2369.47 2336.3 2373 2337.69V2442.63C2356.5 2438.48 2334.69 2434.09 2307.56 2429.48C2232.2 2416.63 2170.24 2463.24 2155.03 2537.69C2144.13 2590.93 2173.58 2642.14 2197.86 2687.21C2215.11 2719.23 2230.87 2751.95 2245.13 2785.38C2254.31 2806.91 2264.22 2835.58 2260.65 2858.08C2256.68 2883.04 2233.58 2899.51 2208.92 2898.39C2167.42 2896.47 2119.45 2855.23 2087.09 2831.11C2046.34 2800.75 2011.53 2765.86 1985.35 2722.96C1979.53 2713.4 1966.73 2691.24 1946.95 2656.47C1937.74 2640.27 1893.45 2567.08 1868.9 2604.16C1858.36 2620.09 1849.83 2636.99 1829.91 2641.67C1783.45 2652.59 1732.52 2592.76 1713.5 2557.71C1704.63 2541.35 1698.75 2518.01 1712.49 2502.53C1721.76 2492.04 1738.21 2491.92 1747.12 2481.25C1760.3 2465.47 1740.24 2436.88 1729.34 2423.16C1702.45 2389.26 1681.46 2366.1 1672.66 2328.44C1672.41 2327.32 1671.47 2320.57 1669.86 2308.19C1664.22 2264.97 1625.44 2231.28 1599.62 2199.18C1584.75 2180.68 1566.18 2160.61 1559.48 2137.44C1553.86 2118 1562.93 2103.36 1582.72 2103.04C1600.37 2102.77 1616.82 2113.45 1630.76 2124.91C1653.44 2143.55 1672.59 2163.86 1702.99 2169.8C1723.07 2173.73 1742.9 2175.74 1761.36 2186.5C1786.02 2200.85 1812.38 2222.68 1833.63 2243.28C1853.49 2262.58 1868.97 2276.82 1890.81 2283.82C1937.38 2298.71 1949.11 2250.82 1927.36 2220.76C1895.68 2177 1870.75 2143.89 1846.13 2103.92C1819.94 2061.38 1795.45 2013.62 1759.13 1979.39C1743.9 1965.03 1714.02 1947.11 1702.94 1976.52C1695.07 1997.42 1693.08 2020.71 1687.42 2041.27C1664.49 2124.46 1562.73 1988.32 1543.57 1963.66C1527.28 1942.68 1498.67 1906.79 1457.74 1855.98C1427.44 1818.38 1395.1 1780.24 1357.06 1750.25C1336.14 1733.75 1273.42 1701.45 1263.04 1746.46C1255.77 1777.94 1262.74 1808.86 1275.22 1836.55C1295.81 1882.24 1322.37 1926.01 1354.89 1967.83C1416.04 2046.46 1465.64 2100.74 1522.34 2166.53C1550.98 2199.78 1570.45 2221.87 1580.76 2232.81C1602.42 2255.79 1626.2 2291.9 1627.35 2322.32C1628.73 2358.02 1601.27 2368.36 1571.12 2362.42C1561.99 2360.64 1529.67 2351.34 1523.56 2359.31C1523.09 2359.91 1522.99 2360.57 1523.24 2361.27C1525.47 2367.52 1528.49 2372.84 1532.31 2377.23C1544.68 2391.48 1559.12 2406.93 1575.64 2423.58C1607.25 2455.41 1634.96 2489.15 1654.39 2529.91C1667.31 2557.03 1673.38 2598.22 1641.21 2613.84C1619.91 2624.18 1588.88 2615.1 1571.96 2613.5C1527.58 2609.3 1546.51 2669.04 1555.92 2689.29C1582 2745.28 1622.23 2794.93 1668.1 2836.1C1682.64 2849.14 1705.94 2866.11 1725.42 2866.81C1742.9 2867.44 1744.84 2850.81 1741.66 2837.34C1738.02 2821.88 1734.36 2806.46 1730.67 2791.05C1721.74 2753.7 1724.69 2692.02 1770.36 2678.32C1792.16 2671.77 1823.57 2678.75 1845.46 2688.04C1923.84 2721.4 1986.8 2788.29 2040.21 2852.86C2058.98 2875.58 2076.64 2899.13 2093.19 2923.5C2130.05 2977.83 2173.51 3029.01 2230.44 3063.16C2251.04 3075.5 2272.12 3079.25 2283.9 3053.97C2289.63 3041.72 2294.97 3027.32 2302.69 3017.37C2319.72 2995.49 2343.16 2985.59 2373 2987.67V3342.56L2371.89 3342.9C2371.41 3343.03 2370.97 3342.95 2370.56 3342.65C2354.57 3330.63 2337.78 3319.92 2320.18 3310.53C2305.47 3302.68 2305.8 3317.69 2309.19 3325.93C2319.48 3350.96 2343.85 3391.65 2319.88 3415.91C2299.74 3436.31 2267.11 3428.89 2244.84 3417.58C2199.93 3394.78 2157.24 3355.56 2138.79 3307.62C2117.15 3251.4 2167.38 3230.51 2205.73 3211.46C2253.16 3187.92 2184.41 3131.54 2164.83 3116.15C2123.08 3083.36 2075.56 3065.01 2042.33 3026.01C2014.17 2992.95 1986.37 2956.43 1953.33 2923.44C1934.11 2904.25 1903.17 2879.77 1876.28 2879.81C1841.21 2879.88 1850.96 2924.61 1857.93 2943.57C1865.06 2962.91 1873.44 2980.56 1884.56 2998.97C1907.2 3036.38 1932.38 3072.03 1960.1 3105.93C1982.92 3133.8 2012.02 3157.14 2031.86 3178.67C2072.22 3222.43 2090.88 3281.38 2111.8 3335.83C2129.54 3381.99 2152.1 3420.49 2188.31 3454.7C2230.18 3494.26 2275.39 3529.62 2323.95 3560.78C2339.12 3570.51 2355.48 3577.33 2373 3581.22V3691.81C2321.13 3680.82 2267.38 3663.67 2218.08 3694.77C2186.83 3714.48 2166.36 3742.28 2156.66 3778.18L2101.53 3778C2099.59 3703.07 2062.11 3618.73 1998.87 3575.33C1970.35 3555.77 1955.64 3566.22 1955.05 3599.08C1954.53 3628.32 1951.35 3649.38 1921.54 3661.23C1912.31 3664.91 1899.63 3667.77 1892.71 3674.7C1866.55 3700.88 1885.42 3738.82 1912.11 3754.89C1925.14 3762.74 1938.28 3770.4 1951.55 3777.86L1704.41 3778C1700.03 3733.86 1759.65 3748.14 1750.33 3711.69C1747.2 3699.46 1741 3687.48 1731.73 3675.74C1693.98 3627.94 1655.22 3583.62 1662.3 3518.17C1665.71 3486.86 1679.75 3466.3 1699.81 3443.46C1713.86 3427.46 1721.4 3415.5 1715.53 3394.85C1705.58 3359.89 1680.33 3323.9 1656.08 3297.26C1631.5 3270.29 1607.05 3243.22 1582.72 3216.06C1572.79 3204.99 1565.39 3192.58 1560.5 3178.82C1548.02 3143.71 1580.44 3134.05 1606.08 3146.84C1635.7 3161.63 1655.15 3189.54 1685.68 3203.06C1707.37 3212.68 1731.78 3210.47 1754.12 3221.16C1775.87 3231.59 1796.22 3250.14 1812.45 3267.81C1863.55 3323.44 1917.19 3391.67 1994.74 3410.18C2015.7 3415.19 2035.47 3414.15 2042.55 3391.33C2053.09 3357.46 2015.99 3317.33 1989.41 3302.32C1965 3288.54 1943.89 3271.85 1926.1 3252.26C1877.32 3198.53 1838.26 3128.95 1798.16 3064.85C1785.71 3044.95 1770.58 3027.44 1752.79 3012.33C1728.69 2991.93 1705.45 2993.76 1698.66 3027.91C1695.44 3043.99 1691.96 3060.01 1688.23 3075.98C1670.81 3150.59 1595.99 3065.55 1577.08 3043.34C1530.08 2988.16 1462.39 2894.86 1397.86 2825.98C1377.32 2804.05 1351.1 2779.72 1323.67 2768.66C1301.37 2759.68 1269.15 2755.91 1262.7 2785.59C1253.54 2827.65 1269.6 2866.61 1289.21 2903.62C1307.62 2938.44 1328.13 2970.58 1350.74 3000.06C1388.13 3048.85 1426.85 3096.94 1467.89 3142.71C1498.94 3177.36 1530.13 3211.8 1558.49 3248.72C1576.79 3272.57 1612.26 3330.62 1570.85 3351.81C1550.12 3362.4 1501.67 3355.31 1499.73 3387.63C1497.18 3429.99 1553.46 3466.57 1582.83 3491.2C1600.13 3505.72 1613.13 3522.91 1621.83 3542.79C1633.02 3568.36 1630.51 3607.92 1595.83 3613.81C1590.13 3614.78 1581.4 3614.09 1569.64 3611.76C1559.17 3609.71 1502.06 3591.81 1533.04 3627.6C1555.53 3653.58 1578.16 3674.95 1603.41 3703.12C1624.02 3726.12 1640.5 3751.02 1652.85 3777.82L1364.82 3778C1356 3759.58 1359.68 3738.08 1378.38 3730.11C1400.99 3720.5 1423.53 3732.84 1443.84 3740.17C1452.37 3743.27 1470.04 3746.61 1474.82 3735.86C1480.91 3722.19 1458.55 3692.31 1450.23 3681.97C1431.12 3658.32 1401.92 3634.49 1378.32 3610.61C1360.22 3592.26 1347.36 3568.52 1361.82 3543.71C1367.51 3533.99 1376.44 3528.64 1387.12 3526.04C1400.97 3522.68 1424.82 3520.06 1414.15 3498.04C1396.5 3461.54 1332.04 3413.49 1347.11 3370C1359.18 3335.13 1413.58 3320.4 1405.71 3281.29C1398.15 3243.73 1342.37 3198.41 1312.45 3176.43C1281.34 3153.59 1227.7 3116.8 1187.04 3123.82C1159.6 3128.54 1175.85 3167.11 1185.03 3182.16C1198.37 3203.99 1220.62 3225 1239.5 3246.96C1255.77 3265.89 1273.08 3286.25 1275.47 3312.36C1277.64 3335.99 1265.7 3355.72 1244.42 3365.81C1189.82 3391.71 1132.62 3349.24 1087.83 3319.18C1082.55 3315.66 1063.68 3303.4 1059.94 3311.26C1058.43 3314.37 1059.4 3321.68 1060.75 3324.84C1072.26 3351.41 1093.27 3388.1 1074.63 3412.45C1058.27 3433.87 1026.43 3431.07 1005.04 3421.46C967.104 3404.38 935.657 3378.66 910.702 3344.3C896.261 3324.41 882.564 3297.78 886.558 3273.54C892.38 3238.25 934.394 3224.01 961.222 3208.91C1011.04 3180.88 906.369 3107.46 887.686 3095.93C853.434 3074.8 823.785 3057.02 798.04 3030.1C793.933 3025.78 784.374 3014.17 769.361 2995.27C746.722 2966.78 722.24 2939.95 695.916 2914.79C680.617 2900.19 627.299 2863.95 608.097 2887.46C596.883 2901.23 603.584 2930.21 609.428 2945.4C632.331 3004.98 673.442 3058.89 713.155 3108.21C742.578 3144.72 782.584 3168.83 806.411 3206.56C828.569 3241.61 845.041 3286 860.316 3326.74C878.796 3376.07 900.818 3417.28 939.561 3453.94C970.451 3483.14 1105.5 3604.42 1148.71 3577.91C1155.97 3573.46 1159.33 3561.79 1153.83 3553.76C1145.05 3540.92 1135.69 3530.29 1128.56 3516.2C1120.43 3500.13 1117.32 3475.31 1123.52 3458.29C1133.61 3430.65 1165.24 3414.89 1193.95 3418.98C1256.22 3427.87 1297.47 3499.91 1311.3 3554.84C1321.03 3593.43 1305.01 3636.16 1276.87 3663.22C1200.67 3736.43 1119.89 3677.59 1031.58 3676.55C972.797 3675.85 923.518 3722.93 908.761 3778.11L853.186 3778C853.028 3739.66 842.243 3704.29 826.561 3668.74C807.983 3626.59 779.65 3593.35 741.562 3569.04C726.58 3559.47 710.56 3565.9 707.762 3583.57C703.971 3607.4 708.597 3629.45 693.05 3647.76C673.826 3670.39 640.634 3659.45 632.263 3694.47C626.035 3720.52 646.365 3747.8 668.952 3758.75C684.085 3766.08 695.69 3772.45 703.768 3777.86L455.949 3777.98C454.49 3768.18 456.641 3759.85 462.402 3752.99C472.488 3740.99 500.151 3739.59 501.979 3722.17C504.19 3700.88 484.831 3677.59 471.698 3662.18C453.121 3640.41 438.326 3618.66 427.315 3596.93C408.407 3559.67 405.925 3509.75 428.195 3472.69C440.357 3452.45 463.891 3435.93 467.885 3413.74C472.962 3385.42 437.537 3334.21 419.959 3312.63C406.421 3296.02 384.263 3271.37 353.486 3238.68C339.481 3223.8 327.884 3209.24 318.693 3195.01C307.208 3177.22 299.807 3146.78 329.388 3141.74C370.77 3134.72 408.407 3199.25 444.915 3206.43C466.351 3210.62 491.622 3213.04 509.764 3223.37C527.755 3233.65 545.166 3248.03 561.999 3266.5C614.528 3324.19 672.698 3396.84 753.318 3412.03C775.281 3416.16 788.917 3409.48 794.227 3391.96C800.725 3370.5 788.18 3344.91 773.694 3328.97C762.577 3316.73 753.168 3308.63 745.466 3304.69C718.766 3291.03 695.81 3273.37 676.601 3251.72C627.164 3196 589.166 3129.8 549.724 3066.05C537.765 3046.73 491.442 2984.3 463.53 3001.93C454.753 3007.46 449.902 3022.58 448.254 3032.67C445.096 3052.03 441.305 3084.17 429.007 3097.82C399.336 3130.8 333.607 3051.31 316.978 3030.3C281.206 2985.04 245.322 2939.88 209.325 2894.82C183.121 2862.02 156.225 2832.31 128.637 2805.7C105.373 2783.24 74.2352 2762.25 40.976 2762.43C26.5803 2762.5 18.2542 2770.1 14.3732 2784.05C4.80612 2818.47 15.5691 2853.2 30.3259 2884.21C71.6178 2970.85 136.241 3047.09 198.517 3119.81C236.582 3164.24 276.047 3205.82 311.946 3252.53C331.644 3278.15 363.753 3335.9 315.804 3354.16C298.453 3360.77 268.51 3357.66 255.491 3374C236.515 3397.76 268.578 3434.64 284.599 3450.37C298.566 3464.11 322.393 3480.43 336.134 3492.96C361.113 3515.75 393.56 3561.5 372.327 3596.57C350.598 3632.48 307.501 3601.65 277.22 3606.57C276.498 3606.69 275.934 3607.05 275.528 3607.65C270.406 3615.35 293.669 3639.56 301.296 3646.88C313.285 3658.37 328.673 3674.58 347.461 3695.49C371.966 3722.77 390.792 3750.21 403.939 3777.82L115.888 3778C103.027 3750.56 116.362 3728.28 145.131 3726.77C170.786 3725.39 192.177 3746.4 216.298 3742.82C247.661 3738.14 201.135 3681.65 192.831 3672.42C173.088 3650.42 137.279 3623.95 116.069 3594.65C98.7847 3570.77 104.99 3534.73 136.015 3526.68C150.591 3522.88 176.314 3520.49 165.01 3497.74C161.099 3489.83 157.887 3484.37 155.375 3481.36C134.767 3456.59 119.626 3437.14 109.954 3422.99C77.0331 3374.81 106.479 3352.22 140.144 3321.95C146.748 3316.01 151.456 3310.18 154.269 3304.46C177.036 3258.15 71.1666 3180.61 39.4191 3159.48C15.7271 3143.71 -33.1915 3116.38 -62.2312 3123.53C-83.4187 3128.72 -78.2967 3155.31 -71.1665 3169.14C-54.8979 3200.67 -28.3402 3226.11 -4.76096 3252.78C9.7702 3269.19 24.4593 3289.7 26.3095 3311.98C30.1905 3358.92 -15.7496 3378.62 -54.9205 3372.51C-96.9571 3365.94 -129.81 3339.38 -164.468 3317.21C-169.319 3314.12 -190.688 3300.27 -189.762 3315.68C-187.89 3346.67 -148.944 3383.39 -175.344 3413.92C-193.463 3434.89 -224.669 3430.13 -246.894 3420.31C-294.436 3399.32 -350.147 3347.43 -362.06 3295.26C-372.71 3248.56 -327.086 3229.42 -291.977 3211.16C-244.232 3186.34 -311.472 3133.28 -332.389 3116.2C-374.854 3081.55 -414.724 3050.84 -452 3024.07L-451.797 2894.64C-427.623 2918.67 -403.706 2942.94 -380.044 2967.47C-360.91 2987.28 -245.157 3107.39 -217.403 3062.46C-214.455 3057.67 -209.934 3048.24 -203.842 3034.16C-185.159 2990.98 -150.772 2986.99 -108.645 2986.38C-87.9541 2986.09 -55.62 2978.26 -58.7112 2951.47C-60.6517 2934.54 -77.1234 2905.25 -86.51 2888.25C-118.28 2830.66 -151.404 2774.05 -179.654 2714.56C-202.285 2666.88 -233.649 2591.41 -203.053 2540.85C-174.441 2493.62 -111.33 2501.97 -69.8578 2522.3C-27.2346 2543.2 11.1014 2573.76 47.6324 2606.28C77.9583 2633.29 108.262 2660.32 138.542 2687.39C151.238 2698.76 162.204 2707.2 171.44 2712.69C220.991 2742.16 212.913 2688.97 201.834 2665.02C182.835 2623.95 153.728 2588.34 127.87 2551.41C111.488 2528.01 95.7161 2483.08 141.385 2477.7C161.151 2475.38 176.585 2483.62 193.756 2490.12C207.204 2495.2 233.378 2496.96 225.707 2473.89C211.266 2430.51 163.679 2395.04 132.089 2363.85C117.58 2349.49 103.252 2331.12 107.336 2309.12C108.254 2304.27 111.082 2297.7 115.82 2289.41C135 2255.92 152.893 2220.53 119.544 2186.75C94.0313 2160.93 65.3601 2137.68 33.5299 2116.99C12.9742 2103.63 -50.8365 2070.52 -71.7306 2090.29C-76.0479 2094.38 -78.0109 2099.72 -77.6198 2106.29C-75.5214 2141.25 -36.1473 2182.96 -8.25836 2204.65C6.64886 2216.23 15.0426 2222.92 16.9229 2224.71C61.8477 2267.54 81.2751 2329.5 49.0539 2385.92C18.0286 2440.26 -41.4273 2459.06 -101.447 2446.88C-126.749 2441.74 -152.058 2436.67 -177.375 2431.64C-215.846 2423.99 -247.661 2424.65 -280.763 2446.36C-316.293 2469.66 -337.06 2502.58 -343.062 2545.12C-348.319 2582.42 -334.781 2619.21 -318.354 2650.65C-292.451 2700.16 -264.381 2750.45 -245.27 2803.05C-235.048 2831.2 -227.85 2866.88 -253.686 2887.3C-281.124 2908.99 -316.797 2894.03 -341.911 2879.11C-381.819 2855.38 -418.515 2825.65 -452 2789.92L-451.684 2679.51C-440.417 2690.32 -427.804 2699.02 -413.844 2705.63C-382.165 2720.59 -398.93 2673.26 -402.427 2664.33C-414.642 2633.14 -431.166 2601.65 -452 2569.88L-451.977 2117.89C-444.17 2122.19 -437.807 2126.81 -432.888 2131.73C-408.88 2155.69 -408.858 2187.09 -399.923 2217.89C-397.064 2227.7 -391.13 2231.85 -382.12 2230.33C-365.964 2227.62 -357.029 2213.11 -345.386 2203.47C-329.929 2190.7 -309.193 2181.58 -290.6 2172.35C-249.309 2151.88 -300.483 2104.73 -318.512 2089.52C-361.624 2053.19 -406.12 2018.65 -452 1985.91L-451.639 1856.34C-392.183 1916.94 -346.875 1968.85 -285.591 2012.7C-265.983 2026.74 -228.437 2050.86 -213.951 2016.76C-207.994 2002.75 -202.729 1991.95 -198.156 1984.35C-176.247 1947.93 -139.941 1948.83 -101.853 1948.06C-80.5757 1947.63 -51.0621 1933.17 -60.3584 1906.42C-65.8188 1890.69 -73.295 1874.08 -82.7869 1856.61C-119.182 1789.68 -157.925 1725.17 -188.747 1655.26C-203.459 1621.83 -213.703 1591.88 -215.643 1558.39C-217.832 1520.14 -200.706 1481.48 -160.813 1471.23C-92.1284 1453.58 -16.4491 1512.31 31.9505 1554.49C67.1953 1585.2 102.124 1616.26 136.737 1647.67C148.606 1658.48 187.01 1691.52 202.466 1681.37C218.802 1670.65 206.302 1632.89 198.562 1618.67C184.437 1592.67 168.387 1567.92 150.411 1544.4C134.977 1524.2 94.0463 1475.02 118.754 1449.41C133.15 1434.49 158.76 1436.9 176.698 1445.1C190.041 1451.2 199.533 1454.53 205.174 1455.07C238.636 1458.32 225.165 1429.61 215.824 1415.01C193.621 1380.28 161.67 1354.39 132.473 1325.84C112.82 1306.64 94.5653 1278.22 115.369 1251.68C125.613 1238.62 140.889 1237.83 155.894 1233.36C175.051 1227.65 166.431 1207.58 158.286 1197.34C139.152 1173.26 118.596 1149.56 103.027 1122.95C78.2968 1080.66 117.964 1054.73 143.8 1030.26C179.428 996.543 134.165 949.713 108.713 926.445C71.3696 892.344 33.3946 863.343 -11.2594 844.43C-27.9115 837.389 -68.4137 824.209 -76.1306 848.38C-89.6464 890.719 -1.89536 958.086 17.2163 994.851C31.2736 1021.96 30.5064 1054.45 4.6933 1072.42C-35.7863 1100.63 -91.2484 1078.11 -126.967 1053.85C-149.373 1038.61 -167.537 1024.12 -184.889 1020.15C-185.46 1020.02 -186.053 1020.02 -186.626 1020.14C-187.198 1020.27 -187.736 1020.52 -188.2 1020.87C-188.663 1021.23 -189.042 1021.68 -189.308 1022.2C-189.575 1022.72 -189.722 1023.29 -189.74 1023.87C-190.687 1053.66 -158.511 1080.75 -168.327 1112.55C-177.736 1143.06 -215.192 1145.56 -239.809 1135.16C-282.004 1117.32 -316.323 1088.98 -342.768 1050.14C-356.284 1030.31 -368.514 1002.39 -360.706 978.646C-349.831 945.628 -307.095 932.945 -285.997 919.923C-252.828 899.43 -301.679 854.135 -317.655 840.616C-360.962 803.92 -405.744 769.104 -452 736.168L-451.639 606.601C-403.668 655.922 -367.927 691.874 -344.415 714.457C-319.821 738.094 -294.94 757.789 -269.774 773.542C-265.532 776.205 -260.312 778.65 -254.115 780.877C-220.111 793.132 -215.485 771.556 -204.767 746.798C-196.554 727.825 -183.663 714.367 -166.093 706.423C-136.94 693.243 -104.2 705.34 -75.5439 691.618C-52.3031 680.469 -57.7635 658.938 -67.4886 638.31C-91.5643 587.305 -128.682 525.58 -147.951 489.741C-157.804 471.385 -169.786 447.101 -183.896 416.889C-199.194 384.164 -212.055 349.183 -215.372 313.005C-219.231 270.554 -199.871 228.215 -154.518 219.864C-93.1438 208.535 -26.2192 255.545 19.1342 293.844C53.9277 323.259 88.0594 353.441 121.529 384.39C134.706 396.6 179.857 438.916 198.404 433.364C220.066 426.887 207.272 385.767 200.097 372C183.219 339.546 161.648 311.358 140.686 281.612C127.599 263.061 105.983 235.707 112.03 211.807C116.362 194.61 133.827 188.02 150.411 188.9C162.821 189.554 175.637 194.678 187.055 199.868C199.51 205.533 229.926 212.484 226.542 189.035C224.037 171.725 204.023 146.922 192.041 133.878C174.306 114.581 144.364 90.9744 121.191 63.734C105.125 44.844 99.4166 19.4768 118.438 0ZM722.699 1739.23C754.672 1770.76 783.689 1805.04 813.406 1838.65C843.078 1872.23 883.444 1930.62 919.772 1973.16C936.154 1992.34 998.362 2050.21 1026.03 2029.96C1029.26 2027.62 1032.52 2022.89 1035.82 2015.79C1041.71 2003.18 1047.37 1988.73 1054.91 1978.53C1074.56 1952.01 1102.99 1948.54 1134.78 1948.11C1147.13 1947.93 1155.29 1947.41 1159.27 1946.55C1182.06 1941.56 1196.97 1925.49 1187.18 1900.96C1181.33 1886.28 1172.82 1868.79 1161.66 1848.49C1119.03 1770.92 1069.82 1692.92 1042.68 1608.18C1033.31 1578.91 1029.12 1544.65 1039.99 1515.49C1061.83 1456.92 1129.59 1460.65 1176.1 1482.56C1213.49 1500.16 1245.64 1524.43 1277.52 1551.62C1307.83 1577.47 1337.61 1603.91 1366.85 1630.95C1387.59 1650.13 1407.56 1668.37 1434.12 1681.01C1445.24 1686.29 1454.63 1683.42 1458.21 1671.62C1469.7 1633.79 1411.69 1560.58 1389.73 1531.35C1375.86 1512.89 1357.49 1486.4 1360.42 1465.27C1364.12 1438.48 1396.98 1434.04 1417.44 1442.12C1429.51 1446.88 1451.78 1457.71 1464.26 1455.07C1488.5 1449.97 1468.21 1418.51 1459.64 1406.66C1435.97 1373.94 1404.31 1349 1376.35 1320.16C1359.86 1303.14 1349.55 1282.92 1359.68 1259.78C1368.32 1240.06 1386.35 1238.32 1404.42 1233.54C1425.02 1228.1 1414.73 1206.09 1406.68 1196.19C1392.13 1178.31 1377.91 1160.18 1364.01 1141.8C1296 1051.77 1432.24 1047.1 1402.68 983.092C1391.99 959.914 1371.39 938.248 1352.66 921.232C1324.77 895.895 1294.36 874.078 1261.43 855.782C1243.02 845.559 1163.37 809.381 1172.42 863.456C1175.42 881.375 1187.56 899.205 1198.98 913.626C1213.64 932.155 1243.16 960.027 1261.43 987.042C1285.1 1022.09 1280.46 1064.72 1237.72 1080.43C1182.93 1100.56 1131.67 1059.08 1089.09 1031.98C1080.38 1026.42 1072.59 1022.48 1065.72 1020.15C1064.95 1019.89 1064.2 1019.92 1063.46 1020.24C1055.11 1023.9 1061.32 1039.42 1063.87 1045.18C1073.5 1066.89 1092.12 1100.04 1076 1122.97C1055.2 1152.58 1013.62 1139.22 988.547 1125.19C947.909 1102.41 903.616 1061.36 889.582 1015.84C872.523 960.591 920.494 942.04 958.83 922.518C1024.97 888.823 853.615 781.193 832.518 766.749C820.83 758.76 809.924 749.89 799.8 740.141C782.832 723.778 766.654 697.576 753.521 681.552C727.784 650.121 697.405 624.107 662.386 603.51C646.839 594.347 617.845 583.333 606.45 601.704C589.211 629.486 624.027 693.536 639.348 717.843C673.781 772.474 713.899 823.953 759.704 872.28C766.744 879.728 775.19 886.882 785.043 893.743C814.602 914.348 846.191 955.987 837.324 994.535C831.863 1018.23 807.878 1037.78 782.629 1033.35C744.27 1026.63 702.369 992.255 677.752 964.925C629.849 911.775 592.167 847.071 554.53 784.736C541.511 763.161 497.489 702.541 467.84 711.975C456.31 715.631 450.894 730.278 448.954 742.149C444.622 768.464 440.658 786.429 437.063 796.043C409.58 869.594 311.878 735.807 294.188 713.487C249.218 656.749 205.061 598.996 156.278 545.44C129.111 515.604 81.9747 469.293 36.6212 474.71C5.50562 478.434 8.66455 529.529 13.8994 550.157C31.3187 618.856 79.1993 683.696 123.018 739.576C157.158 783.134 192.38 825.811 229.633 866.751C254.995 894.616 279.514 923.21 303.191 952.534C324.379 978.804 365.783 1041.23 320.971 1064.02C297.099 1076.19 242.404 1065.69 250.798 1110.94C254.927 1133.15 276.836 1156.42 295.226 1171.47C331.283 1200.95 379.999 1233.7 378.306 1286.87C377.381 1315.6 355.359 1330.63 328.169 1325.26C322.1 1324.06 270.902 1310.14 274.512 1324.24C275.776 1329.18 279.499 1335.05 285.682 1341.87C330.674 1391.47 378.532 1432.73 406.692 1495.4C422.306 1530.18 421.02 1576.33 372.507 1580.15C354.569 1581.57 336.541 1575.99 318.557 1575.32C301.454 1574.69 293.083 1589.38 294.188 1604.66C296.67 1638.96 317.497 1676.15 335.841 1702.54C359.157 1736.09 385.768 1766.8 415.672 1794.66C431.332 1809.26 449.902 1823.17 471.224 1827.7C491.126 1831.92 496.225 1816.33 492.863 1800.42C486.974 1772.39 475.579 1739.35 478.039 1705.22C480.904 1665.52 504.19 1633.45 547.784 1637.63C613.512 1643.93 676.962 1694.14 722.699 1739.23ZM861.129 2946.41C896.915 2994.93 938.432 3039.57 989.675 3066.72C994.609 3069.36 1000.22 3071.14 1006.51 3072.07C1031.51 3075.77 1036.27 3053.88 1043.54 3036.37C1051.57 3016.95 1064.6 3003.05 1082.64 2994.69C1105.86 2983.9 1131.17 2988.82 1155.66 2985.21C1172.26 2982.75 1193.47 2971.3 1190.02 2951.42C1188.7 2943.82 1186.09 2935.92 1182.21 2927.7C1169.85 2901.5 1157.91 2878.68 1141.91 2850.92C1115.83 2805.67 1091.48 2759.49 1068.85 2712.4C1052.34 2678.02 1037.08 2640.06 1033.92 2601.06C1030.85 2562.9 1045.48 2523.32 1083.41 2510.7C1155.88 2486.57 1242.71 2558.52 1293.23 2603.41C1323.42 2630.24 1353.51 2657.16 1383.51 2684.16C1398.94 2698.09 1417.78 2713.8 1436.17 2720.14C1462.07 2729.07 1461.46 2698.18 1457.4 2683.42C1447.36 2647.06 1420.83 2611.33 1398.35 2581.54C1383.08 2561.3 1343.79 2513.23 1367.89 2487.77C1384.57 2470.17 1409.84 2477.21 1429.56 2485.38C1442.83 2490.88 1473.85 2501.76 1476.04 2482.29C1476.56 2477.84 1473.58 2469.02 1471.53 2465.07C1450.77 2425.16 1415.14 2396.23 1382.99 2365.79C1362.7 2346.56 1346.68 2322.79 1361.89 2295.39C1388.51 2247.39 1403.23 2219.11 1357.65 2175.98C1335.73 2155.27 1312.13 2136.59 1286.84 2119.95C1266.83 2106.77 1197.74 2068.47 1177.41 2090.63C1155.72 2114.26 1200.49 2166.55 1215.7 2182.35C1233.68 2201.03 1257.73 2215.5 1274.18 2232.77C1303.09 2263.17 1320.55 2307.29 1312.05 2349.31C1301.85 2399.64 1260.53 2439.18 1209.97 2448.43C1127.59 2463.51 1045.5 2395.8 968.149 2446.4C914.718 2481.34 890.62 2547.83 912.89 2608.58C920.306 2628.8 929.7 2649.49 941.073 2670.64C961.561 2708.79 986.313 2756.32 1003.35 2801.34C1016.55 2836.28 1022.93 2886.63 973.993 2897.37C931.686 2906.69 868.868 2853.5 837.843 2830.11C800.026 2801.61 768.549 2771.12 741.924 2731.74C715.862 2693.17 698.646 2649.38 667.959 2613.77C659.362 2603.8 641.988 2588.9 628.63 2595.99C616.401 2602.51 610.308 2622.69 598.914 2632.25C540.247 2681.54 419.373 2537.94 466.125 2499.78C475.602 2492.04 489.885 2490.97 497.308 2481.47C510.08 2465.11 492.773 2438.05 481.559 2424.46C452.135 2388.83 425.081 2357.37 420.568 2309.05C417.951 2281.02 396.628 2251.84 379.457 2232.63C357.66 2208.21 339.76 2186.43 325.755 2167.29C314.879 2152.4 297.099 2121.12 318.264 2107.37C338.91 2093.97 369.529 2113.72 385.843 2128.07C398.749 2139.43 411.25 2149.26 423.344 2157.57C444.058 2171.81 465.222 2169.84 488.057 2176.62C510.508 2183.27 525.513 2194.69 546.836 2210.92C562.27 2222.67 577.531 2236.32 592.618 2251.86C604.412 2264 618.567 2273.74 635.083 2281.09C683.257 2302.5 702.775 2256.33 677.955 2220.69C667.169 2205.23 656.188 2189.9 645.012 2174.72C609.654 2126.72 580.118 2075.67 548.348 2025.38C536.208 2006.2 521.572 1989.29 504.439 1974.65C482.619 1956.01 457.686 1952.73 449.969 1987.17C448.525 1993.57 445.63 2008 441.282 2030.48C427.654 2100.78 371.424 2053.21 347.055 2026.33C278.213 1950.41 221.013 1865.01 150.953 1789.74C130.893 1768.19 108.081 1747.31 81.8167 1733.66C62.5471 1723.64 23.128 1714.34 14.6891 1743.61C4.10666 1780.31 16.246 1817.12 32.4469 1850.2C52.7845 1891.72 77.0632 1930.77 105.283 1967.36C167.763 2048.31 237.079 2123.99 303.101 2200.61C331.103 2233.06 362.376 2262.08 375.08 2304.96C386.632 2344.08 365.016 2371.11 323.386 2362.72C310.615 2360.12 290.149 2353.46 277.807 2356.87C277.029 2357.09 276.311 2357.48 275.713 2358.02C275.114 2358.56 274.65 2359.23 274.358 2359.99C274.067 2360.74 273.955 2361.55 274.033 2362.35C274.11 2363.16 274.375 2363.93 274.806 2364.61C292.293 2392.49 316.368 2411.87 342.565 2439.92C369.755 2469.02 401.231 2509.8 412.242 2548.55C420.884 2578.95 414.747 2611.36 378.758 2617.81C353.554 2622.32 312.984 2603.46 299.649 2621.96C262.915 2672.88 425.871 2880.71 481.694 2866.04C494.533 2862.66 494.984 2851.22 492.615 2839.55C489.667 2824.94 485.921 2808.51 481.378 2790.26C471.292 2749.72 477.069 2686.51 528.334 2676.81C570.596 2668.82 628.969 2700.8 662.476 2725.85C717.713 2767.17 764.149 2818.99 806.479 2870.69C825.41 2893.8 845.379 2925.08 861.129 2946.41ZM751.761 2113.6C771.031 2134.41 793.956 2152.22 814.421 2171.99C832.946 2189.89 845.83 2214.4 866.995 2229.09C891.387 2245.99 911.266 2195.48 928.775 2187.31C940.418 2181.9 950.655 2176.71 959.485 2171.76C1001.77 2148.02 940.396 2097.31 921.735 2081.83C895.539 2060.07 855.894 2036.62 832.608 2018.61C800.274 1993.63 781.117 1971.13 751.694 1936.46C730.74 1911.76 708.04 1888.78 683.596 1867.54C667.756 1853.79 627.457 1830.12 609.654 1847.54C580.795 1875.8 638.152 1968.01 655.91 1993.81C684.972 2036.03 716.923 2075.96 751.761 2113.6ZM2005.93 2119.04C2026.51 2140.93 2049.86 2157.66 2068.73 2178.51C2084.07 2195.46 2097.36 2218.57 2117.42 2230.37C2139.53 2243.37 2160.13 2195.64 2176.27 2187.7C2184.55 2183.62 2194.88 2178.32 2207.25 2171.81C2250.07 2149.22 2188.5 2096.84 2169.7 2081.6C2138.76 2056.55 2101.13 2035.63 2069.11 2009.43C2043.45 1988.39 2024.28 1965.08 1998.01 1934.02C1980.58 1913.41 1959.62 1892.12 1935.15 1870.16C1926.96 1862.83 1919.92 1857.48 1914.01 1854.11C1893.27 1842.31 1851.95 1827.77 1851.32 1869.12C1850.69 1909.61 1883.14 1961.65 1905.97 1994.91C1936.1 2038.85 1969.42 2080.22 2005.93 2119.04ZM-197.84 2296.05C-177.668 2314.58 -146.823 2334.71 -118.867 2336.94C-104.335 2338.09 -91.1581 2332.07 -91.2484 2315.93C-91.4514 2285.58 -158.038 2246.69 -183.941 2234.19C-194.365 2229.15 -204.414 2226.36 -214.086 2225.82C-231.235 2224.89 -235.026 2245.31 -230.49 2257.48C-225.007 2272.19 -209.258 2285.55 -197.84 2296.05ZM1047.8 2292.55C1070.84 2313.56 1099.83 2334.37 1129.66 2336.88C1150.35 2338.64 1163.53 2325.46 1155.86 2305.8C1153.62 2300.07 1151.1 2295.8 1148.3 2293C1126.22 2270.87 1099.35 2251.7 1067.7 2235.5C1056.46 2229.72 1030 2218.57 1021.47 2231.66C1006.03 2255.38 1031.53 2277.72 1047.8 2292.55ZM637.43 2478.47C648.171 2499.37 671.524 2513.02 693.705 2518.67C704.851 2521.49 718.006 2523.36 727.189 2526.25C785.269 2544.58 795.152 2602.71 806.637 2654.15C810.187 2669.99 816.911 2683.3 826.809 2694.07C833.556 2701.43 852.396 2710.64 861.896 2703.08C886.333 2683.67 856.638 2628.31 843.281 2602.04C821.664 2559.47 816.43 2497.79 817.106 2450.26C817.468 2424.62 812.052 2397.27 797.566 2375.72C783.576 2354.95 754.244 2315.35 729.243 2314.94C704.016 2314.53 705.257 2344.39 705.054 2364.7C704.874 2380.89 699.007 2393.81 687.454 2403.45C679.106 2410.4 665.883 2413.97 655.053 2418.19C629.443 2428.21 626.193 2456.56 637.43 2478.47ZM1880.81 2451.71C1879.17 2488.94 1914.89 2513.09 1947.63 2520.16C1972.54 2525.55 1992.6 2526.34 2016.33 2532.41C2027.07 2535.16 2036.08 2540.18 2043.34 2547.46C2043.91 2548.02 2044.19 2548.7 2044.18 2549.5C2044.04 2571.36 2041.42 2598.31 2046.66 2619.39C2054.35 2650.29 2059.88 2704.02 2102.48 2705.76C2106.39 2705.92 2110.78 2703.12 2112.82 2700.21C2135.88 2666.81 2087.3 2604.65 2079.01 2570.57C2069.48 2531.4 2064.73 2491.7 2064.78 2451.5C2064.8 2419.36 2059.52 2394.49 2040.32 2367.55C2028.86 2351.48 2016.02 2337.18 2001.8 2324.67C1989.66 2313.97 1962.11 2308.37 1957.19 2330.24C1951.19 2356.87 1961.34 2387.45 1932.58 2406.3C1910.76 2420.56 1882.42 2415.69 1880.81 2451.71Z" fill="white"/>
<path d="M420.23 0H1037.35C1058.81 17.8067 1117.63 60.2359 1146.13 46.6269C1166.15 37.0804 1157.01 15.3467 1146.27 2.07632C1145.83 1.51963 1145.92 1.07577 1146.54 0.744767L1147.92 0H1305.86C1314.3 18.7772 1316.54 38.3367 1312.59 58.6786C1301.33 116.409 1253.06 158.771 1194.28 161.93C1144.19 164.639 1094.48 144.688 1044.71 139.565C977.197 132.636 921.645 182.4 907.474 247.15C899.013 285.787 910.656 321.897 928.143 356.337C945.291 390.115 962.297 423.968 979.16 457.896C997.369 494.525 1037.67 571.394 991.367 602.381C957.318 625.153 909.054 593.557 879.157 572.748C825.139 535.149 766.901 487.913 734.161 431.762C711.191 392.379 697.743 364.417 673.013 331.624C663.085 318.444 637.069 293.1 621.68 313.863C615.543 322.146 607.803 335.845 600.199 343.112C588.827 353.99 575.04 357.563 558.84 353.832C518.179 344.511 478.873 300.66 461.409 263.918C451.435 242.975 451.074 215.666 476.369 205.827C489.478 200.749 504.438 194.7 501.843 176.013C498.323 150.624 469.464 121.51 453.195 101.13C429.714 71.7158 418.725 38.0057 420.23 0ZM731.521 27.2179C703.181 23.7648 706.317 57.3696 704.986 74.4316C703.136 97.9707 697.314 113.182 675.608 122.39C668.207 125.527 656.022 128.642 648.802 133.02C619.83 150.601 631.902 192.24 648.057 214.899C678.947 258.254 728.385 283.327 761.509 326.434C783.779 355.412 793.73 389.603 822.138 413.413C833.668 423.095 850.952 425.962 858.195 411.089C868.484 389.919 846.146 351.778 833.532 333.001C827.914 324.673 825.206 316.594 822.431 307.453C812.21 273.826 803.229 236.904 807.742 202.125C811.036 176.773 813.3 157.357 814.534 143.875C816.459 122.766 811.39 103.741 799.326 86.7992C785.539 67.4804 754.807 30.0615 731.521 27.2179Z" fill="white"/>
<path d="M1669.14 0H2285.14C2310.39 20.4698 2341.88 41.5715 2373 49.2223V154.167C2339.72 146.99 2298.97 135.367 2264.96 139.948C2210.92 147.261 2171.37 188.719 2157.04 239.95C2145.2 282.222 2158.53 323.229 2179 362.769C2204.02 411.111 2230.17 459.183 2250.12 509.94C2257.45 528.559 2264.17 554.445 2259.86 573.222C2253.39 601.456 2223.97 615.606 2197 608.791C2171.64 602.359 2145.24 586.087 2123.96 570.65C2071.1 532.283 2023.82 493.352 1987.47 438.239C1964.68 403.664 1948.53 365.748 1923.14 332.663C1916.3 323.74 1908.17 316.278 1898.75 310.274C1873.23 293.98 1864.21 327.833 1851.53 340.832C1793.97 399.805 1668.47 250.332 1714.7 212.033C1724.27 204.111 1738.71 202.689 1746.72 193.73C1758.27 180.82 1745.41 155.995 1735.77 143.605C1700.05 97.6096 1666.91 63.5083 1669.14 0ZM1962.61 33.3791C1958.1 37.8251 1955.7 45.3631 1955.52 51.3438C1954.6 83.3688 1954.21 111.625 1923.39 122.954C1907.48 128.8 1889.84 132.388 1883.52 149.653C1878.21 164.187 1879.73 178.436 1888.08 192.398C1907.26 224.491 1941.71 227.718 1968.79 249.091C1997.67 271.885 2010.38 307.115 2022.63 341.036C2031.25 364.868 2052.77 405.424 2076.1 417.634C2093.14 426.571 2107.13 419.078 2108.71 401.023C2110.29 383.262 2097.59 358.504 2087.45 342.48C2077.77 327.201 2073.08 318.286 2069 302.985C2061.78 275.835 2056.23 255.207 2054.94 230.02C2054.5 221.369 2055.21 209.505 2057.06 194.429C2060.11 169.536 2068.07 129.251 2057.65 105.915C2044.99 77.6138 2023.1 54.3454 1998.71 35.7262C1987.04 26.8342 1973.84 22.2979 1962.61 33.3791Z" fill="white"/>
<path d="M553.04 1601.97C514.749 1589.83 478.67 1549.7 461.408 1513.66C455.045 1500.41 451.119 1478.14 462.04 1465.34C475.059 1450.13 505.363 1453.27 501.865 1425.78C500.481 1414.91 495.043 1403.43 485.552 1391.31C461.07 1360.1 431.556 1327.94 419.146 1288.7C410.436 1261.18 408.654 1222.19 422.666 1195.24C429.841 1181.43 435.986 1171.8 441.101 1166.37C461.137 1145.16 475.33 1130.2 463.98 1099.5C440.491 1035.99 385.909 986.139 341.413 937.075C327.943 922.225 312.667 903.086 309.305 883.88C304.318 855.466 330.334 847.68 352.018 856.888C379.862 868.737 402.562 894.533 424.697 909.428C441.168 920.487 465.537 921.886 485.371 926.039C514.952 932.223 543.541 958.244 565.608 982.325C608.999 1029.74 654.849 1086.21 715.433 1112.16C738.922 1122.25 769.676 1127.85 796.099 1138.09C830.892 1151.59 860.97 1176.89 898.223 1184.52C931.053 1191.24 974.353 1198.13 1001.14 1219.45C1022.75 1236.67 1045.14 1252.77 1068.31 1267.75C1087.49 1280.16 1111.38 1294 1134.81 1293.34C1152.63 1292.87 1163.66 1278.4 1151.57 1262.38C1146.88 1256.15 1142.27 1249.85 1137.76 1243.47C1117.77 1215.19 1109.94 1172.26 1139.86 1147.12C1177.56 1115.48 1227.77 1133.49 1257.37 1166.06C1283.68 1195.02 1301.67 1228.25 1311.32 1265.74C1322.94 1310.9 1300.24 1358.36 1264.62 1385.76C1228.15 1413.79 1184.13 1416.68 1140.42 1407.2C1115.86 1401.88 1091.21 1396.89 1066.48 1392.24C1013.92 1382.39 971.668 1395.67 939.718 1432.1C915.055 1460.19 902.578 1496.53 905.195 1533.84C907.226 1562.54 921.509 1595.56 935.476 1621.72C960.281 1668.15 977.61 1702.37 987.463 1724.38C1003.53 1760.29 1038.32 1834.29 982.476 1856.5C947.773 1870.29 899.847 1838.08 872.635 1817.66C849.68 1800.46 826.831 1783.11 804.086 1765.59C757.018 1729.35 730.347 1675.59 699.367 1620.61C689.913 1603.82 653.788 1543.22 628.02 1558.12C617.415 1564.26 611.12 1582 601.349 1591.59C588.142 1604.54 572.039 1608 553.04 1601.97ZM782.944 1314.49C769.608 1300.7 749.414 1278.58 731.385 1276.62C714.598 1274.77 708.144 1286.46 706.52 1301.6C703.541 1329.61 708.505 1354.03 680.278 1369.87C658.143 1382.29 635.376 1379.02 631.698 1410.02C625.606 1461.48 688.988 1481.09 718.614 1507.39C737.553 1524.18 752.844 1543.87 764.486 1566.47C771.684 1580.42 776.4 1598.43 782.47 1614.41C790.299 1634.99 826.966 1676.24 852.237 1669.38C877.216 1662.59 875.365 1632.6 867.423 1613.66C847.77 1566.72 827.778 1529.03 836.51 1479.45C839.963 1459.88 850.139 1440.24 850.929 1421.51C851.756 1401.86 845.363 1384.14 831.749 1368.34C813.743 1347.43 797.475 1329.48 782.944 1314.49Z" fill="white"/>
<path d="M2373 1293.32V1403.91C2324.74 1393.3 2273.09 1377.39 2226.33 1401.92C2190.85 1420.55 2167.71 1449.99 2156.93 1490.23C2146.53 1529.05 2156.18 1565.07 2173.38 1600.64C2196.87 1649.23 2221.08 1692.61 2244.48 1745.55C2254.99 1769.32 2266.32 1803.06 2258.6 1827.48C2251.09 1851.22 2225.21 1863.52 2200.57 1859.32C2173.67 1854.72 2140.66 1833.1 2118.41 1816.37C2079.26 1786.93 2054.93 1768.2 2045.44 1760.18C1998.57 1720.55 1968.9 1654.94 1940 1606.15C1931.09 1591.09 1901.93 1549.27 1880.18 1556.54C1868.13 1560.56 1858.34 1584.44 1849.31 1592.83C1828.17 1612.49 1799.36 1604.61 1777.36 1589.85C1748.99 1570.79 1727.18 1546.18 1711.95 1516.03C1704.43 1501.11 1699.22 1477.14 1712.58 1463.74C1725.62 1450.63 1750.64 1452.9 1751.45 1429.73C1751.73 1421.51 1745.7 1407.88 1740.22 1399.89C1720.66 1371.36 1699.56 1350.01 1680.54 1316.54C1662.83 1285.39 1657.51 1252.02 1664.58 1216.45C1669.34 1192.48 1685.7 1170.03 1702.29 1152.63C1726.97 1126.74 1717.02 1103.65 1701.59 1073.86C1690.92 1053.25 1677.84 1034.16 1662.33 1016.58C1639.09 990.254 1615.48 964.225 1591.52 938.497C1576.9 922.834 1548.4 886.589 1560.72 864.787C1567.99 851.968 1585.95 851.427 1598.49 855.985C1622.52 864.765 1643.89 885.912 1664.27 902.342C1682.3 916.898 1697.55 919.539 1718.29 922.586C1743.96 926.362 1766.45 936.879 1785.75 954.137C1841.6 1004.08 1885.96 1075.67 1955.86 1107.9C1984.29 1121.01 2015.2 1125.52 2045.51 1138.5C2077.19 1152.02 2109.32 1176.46 2145.24 1184.25C2179.67 1191.72 2221.24 1197.65 2248.36 1218.98C2282.14 1245.52 2328.37 1282.74 2373 1293.32ZM1899.38 1457.15C1930.09 1485.36 1968.7 1484.28 2006.97 1491.23C2020.57 1493.71 2032.58 1499.46 2043 1508.49C2043.36 1508.8 2043.64 1509.19 2043.84 1509.62C2044.03 1510.05 2044.13 1510.52 2044.13 1511V1635.8C2044.13 1636.58 2044.38 1637.28 2044.88 1637.88C2053.39 1648.09 2063.82 1656.99 2076.17 1664.55C2088.01 1671.81 2099.07 1671.99 2109.34 1665.1C2123.85 1655.37 2122.16 1632.33 2116.88 1618.18C2098.35 1568.57 2073.69 1530.07 2085.47 1474.44C2088.67 1459.34 2098.19 1438.3 2099.01 1421.85C2099.98 1402.2 2093.8 1384.62 2080.46 1369.11C2059.32 1344.53 2030.03 1307.99 1999.09 1284.68C1987.41 1275.88 1969.49 1272.06 1960.46 1285.08C1958.03 1288.62 1956.46 1294.66 1955.77 1303.21C1953.29 1333.97 1955.27 1362.09 1920.5 1373.91C1901.93 1380.23 1884.42 1385.58 1881.15 1407.23C1878.2 1426.62 1884.28 1443.26 1899.38 1457.15Z" fill="white"/>
<path d="M-452 1751.76V1640.61L-451.143 1640.34C-450.571 1640.17 -450.097 1640.32 -449.721 1640.77C-441.891 1650.11 -409.806 1677.15 -398.749 1668.98C-378.013 1653.68 -440.515 1549.12 -452 1531.71L-451.977 868.15C-445.118 871.806 -438.898 876.358 -433.317 881.804C-407.233 907.262 -405.992 945.922 -401.051 979.685C-398.193 999.199 -395.53 1013.63 -393.063 1022.97C-377.742 1080.88 -347.642 1131.01 -303.642 1171.61C-264.923 1207.36 -223.526 1239.77 -179.451 1268.83C-162.189 1280.21 -128.05 1299.44 -104.967 1291.83C-89.6238 1286.8 -90.2331 1271.63 -98.7848 1260.8C-106.05 1251.62 -111.27 1244.48 -114.444 1239.38C-131.728 1211.56 -137.369 1172.44 -110.18 1147.73C-78.545 1118.98 -32.5823 1129.59 -2.64001 1155.45C27.5053 1181.45 54.7851 1228.98 62.8404 1268.02C73.987 1322.12 42.8939 1373.1 -4.26462 1398.42C-53.657 1424.92 -113.226 1406.46 -163.904 1395.54C-187.574 1390.43 -214.605 1386.24 -237.44 1390.5C-310.457 1404.18 -357.683 1481.39 -341.369 1552.7C-338.225 1566.49 -332.449 1582.01 -324.04 1599.26C-309.419 1629.31 -294.466 1659.18 -279.183 1688.88C-263.163 1720.05 -246.691 1753.14 -238.703 1787.42C-233.717 1808.75 -234.146 1831.22 -251.068 1846.8C-282.681 1875.86 -328.553 1850.02 -357.141 1831.25C-391.8 1808.48 -423.419 1781.99 -452 1751.76Z" fill="white"/>
<path d="M-340.444 3778H-452V3156.66C-451.789 3156.62 -451.601 3156.57 -451.436 3156.53C-451.105 3156.42 -450.789 3156.46 -450.488 3156.64C-404.052 3184.74 -406.443 3235.81 -399.11 3281.44C-390.017 3337.91 -366.325 3389.37 -329.771 3433.44C-320.701 3444.37 -309.419 3453.94 -300.1 3462.6C-262.298 3497.67 -222.435 3528.83 -180.511 3556.06C-160.204 3569.26 -133.917 3584.04 -108.51 3581.07C-96.7766 3579.69 -89.8043 3567.52 -93.753 3556.83C-96.0319 3550.69 -102.869 3543.65 -107.494 3537.8C-132.834 3505.75 -141.588 3454.68 -101.199 3429.25C-63.5174 3405.5 -19.4049 3424.64 8.25839 3454.48C35.6359 3484.03 53.8976 3518.15 63.0435 3556.85C71.8434 3594.11 54.4016 3637.44 28.0695 3662.9C-27.2121 3716.36 -89.3079 3699.98 -156.007 3685.11C-178.142 3680.16 -205.647 3675.02 -229.362 3677.32C-275.844 3681.86 -317.09 3716.55 -333.652 3759.63C-335.999 3765.72 -338.263 3771.85 -340.444 3778Z" fill="white"/>
<path d="M1189.48 3777.84L1056.67 3777.8C1069.65 3764.41 1085.59 3757.17 1104.5 3756.09C1116.37 3755.41 1128.17 3756.15 1139.88 3758.3C1155.53 3761.17 1172.06 3767.69 1189.48 3777.84Z" fill="white"/>
</g>
<defs>
<clipPath id="clip0_48_3">
<rect width="2825" height="3778" fill="white" transform="translate(-452)"/>
</clipPath>
</defs>
</svg>
