<svg preserveAspectRatio="none"   viewBox="0 0 1920 3618" fill="none" xmlns="http://www.w3.org/2000/svg">
<mask id="path-1-inside-1_708_1686" fill="white">
<path fill-rule="evenodd" clip-rule="evenodd" d="M1958 1702.59V2930.93C1946.7 2930.76 1934.29 2929.36 1920.77 2926.74C1901.43 2922.98 1865.04 2916.98 1811.6 2908.75C1765.38 2901.64 1721.81 2902.29 1680.01 2922.89C1660.24 2932.63 1642.22 2947.91 1634.69 2973.78C1627.62 2998.05 1640.37 3020.29 1656.06 3033.02C1667.4 3042.21 1681.09 3049.31 1695.04 3056.54C1724.93 3072.04 1756 3088.15 1767.51 3126.7C1779.91 3168.22 1758.61 3210.9 1733.58 3236.43C1719.35 3250.96 1701.84 3263 1681.05 3272.53C1641.9 3290.52 1599.03 3299.95 1557.65 3305.38C1498.19 3313.21 1438.54 3316.18 1378.7 3314.28C1288.29 3311.4 1197.5 3304.8 1107.58 3292.69C973.627 3274.65 889.16 3263.73 854.176 3259.91C784.894 3252.36 715.247 3245.17 645.643 3247.03C614.621 3247.87 586.699 3251.8 561.877 3258.81C534.895 3266.46 485.704 3288.6 484.652 3330.86C484.214 3348.87 492.493 3367.21 501.093 3382.37C503.573 3386.74 506.09 3391.04 508.586 3395.31C531.821 3435.04 553.117 3471.46 523.477 3522.42C482.287 3593.26 399.762 3611.98 333.999 3616.57C271.054 3620.97 208.225 3614.86 146.01 3602.93C97.7102 3593.67 49.517 3583.55 1.4309 3572.58C0.953935 3572.47 0.632712 3572.14 0.467233 3571.58L0 3570.01V1465.67L0.000125551 543.502C11.3013 543.637 23.7122 544.743 37.2328 546.821C56.5743 549.793 92.965 554.535 146.405 561.048C192.617 566.675 236.187 566.155 277.989 549.865C297.759 542.16 315.777 530.069 323.311 509.609C330.378 490.405 317.631 472.816 301.935 462.745C290.603 455.477 276.909 449.86 262.959 444.138C233.069 431.877 202.003 419.135 190.485 388.639C178.089 355.799 199.392 322.036 224.418 301.836C238.649 290.341 256.161 280.823 276.953 273.282C316.098 259.055 358.967 251.595 400.346 247.296C459.811 241.101 519.461 238.754 579.297 240.254C669.706 242.534 760.496 247.757 850.423 257.338C984.373 271.603 1068.84 280.246 1103.82 283.266C1173.11 289.24 1242.75 294.925 1312.36 293.453C1343.38 292.789 1371.3 289.682 1396.12 284.132C1423.11 278.086 1472.3 260.57 1473.35 227.139C1473.79 212.898 1465.51 198.383 1456.91 186.392C1454.43 182.939 1451.91 179.533 1449.41 176.158C1426.18 144.728 1404.88 115.922 1434.52 75.6086C1475.71 19.5676 1558.24 4.76379 1624 1.12776C1686.95 -2.34955 1749.77 2.48407 1811.99 11.9204C1860.29 19.2502 1908.48 27.2534 1956.57 35.9298C1957.05 36.0164 1957.37 36.2808 1957.53 36.7233L1958 37.9643L1958 1465.67V1702.59Z"/>
</mask>
<path fill-rule="evenodd" clip-rule="evenodd" d="M1958 1702.59V2930.93C1946.7 2930.76 1934.29 2929.36 1920.77 2926.74C1901.43 2922.98 1865.04 2916.98 1811.6 2908.75C1765.38 2901.64 1721.81 2902.29 1680.01 2922.89C1660.24 2932.63 1642.22 2947.91 1634.69 2973.78C1627.62 2998.05 1640.37 3020.29 1656.06 3033.02C1667.4 3042.21 1681.09 3049.31 1695.04 3056.54C1724.93 3072.04 1756 3088.15 1767.51 3126.7C1779.91 3168.22 1758.61 3210.9 1733.58 3236.43C1719.35 3250.96 1701.84 3263 1681.05 3272.53C1641.9 3290.52 1599.03 3299.95 1557.65 3305.38C1498.19 3313.21 1438.54 3316.18 1378.7 3314.28C1288.29 3311.4 1197.5 3304.8 1107.58 3292.69C973.627 3274.65 889.16 3263.73 854.176 3259.91C784.894 3252.36 715.247 3245.17 645.643 3247.03C614.621 3247.87 586.699 3251.8 561.877 3258.81C534.895 3266.46 485.704 3288.6 484.652 3330.86C484.214 3348.87 492.493 3367.21 501.093 3382.37C503.573 3386.74 506.09 3391.04 508.586 3395.31C531.821 3435.04 553.117 3471.46 523.477 3522.42C482.287 3593.26 399.762 3611.98 333.999 3616.57C271.054 3620.97 208.225 3614.86 146.01 3602.93C97.7102 3593.67 49.517 3583.55 1.4309 3572.58C0.953935 3572.47 0.632712 3572.14 0.467233 3571.58L0 3570.01V1465.67L0.000125551 543.502C11.3013 543.637 23.7122 544.743 37.2328 546.821C56.5743 549.793 92.965 554.535 146.405 561.048C192.617 566.675 236.187 566.155 277.989 549.865C297.759 542.16 315.777 530.069 323.311 509.609C330.378 490.405 317.631 472.816 301.935 462.745C290.603 455.477 276.909 449.86 262.959 444.138C233.069 431.877 202.003 419.135 190.485 388.639C178.089 355.799 199.392 322.036 224.418 301.836C238.649 290.341 256.161 280.823 276.953 273.282C316.098 259.055 358.967 251.595 400.346 247.296C459.811 241.101 519.461 238.754 579.297 240.254C669.706 242.534 760.496 247.757 850.423 257.338C984.373 271.603 1068.84 280.246 1103.82 283.266C1173.11 289.24 1242.75 294.925 1312.36 293.453C1343.38 292.789 1371.3 289.682 1396.12 284.132C1423.11 278.086 1472.3 260.57 1473.35 227.139C1473.79 212.898 1465.51 198.383 1456.91 186.392C1454.43 182.939 1451.91 179.533 1449.41 176.158C1426.18 144.728 1404.88 115.922 1434.52 75.6086C1475.71 19.5676 1558.24 4.76379 1624 1.12776C1686.95 -2.34955 1749.77 2.48407 1811.99 11.9204C1860.29 19.2502 1908.48 27.2534 1956.57 35.9298C1957.05 36.0164 1957.37 36.2808 1957.53 36.7233L1958 37.9643L1958 1465.67V1702.59Z" fill="#ED196F"/>
<path d="M1958 2930.93L1957.86 2940.28L1967.35 2940.42V2930.93H1958ZM1920.77 2926.74L1922.55 2917.56L1922.55 2917.56L1920.77 2926.74ZM1811.6 2908.75L1813.02 2899.51L1813.02 2899.51L1811.6 2908.75ZM1680.01 2922.89L1675.88 2914.5L1675.88 2914.5L1680.01 2922.89ZM1634.69 2973.78L1625.72 2971.16L1625.72 2971.16L1634.69 2973.78ZM1656.06 3033.02L1650.18 3040.28L1650.18 3040.28L1656.06 3033.02ZM1695.04 3056.54L1699.34 3048.25L1699.34 3048.25L1695.04 3056.54ZM1767.51 3126.7L1776.47 3124.03L1776.47 3124.03L1767.51 3126.7ZM1733.58 3236.43L1726.91 3229.89L1726.9 3229.89L1733.58 3236.43ZM1681.05 3272.53L1677.15 3264.04L1677.15 3264.04L1681.05 3272.53ZM1557.65 3305.38L1556.44 3296.11L1556.43 3296.12L1557.65 3305.38ZM1378.7 3314.28L1378.41 3323.62L1378.41 3323.62L1378.7 3314.28ZM1107.58 3292.69L1108.82 3283.42L1108.82 3283.42L1107.58 3292.69ZM854.176 3259.91L855.19 3250.62L855.188 3250.62L854.176 3259.91ZM645.643 3247.03L645.394 3237.69L645.391 3237.69L645.643 3247.03ZM561.877 3258.81L559.335 3249.82L559.33 3249.82L561.877 3258.81ZM484.652 3330.86L475.309 3330.63L475.309 3330.64L484.652 3330.86ZM501.093 3382.37L492.964 3386.98L492.966 3386.99L501.093 3382.37ZM508.586 3395.31L500.518 3400.03L500.518 3400.03L508.586 3395.31ZM523.477 3522.42L515.398 3517.72L515.397 3517.72L523.477 3522.42ZM333.999 3616.57L334.65 3625.9L334.651 3625.9L333.999 3616.57ZM146.01 3602.93L144.25 3612.11L144.251 3612.11L146.01 3602.93ZM1.4309 3572.58L-0.658056 3581.69L-0.647561 3581.69L1.4309 3572.58ZM0.467233 3571.58L9.4293 3568.92L9.4269 3568.92L9.42449 3568.91L0.467233 3571.58ZM0 3570.01H-9.34606V3571.37L-8.95726 3572.68L0 3570.01ZM0 1465.67L-9.34606 1465.67V1465.67H0ZM0.000125551 543.502L0.111467 534.157L-9.34593 534.044L-9.34594 543.502L0.000125551 543.502ZM37.2328 546.821L38.6524 537.583L38.6524 537.583L37.2328 546.821ZM146.405 561.048L145.274 570.325L145.275 570.325L146.405 561.048ZM277.989 549.865L281.383 558.574L281.383 558.573L277.989 549.865ZM323.311 509.609L332.081 512.839L332.082 512.837L323.311 509.609ZM301.935 462.745L306.982 454.879L306.981 454.878L301.935 462.745ZM262.959 444.138L266.506 435.491L266.506 435.491L262.959 444.138ZM190.485 388.639L181.742 391.94L181.742 391.941L190.485 388.639ZM224.418 301.836L230.288 309.109L230.291 309.107L224.418 301.836ZM276.953 273.282L280.14 282.068L280.145 282.066L276.953 273.282ZM400.346 247.296L401.312 256.592L401.314 256.591L400.346 247.296ZM579.297 240.254L579.532 230.911L579.531 230.911L579.297 240.254ZM850.423 257.338L849.433 266.631L849.434 266.631L850.423 257.338ZM1103.82 283.266L1103.02 292.578L1103.02 292.578L1103.82 283.266ZM1312.36 293.453L1312.55 302.797L1312.56 302.797L1312.36 293.453ZM1396.12 284.132L1398.16 293.253L1398.17 293.252L1396.12 284.132ZM1473.35 227.139L1482.69 227.433L1482.69 227.426L1473.35 227.139ZM1456.91 186.392L1464.5 180.945L1464.5 180.942L1456.91 186.392ZM1449.41 176.158L1456.93 170.602L1456.93 170.602L1449.41 176.158ZM1434.52 75.6086L1442.05 81.1449L1442.05 81.1437L1434.52 75.6086ZM1624 1.12776L1623.49 -8.20407L1623.49 -8.20405L1624 1.12776ZM1811.99 11.9204L1813.39 2.68017L1813.39 2.68006L1811.99 11.9204ZM1956.57 35.9298L1958.24 26.734L1958.23 26.7323L1956.57 35.9298ZM1957.53 36.7233L1948.78 39.9979L1948.78 40.0069L1948.79 40.0159L1957.53 36.7233ZM1958 37.9643L1967.35 37.9644L1967.35 36.2635L1966.75 34.6718L1958 37.9643ZM1958 1465.67L1948.65 1465.67V1465.67H1958ZM1948.65 1702.59V2930.93H1967.35V1702.59H1948.65ZM1958.14 2921.59C1947.49 2921.43 1935.64 2920.1 1922.55 2917.56L1918.98 2935.91C1932.93 2938.62 1945.9 2940.1 1957.86 2940.28L1958.14 2921.59ZM1922.55 2917.56C1903 2913.76 1866.44 2907.74 1813.02 2899.51L1810.17 2917.99C1863.63 2926.22 1899.85 2932.19 1918.99 2935.91L1922.55 2917.56ZM1813.02 2899.51C1765.89 2892.26 1720.12 2892.71 1675.88 2914.5L1684.14 2931.27C1723.51 2911.88 1764.88 2911.02 1810.17 2917.99L1813.02 2899.51ZM1675.88 2914.5C1654.61 2924.98 1634.21 2941.99 1625.72 2971.16L1643.66 2976.39C1650.23 2953.83 1665.87 2940.27 1684.14 2931.27L1675.88 2914.5ZM1625.72 2971.16C1617.23 3000.3 1632.72 3026.12 1650.18 3040.28L1661.95 3025.76C1648.02 3014.46 1638.01 2995.81 1643.66 2976.39L1625.72 2971.16ZM1650.18 3040.28C1662.38 3050.18 1676.97 3057.7 1690.74 3064.84L1699.34 3048.25C1685.21 3040.92 1672.41 3034.24 1661.95 3025.76L1650.18 3040.28ZM1690.74 3064.84C1721.07 3080.57 1748.32 3095.11 1758.56 3129.38L1776.47 3124.03C1763.67 3081.19 1728.79 3063.52 1699.34 3048.25L1690.74 3064.84ZM1758.56 3129.38C1769.59 3166.31 1750.71 3205.6 1726.91 3229.89L1740.26 3242.98C1766.51 3216.19 1790.23 3170.12 1776.47 3124.03L1758.56 3129.38ZM1726.9 3229.89C1713.57 3243.51 1697.03 3254.92 1677.15 3264.04L1684.94 3281.03C1706.64 3271.08 1725.13 3258.42 1740.26 3242.97L1726.9 3229.89ZM1677.15 3264.04C1639.18 3281.48 1597.32 3290.74 1556.44 3296.11L1558.87 3314.65C1600.74 3309.15 1644.63 3299.55 1684.95 3281.02L1677.15 3264.04ZM1556.43 3296.12C1497.47 3303.88 1438.33 3306.82 1379 3304.94L1378.41 3323.62C1438.75 3325.54 1498.91 3322.54 1558.87 3314.65L1556.43 3296.12ZM1379 3304.94C1288.84 3302.07 1198.38 3295.48 1108.82 3283.42L1106.33 3301.95C1196.63 3314.11 1287.75 3320.73 1378.41 3323.62L1379 3304.94ZM1108.82 3283.42C974.914 3265.4 890.316 3254.45 855.19 3250.62L853.162 3269.2C888.003 3273 972.34 3283.91 1106.33 3301.95L1108.82 3283.42ZM855.188 3250.62C785.962 3243.07 715.717 3235.81 645.394 3237.69L645.893 3256.37C714.776 3254.53 783.826 3261.64 853.163 3269.2L855.188 3250.62ZM645.391 3237.69C613.745 3238.54 585.035 3242.56 559.335 3249.82L564.42 3267.81C588.363 3261.04 615.497 3257.2 645.896 3256.37L645.391 3237.69ZM559.33 3249.82C545.186 3253.83 524.979 3261.68 507.957 3274.36C490.934 3287.04 475.934 3305.51 475.309 3330.63L493.996 3331.09C494.422 3313.95 504.543 3300.22 519.125 3289.35C533.707 3278.49 551.586 3271.44 564.424 3267.81L559.33 3249.82ZM475.309 3330.64C474.805 3351.34 484.231 3371.59 492.964 3386.98L509.222 3377.76C500.755 3362.84 493.623 3346.39 493.996 3331.09L475.309 3330.64ZM492.966 3386.99C495.48 3391.41 498.027 3395.77 500.518 3400.03L516.653 3390.59C514.153 3386.32 511.665 3382.06 509.22 3377.76L492.966 3386.99ZM500.518 3400.03C512.304 3420.18 522.586 3437.93 526.734 3456.67C530.734 3474.75 529.076 3494.2 515.398 3517.72L531.556 3527.12C547.518 3499.67 550.031 3475.44 544.985 3452.63C540.086 3430.5 528.103 3410.17 516.653 3390.59L500.518 3400.03ZM515.397 3517.72C476.74 3584.21 398.667 3602.69 333.347 3607.25L334.651 3625.9C400.857 3621.27 487.834 3602.32 531.556 3527.12L515.397 3517.72ZM333.348 3607.25C271.427 3611.58 209.439 3605.58 147.77 3593.75L144.251 3612.11C207.012 3624.14 270.68 3630.37 334.65 3625.9L333.348 3607.25ZM147.771 3593.75C99.5776 3584.51 51.4903 3574.41 3.50937 3563.47L-0.647561 3581.69C47.5437 3592.68 95.8428 3602.82 144.25 3612.11L147.771 3593.75ZM3.51986 3563.47C4.95085 3563.8 6.39943 3564.55 7.57132 3565.77C8.68013 3566.92 9.19472 3568.13 9.4293 3568.92L-8.49483 3574.23C-7.59015 3577.29 -5.11035 3580.67 -0.658055 3581.69L3.51986 3563.47ZM9.42449 3568.91L8.95726 3567.34L-8.95726 3572.68L-8.49003 3574.24L9.42449 3568.91ZM9.34606 3570.01V1465.67H-9.34606V3570.01H9.34606ZM9.34606 1465.67L9.34619 543.502L-9.34594 543.502L-9.34606 1465.67L9.34606 1465.67ZM-0.111216 552.848C10.6722 552.976 22.639 554.034 35.8132 556.058L38.6524 537.583C24.7854 535.452 11.9304 534.298 0.111467 534.157L-0.111216 552.848ZM35.8132 556.058C55.3197 559.056 91.8491 563.815 145.274 570.325L147.535 551.77C94.0809 545.256 57.8289 540.53 38.6524 537.583L35.8132 556.058ZM145.275 570.325C192.187 576.037 237.524 575.665 281.383 558.574L274.596 541.157C234.849 556.646 193.048 557.312 147.535 551.77L145.275 570.325ZM281.383 558.573C302.17 550.472 323.188 536.989 332.081 512.839L314.541 506.38C308.366 523.149 293.348 533.849 274.596 541.157L281.383 558.573ZM332.082 512.837C341.467 487.332 323.962 465.774 306.982 454.879L296.888 470.611C311.3 479.858 319.289 493.477 314.54 506.382L332.082 512.837ZM306.981 454.878C294.799 447.065 280.263 441.134 266.506 435.491L259.412 452.785C273.555 458.586 286.408 463.889 296.89 470.612L306.981 454.878ZM266.506 435.491C251.383 429.288 237.024 423.364 224.976 415.423C213.119 407.609 204.088 398.202 199.229 385.337L181.742 391.941C188.401 409.572 200.661 421.785 214.689 431.03C228.525 440.15 244.645 446.727 259.412 452.785L266.506 435.491ZM199.229 385.338C194.116 371.792 195.783 357.776 201.915 344.39C208.096 330.9 218.648 318.504 230.288 309.109L218.548 294.564C205.162 305.369 192.55 319.954 184.922 336.605C177.245 353.361 174.459 372.646 181.742 391.94L199.229 385.338ZM230.291 309.107C243.569 298.382 260.124 289.327 280.14 282.068L273.766 264.496C252.198 272.319 233.73 282.301 218.546 294.566L230.291 309.107ZM280.145 282.066C318.284 268.205 360.31 260.852 401.312 256.592L399.38 238C357.623 242.339 313.913 249.905 273.761 264.498L280.145 282.066ZM401.314 256.591C460.38 250.438 519.628 248.107 579.062 249.598L579.531 230.911C519.295 229.401 459.243 231.763 399.378 238L401.314 256.591ZM579.061 249.598C669.272 251.872 759.805 257.083 849.433 266.631L851.413 248.044C761.186 238.432 670.14 233.196 579.532 230.911L579.061 249.598ZM849.434 266.631C983.352 280.893 1067.92 289.548 1103.02 292.578L1104.63 273.955C1069.76 270.944 985.395 262.313 851.413 248.044L849.434 266.631ZM1103.02 292.578C1172.26 298.548 1242.38 304.281 1312.55 302.797L1312.16 284.109C1243.13 285.569 1173.95 279.932 1104.63 273.955L1103.02 292.578ZM1312.56 302.797C1344.07 302.123 1372.62 298.964 1398.16 293.253L1394.08 275.011C1369.98 280.401 1342.69 283.456 1312.16 284.109L1312.56 302.797ZM1398.17 293.252C1412.16 290.116 1432.24 283.953 1449.21 273.957C1465.8 264.178 1482.01 249.112 1482.69 227.433L1464.01 226.845C1463.64 238.597 1454.73 249.005 1439.71 257.853C1425.07 266.484 1407.07 272.103 1394.08 275.012L1398.17 293.252ZM1482.69 227.426C1483.23 209.798 1473.17 193.026 1464.5 180.945L1449.31 191.839C1457.85 203.74 1464.34 215.997 1464.01 226.851L1482.69 227.426ZM1464.5 180.942C1461.98 177.427 1459.42 173.969 1456.93 170.602L1441.9 181.714C1444.4 185.098 1446.88 188.451 1449.32 191.843L1464.5 180.942ZM1456.93 170.602C1445.03 154.509 1435.11 140.885 1431.14 126.697C1427.47 113.566 1428.76 99.2223 1442.05 81.1449L1426.99 70.0724C1410.64 92.3081 1407.77 112.524 1413.14 131.732C1418.22 149.883 1430.56 166.377 1441.9 181.714L1456.93 170.602ZM1442.05 81.1437C1461.09 55.2414 1490.04 38.4044 1522.96 27.5962C1555.87 16.7949 1592.03 12.2557 1624.52 10.4596L1623.49 -8.20405C1590.21 -6.36417 1552.23 -1.68345 1517.13 9.83642C1482.06 21.3494 1449.14 39.9348 1426.99 70.0736L1442.05 81.1437ZM1624.52 10.4596C1686.65 7.02701 1748.81 11.7914 1810.59 21.1608L1813.39 2.68006C1750.73 -6.82324 1687.24 -11.7261 1623.49 -8.20407L1624.52 10.4596ZM1810.59 21.1607C1858.8 28.4774 1906.91 36.4664 1954.91 45.1274L1958.23 26.7323C1910.06 18.0404 1861.78 10.023 1813.39 2.68017L1810.59 21.1607ZM1954.9 45.1257C1953.83 44.9316 1952.49 44.4466 1951.23 43.4084C1949.96 42.362 1949.19 41.1025 1948.78 39.9979L1966.29 33.4487C1964.93 29.8237 1961.85 27.3895 1958.24 26.734L1954.9 45.1257ZM1948.79 40.0159L1949.25 41.2569L1966.75 34.6718L1966.28 33.4307L1948.79 40.0159ZM1948.65 37.9643L1948.65 1465.67L1967.35 1465.67L1967.35 37.9644L1948.65 37.9643ZM1948.65 1465.67V1702.59H1967.35V1465.67H1948.65Z" fill="black" mask="url(#path-1-inside-1_708_1686)"/>
</svg>
